<?xml version="1.0" encoding="UTF-8"?>
<!DOCTYPE svg PUBLIC "-//W3C//DTD SVG 1.1//EN" "http://www.w3.org/Graphics/SVG/1.1/DTD/svg11.dtd">
<!-- Creator: CorelDRAW X7 -->
<svg xmlns="http://www.w3.org/2000/svg" xml:space="preserve" width="96.6046mm" height="93.8952mm" version="1.1" style="shape-rendering:geometricPrecision; text-rendering:geometricPrecision; image-rendering:optimizeQuality; fill-rule:evenodd; clip-rule:evenodd"
viewBox="0 0 9660 9390"
 xmlns:xlink="http://www.w3.org/1999/xlink">
 <defs>
  <style type="text/css">
   <![CDATA[
    .fil2 {fill:#00A08A;fill-rule:nonzero}
    .fil8 {fill:#00A38C;fill-rule:nonzero}
    .fil7 {fill:url(#id0);fill-rule:nonzero}
    .fil0 {fill:url(#id1);fill-rule:nonzero}
    .fil5 {fill:url(#id2);fill-rule:nonzero}
    .fil6 {fill:url(#id3);fill-rule:nonzero}
    .fil1 {fill:url(#id4);fill-rule:nonzero}
    .fil10 {fill:url(#id5);fill-rule:nonzero}
    .fil4 {fill:url(#id6);fill-rule:nonzero}
    .fil9 {fill:url(#id7);fill-rule:nonzero}
    .fil3 {fill:url(#id8);fill-rule:nonzero}
   ]]>
  </style>
  <linearGradient id="id0" gradientUnits="userSpaceOnUse" x1="4819.53" y1="1318.69" x2="7040.01" y2="1049.26">
   <stop offset="0" style="stop-opacity:1; stop-color:#00A28B"/>
   <stop offset="0.121569" style="stop-opacity:1; stop-color:#00A28B"/>
   <stop offset="0.819608" style="stop-opacity:1; stop-color:#272D4E"/>
   <stop offset="1" style="stop-opacity:1; stop-color:#272D4E"/>
  </linearGradient>
  <linearGradient id="id1" gradientUnits="userSpaceOnUse" x1="6196.98" y1="8436.83" x2="4638.2" y2="5665.19">
   <stop offset="0" style="stop-opacity:1; stop-color:#272D4E"/>
   <stop offset="0.219608" style="stop-opacity:1; stop-color:#272D4E"/>
   <stop offset="0.788235" style="stop-opacity:1; stop-color:#00A28B"/>
   <stop offset="1" style="stop-opacity:1; stop-color:#00A28B"/>
  </linearGradient>
  <linearGradient id="id2" gradientUnits="userSpaceOnUse" x1="1505.4" y1="5812.88" x2="9879.86" y2="4796.77">
   <stop offset="0" style="stop-opacity:1; stop-color:#272D4E"/>
   <stop offset="0.219608" style="stop-opacity:1; stop-color:#272D4E"/>
   <stop offset="0.709804" style="stop-opacity:1; stop-color:#00A28B"/>
   <stop offset="1" style="stop-opacity:1; stop-color:#00A28B"/>
  </linearGradient>
  <linearGradient id="id3" gradientUnits="userSpaceOnUse" xlink:href="#id1" x1="2828.93" y1="5162.15" x2="6571.26" y2="4708.07">
  </linearGradient>
  <linearGradient id="id4" gradientUnits="userSpaceOnUse" x1="-1239.32" y1="5450.03" x2="5728.66" y2="4604.56">
   <stop offset="0" style="stop-opacity:1; stop-color:#272D4E"/>
   <stop offset="0.219608" style="stop-opacity:1; stop-color:#272D4E"/>
   <stop offset="0.6" style="stop-opacity:1; stop-color:#00A28B"/>
   <stop offset="1" style="stop-opacity:1; stop-color:#00A28B"/>
  </linearGradient>
  <linearGradient id="id5" gradientUnits="userSpaceOnUse" x1="2760.55" y1="6895.87" x2="6936.53" y2="6389.18">
   <stop offset="0" style="stop-opacity:1; stop-color:#272D4E"/>
   <stop offset="0.219608" style="stop-opacity:1; stop-color:#272D4E"/>
   <stop offset="0.6" style="stop-opacity:1; stop-color:#009B88"/>
   <stop offset="0.709804" style="stop-opacity:1; stop-color:#00A28B"/>
   <stop offset="1" style="stop-opacity:1; stop-color:#00A28B"/>
  </linearGradient>
  <radialGradient id="id6" gradientUnits="userSpaceOnUse" gradientTransform="matrix(1.30879 0.854718 -0.854715 1.30878 1151 -1392)" cx="1009.91" cy="1711.9" r="2240.14" fx="1009.91" fy="1711.9">
   <stop offset="0" style="stop-opacity:1; stop-color:#272D4E"/>
   <stop offset="0.231373" style="stop-opacity:1; stop-color:#272D4E"/>
   <stop offset="0.721569" style="stop-opacity:1; stop-color:#00A28B"/>
   <stop offset="1" style="stop-opacity:1; stop-color:#00A28B"/>
  </radialGradient>
  <radialGradient id="id7" gradientUnits="userSpaceOnUse" gradientTransform="matrix(1.25067 0.816756 -0.816756 1.25065 2984 -1433)" xlink:href="#id6" cx="578.52" cy="3831.02" r="1599.01" fx="578.52" fy="3831.02">
  </radialGradient>
  <radialGradient id="id8" gradientUnits="userSpaceOnUse" gradientTransform="matrix(1.346 0.879024 -0.879019 1.346 2541 -2673)" cx="1648.21" cy="3539.45" r="1738.32" fx="1648.21" fy="3539.45">
   <stop offset="0" style="stop-opacity:1; stop-color:#00A28B"/>
   <stop offset="1" style="stop-opacity:1; stop-color:#272D4E"/>
  </radialGradient>
 </defs>
 <g id="Layer_x0020_1">
  <metadata id="CorelCorpID_0Corel-Layer"/>
  <g id="_2163675752272">
   <path class="fil0" d="M3174 9345c1266,-3 2210,-288 2774,-509 995,-389 1295,-766 1425,-962 301,-457 362,-970 379,-1128 43,-390 -5,-714 -54,-926 -196,-545 -629,-890 -1048,-870 -406,19 -722,377 -860,691 -362,823 515,1410 213,2230 -195,528 -748,795 -1329,1074 -601,289 -1151,374 -1500,400z"/>
   <path class="fil1" d="M7679 8969c9,-30 -2153,-411 -4221,-2201 -400,-347 -1673,-1466 -1392,-2225 114,-306 382,-281 991,-860 469,-446 923,-877 967,-1496 2,-37 43,-783 -496,-1212 -346,-274 -754,-278 -981,-279 -443,-4 -770,142 -922,211 -1006,461 -1433,1579 -1523,1830 -114,559 -200,1414 130,2303 1266,3408 7432,3979 7447,3929z"/>
   <path class="fil2" d="M3877 1955c86,709 -419,1353 -1128,1439 -708,86 -1352,-419 -1438,-1127 -86,-709 418,-1353 1127,-1439 709,-86 1353,418 1439,1127z"/>
   <path class="fil3" d="M501 5175c149,-62 366,-170 585,-359 201,-173 495,-426 549,-823 12,-90 69,-510 -204,-686 -204,-131 -549,-100 -664,101 -110,192 -7,530 311,682 3,115 -7,329 -119,565 -140,296 -359,456 -458,520z"/>
   <path class="fil4" d="M178 3433c59,-102 179,-271 390,-371 350,-165 803,-69 1151,241 -79,-53 -508,-359 -594,-928 -117,-764 494,-1276 523,-1300 -235,141 -692,459 -1043,1040 -325,539 -404,1048 -427,1318z"/>
   <path class="fil5" d="M2622 9221c426,-132 1488,-527 2153,-1570 972,-1524 840,-4024 -687,-4929 -1214,-720 -2708,-77 -2943,28 1118,-1157 2626,-1585 3784,-1086 596,257 975,704 1196,1043 152,-177 578,-623 1264,-752 827,-154 1700,215 2271,942 -1156,-324 -1733,-124 -2048,128 -601,482 -357,1249 -1014,2896 -200,501 -428,1073 -841,1598 -337,428 -1206,1345 -3135,1702z"/>
   <path class="fil6" d="M4881 8211c2091,-1928 2151,-4657 939,-5825 -1130,-1089 -3123,-586 -3297,-540 287,25 1811,183 2732,1432 988,1340 879,3388 -374,4933z"/>
   <path class="fil7" d="M6963 681c345,789 -521,1745 -892,1683 -184,-31 -169,-301 -538,-562 -328,-232 -521,-147 -639,-314 -224,-319 45,-1244 739,-1447 535,-157 1126,175 1330,640z"/>
   <path class="fil8" d="M7182 7454c75,-19 186,-58 288,-148 218,-191 343,-561 180,-871 -167,-318 -575,-457 -846,-336 -109,48 -272,174 -269,352 4,171 157,371 355,351 172,-19 315,-198 284,-402 62,20 245,88 327,261 113,236 -2,585 -319,793z"/>
   <path class="fil8" d="M7199 7351c71,-66 183,-193 221,-375 14,-63 28,-137 -6,-219 -45,-108 -143,-156 -174,-170 -1,20 -10,183 -148,281 -115,80 -272,83 -399,6 181,146 370,199 450,144 72,-48 112,-115 112,-115 24,-40 30,-70 41,-69 19,2 30,106 25,188 -5,74 -28,192 -122,329z"/>
   <path class="fil9" d="M929 4166c-52,-27 -203,-115 -290,-302 -111,-239 -36,-460 -19,-504 -102,47 -348,181 -472,458 -171,382 -41,880 338,1225 75,-50 227,-168 334,-378 108,-213 112,-409 109,-499z"/>
   <path class="fil10" d="M7040 9374c-287,23 -2366,157 -3670,-1275 -690,-758 -892,-1657 -918,-1780 -66,-306 -168,-823 39,-1397 57,-159 144,-390 362,-601 292,-281 741,-449 1196,-369 409,73 947,371 988,777 40,398 -347,849 -719,958 -119,34 -250,39 -377,153 -154,140 -184,339 -196,419 -53,352 101,1227 788,1974 877,953 2081,1107 2507,1141z"/>
   <path class="fil8" d="M3272 6318c-79,-35 -193,-100 -289,-218 -203,-251 -269,-683 -31,-993 244,-318 720,-392 995,-208 110,74 266,243 228,439 -36,187 -244,378 -457,318 -186,-53 -309,-278 -235,-496 -73,10 -286,50 -410,224 -169,239 -109,645 199,934z"/>
   <path class="fil8" d="M3235 6337c-248,-85 -359,-207 -415,-307 -91,-164 -38,-266 -165,-487 -73,-128 -194,-268 -246,-245 -16,7 -14,21 -29,227 -9,129 -16,209 38,264 2,1 3,3 4,4 0,0 6,6 13,11 42,32 140,56 140,56 86,21 105,175 148,258 47,91 169,192 512,219z"/>
   <path class="fil8" d="M3292 6160c-65,-86 -165,-247 -172,-455 -2,-72 -4,-156 49,-239 70,-110 186,-145 224,-154 -3,22 -24,203 109,337 111,110 283,143 437,83 -226,126 -445,148 -523,73 -69,-67 -100,-148 -100,-148 -19,-49 -20,-83 -32,-84 -22,-1 -54,110 -63,202 -9,82 -6,216 71,385z"/>
  </g>
 </g>
</svg>
