<?xml version="1.0" encoding="UTF-8"?>
<!DOCTYPE svg PUBLIC "-//W3C//DTD SVG 1.1//EN" "http://www.w3.org/Graphics/SVG/1.1/DTD/svg11.dtd">
<!-- Creator: CorelDRAW X7 -->
<svg xmlns="http://www.w3.org/2000/svg" xml:space="preserve" width="67.3098mm" height="16.0866mm" version="1.1" style="shape-rendering:geometricPrecision; text-rendering:geometricPrecision; image-rendering:optimizeQuality; fill-rule:evenodd; clip-rule:evenodd"
viewBox="0 0 6731 1609"
 xmlns:xlink="http://www.w3.org/1999/xlink">
 <defs>
  <style type="text/css">
   <![CDATA[
    .fil7 {fill:#26AAE1}
    .fil5 {fill:#2C3691}
    .fil2 {fill:#424143}
    .fil6 {fill:#4BBE9C}
    .fil1 {fill:#922A8E}
    .fil8 {fill:#F69B8E}
    .fil4 {fill:#F8EF24}
    .fil3 {fill:white}
    .fil0 {fill:#FEFEFE;fill-rule:nonzero}
   ]]>
  </style>
 </defs>
 <g id="Layer_x0020_1">
  <metadata id="CorelCorpID_0Corel-Layer"/>
  <g id="_1957618665376">
   <g>
    <path class="fil0" d="M1894 688l67 0 0 -115 102 0 0 -56 -102 0 0 -69 119 0 0 -56 -186 0 0 296zm272 5c25,0 46,-12 65,-28l2 0 4 23 55 0 0 -129c0,-69 -32,-101 -90,-101 -35,0 -67,12 -96,29l24 44c22,-13 40,-20 60,-20 24,0 34,12 35,32 -89,9 -127,35 -127,82 0,38 26,68 68,68zm22 -51c-16,0 -26,-7 -26,-22 0,-17 16,-31 63,-37l0 40c-12,11 -22,19 -37,19zm160 46l65 0 0 -55 28 -33 51 88 72 0 -85 -133 79 -92 -73 0 -71 89 -1 0 0 -182 -65 0 0 318zm307 5c31,0 52,-14 71,-36l2 0 4 31 55 0 0 -225 -67 0 0 149c-13,17 -23,25 -40,25 -19,0 -28,-11 -28,-43l0 -131 -66 0 0 140c0,56 20,90 69,90zm252 0c14,0 26,-2 33,-5l-8 -50c-4,1 -6,1 -8,1 -6,0 -12,-4 -12,-18l0 -251 -67 0 0 248c0,45 16,75 62,75zm155 0c21,0 38,-4 49,-8l-10 -48c-6,2 -14,4 -21,4 -18,0 -29,-10 -29,-36l0 -90 54 0 0 -52 -54 0 0 -60 -56 0 -7 60 -35 3 0 49 31 0 0 91c0,52 22,87 78,87zm134 0c26,0 46,-12 65,-28l2 0 5 23 54 0 0 -129c0,-69 -32,-101 -89,-101 -36,0 -68,12 -96,29l24 44c22,-13 40,-20 59,-20 25,0 34,12 36,32 -89,9 -127,35 -127,82 0,38 26,68 67,68zm23 -51c-16,0 -26,-7 -26,-22 0,-17 15,-31 63,-37l0 40c-12,11 -22,19 -37,19zm226 51c60,0 92,-31 92,-72 0,-42 -32,-57 -61,-68 -23,-8 -44,-14 -44,-28 0,-12 8,-18 26,-18 16,0 31,7 47,19l30 -40c-19,-14 -45,-28 -79,-28 -52,0 -86,28 -86,70 0,37 32,56 59,66 23,9 46,16 46,31 0,12 -9,19 -29,19 -19,0 -37,-8 -58,-24l-30 42c23,19 57,31 87,31zm288 -5l67 0 0 -240 81 0 0 -56 -229 0 0 56 81 0 0 240zm255 5c27,0 57,-9 80,-25l-23 -40c-16,9 -31,14 -48,14 -30,0 -53,-14 -58,-47l134 0c1,-6 3,-18 3,-30 0,-61 -32,-107 -96,-107 -54,0 -106,44 -106,117 0,75 50,118 114,118zm-50 -142c5,-29 23,-43 44,-43 26,0 37,18 37,43l-81 0zm184 137l65 0 0 -55 28 -33 51 88 72 0 -84 -133 78 -92 -72 0 -71 89 -2 0 0 -182 -65 0 0 318zm248 0l67 0 0 -152c15,-14 25,-22 42,-22 19,0 27,10 27,43l0 131 67 0 0 -140c0,-56 -21,-90 -70,-90 -30,0 -53,15 -72,34l-2 0 -4 -29 -55 0 0 225zm356 5c57,0 109,-43 109,-118 0,-74 -52,-117 -109,-117 -57,0 -109,43 -109,117 0,75 52,118 109,118zm0 -54c-27,0 -41,-25 -41,-64 0,-39 14,-64 41,-64 27,0 41,25 41,64 0,39 -14,64 -41,64zm216 54c15,0 27,-2 34,-5l-8 -50c-4,1 -6,1 -8,1 -6,0 -12,-4 -12,-18l0 -251 -67 0 0 248c0,45 16,75 61,75zm165 0c57,0 110,-43 110,-118 0,-74 -53,-117 -110,-117 -57,0 -109,43 -109,117 0,75 52,118 109,118zm0 -54c-27,0 -41,-25 -41,-64 0,-39 14,-64 41,-64 28,0 42,25 42,64 0,39 -14,64 -42,64zm236 144c77,0 125,-34 125,-80 0,-41 -30,-57 -86,-57l-36 0c-25,0 -34,-6 -34,-17 0,-8 2,-12 8,-17 10,3 19,5 28,5 49,0 88,-24 88,-76 0,-12 -3,-23 -7,-30l36 0 0 -48 -83 0c-9,-4 -22,-5 -34,-5 -49,0 -93,27 -93,81 0,26 14,47 30,58l0 2c-14,10 -25,26 -25,42 0,19 9,30 21,38l0 2c-21,12 -33,27 -33,45 0,40 42,57 95,57zm5 -207c-18,0 -31,-12 -31,-37 0,-24 13,-37 31,-37 17,0 30,13 30,37 0,25 -13,37 -30,37zm5 166c-30,0 -50,-9 -50,-26 0,-8 4,-15 12,-22 8,1 17,2 32,2l23 0c22,0 35,4 35,18 0,15 -22,28 -52,28zm151 -54l67 0 0 -225 -67 0 0 225zm33 -258c23,0 39,-15 39,-35 0,-20 -16,-34 -39,-34 -22,0 -38,14 -38,34 0,20 16,35 38,35z"/>
    <path class="fil0" d="M1894 1104l67 0 0 -295 -67 0 0 295zm131 0l67 0 0 -151c14,-14 25,-22 41,-22 19,0 28,10 28,42l0 131 67 0 0 -139c0,-56 -21,-91 -70,-91 -31,0 -53,16 -72,34l-2 0 -5 -28 -54 0 0 224zm339 6c22,0 44,-12 60,-28l2 0 5 22 54 0 0 -317 -67 0 0 76 3 35c-15,-15 -30,-24 -55,-24 -48,0 -94,45 -94,118 0,73 37,118 92,118zm18 -55c-26,0 -41,-19 -41,-64 0,-43 19,-62 40,-62 12,0 26,3 37,14l0 92c-10,15 -22,20 -36,20zm229 55c31,0 52,-14 71,-37l2 0 5 31 54 0 0 -224 -67 0 0 148c-13,18 -23,25 -40,25 -19,0 -28,-10 -28,-42l0 -131 -66 0 0 139c0,56 21,91 69,91zm257 0c60,0 92,-32 92,-73 0,-41 -32,-57 -61,-67 -23,-9 -44,-14 -44,-29 0,-11 8,-17 26,-17 16,0 31,7 47,19l30 -40c-19,-15 -45,-29 -79,-29 -52,0 -86,29 -86,70 0,38 32,56 59,67 23,9 46,15 46,30 0,12 -9,19 -29,19 -19,0 -37,-8 -58,-23l-30 42c23,18 57,31 87,31zm212 0c21,0 38,-5 50,-8l-11 -49c-6,2 -14,5 -21,5 -18,0 -29,-11 -29,-36l0 -90 54 0 0 -52 -54 0 0 -60 -56 0 -7 60 -35 2 0 50 31 0 0 91c0,52 22,87 78,87zm87 -6l66 0 0 -130c12,-30 33,-41 50,-41 9,0 16,1 24,3l11 -57c-6,-3 -14,-5 -27,-5 -23,0 -47,15 -64,45l-1 0 -5 -39 -54 0 0 224zm180 0l67 0 0 -224 -67 0 0 224zm33 -257c23,0 39,-15 39,-35 0,-21 -16,-35 -39,-35 -22,0 -38,14 -38,35 0,20 16,35 38,35zm263 263c22,0 44,-12 60,-28l2 0 4 22 55 0 0 -317 -67 0 0 76 3 35c-16,-15 -31,-24 -56,-24 -47,0 -93,45 -93,118 0,73 36,118 92,118zm17 -55c-26,0 -41,-19 -41,-64 0,-43 19,-62 41,-62 12,0 25,3 37,14l0 92c-11,15 -22,20 -37,20zm219 55c26,0 46,-12 65,-29l2 0 5 23 54 0 0 -128c0,-69 -32,-102 -89,-102 -36,0 -68,12 -96,30l24 44c22,-13 40,-21 59,-21 25,0 34,13 36,33 -89,9 -127,35 -127,82 0,38 26,68 67,68zm23 -52c-16,0 -26,-7 -26,-21 0,-17 15,-31 63,-37l0 39c-12,12 -22,19 -37,19zm159 46l67 0 0 -151c14,-14 25,-22 42,-22 19,0 27,10 27,42l0 131 67 0 0 -139c0,-56 -21,-91 -70,-91 -30,0 -53,16 -72,34l-2 0 -4 -28 -55 0 0 224zm356 0l66 0 0 -295 -66 0 0 295zm131 0l66 0 0 -151c15,-14 25,-22 42,-22 19,0 28,10 28,42l0 131 66 0 0 -139c0,-56 -21,-91 -70,-91 -30,0 -53,16 -72,34l-1 0 -5 -28 -54 0 0 224zm270 0l67 0 0 -172 40 0 0 -52 -40 0 0 -14c0,-23 9,-32 26,-32 7,0 15,2 23,4l12 -49c-10,-3 -26,-8 -45,-8 -61,0 -83,39 -83,87l0 12 -30 2 0 50 30 0 0 172zm235 6c57,0 110,-43 110,-118 0,-75 -53,-118 -110,-118 -57,0 -109,43 -109,118 0,75 52,118 109,118zm0 -54c-27,0 -41,-25 -41,-64 0,-39 14,-64 41,-64 28,0 42,25 42,64 0,39 -14,64 -42,64zm155 48l67 0 0 -130c12,-30 33,-41 49,-41 10,0 17,1 25,3l11 -57c-7,-3 -14,-5 -27,-5 -23,0 -48,15 -64,45l-2 0 -4 -39 -55 0 0 224zm181 0l66 0 0 -151c14,-15 28,-22 39,-22 19,0 27,10 27,42l0 131 67 0 0 -151c14,-15 27,-22 38,-22 19,0 28,10 28,42l0 131 67 0 0 -139c0,-56 -22,-91 -71,-91 -30,0 -50,17 -70,38 -12,-24 -31,-38 -62,-38 -30,0 -50,16 -68,35l-2 0 -5 -29 -54 0 0 224zm445 6c25,0 46,-12 65,-29l2 0 4 23 55 0 0 -128c0,-69 -32,-102 -89,-102 -36,0 -68,12 -96,30l24 44c21,-13 40,-21 59,-21 24,0 34,13 35,33 -89,9 -126,35 -126,82 0,38 26,68 67,68zm23 -52c-16,0 -26,-7 -26,-21 0,-17 15,-31 62,-37l0 39c-12,12 -22,19 -36,19zm237 52c22,0 39,-5 50,-8l-10 -49c-6,2 -14,5 -21,5 -18,0 -29,-11 -29,-36l0 -90 54 0 0 -52 -54 0 0 -60 -56 0 -7 60 -35 2 0 50 31 0 0 91c0,52 22,87 77,87zm87 -6l67 0 0 -224 -67 0 0 224zm34 -257c22,0 38,-15 38,-35 0,-21 -16,-35 -38,-35 -23,0 -39,14 -39,35 0,20 16,35 39,35zm92 257l64 0 0 -55 29 -32 51 87 72 0 -85 -132 79 -92 -73 0 -71 89 -2 0 0 -182 -64 0 0 317zm300 6c25,0 46,-12 65,-29l2 0 5 23 54 0 0 -128c0,-69 -32,-102 -89,-102 -36,0 -68,12 -96,30l24 44c21,-13 40,-21 59,-21 25,0 34,13 35,33 -88,9 -126,35 -126,82 0,38 26,68 67,68zm23 -52c-16,0 -26,-7 -26,-21 0,-17 15,-31 62,-37l0 39c-11,12 -21,19 -36,19z"/>
    <path class="fil0" d="M1894 1471l17 0 0 -248 -17 0 0 248zm144 0l18 0 0 -233 79 0 0 -15 -176 0 0 15 79 0 0 233zm198 0l18 0 0 -233 79 0 0 -15 -176 0 0 15 79 0 0 233zm189 5c26,0 42,-9 57,-18l-7 -13c-14,10 -29,17 -49,17 -41,0 -67,-33 -68,-79l131 0c0,-4 0,-9 0,-13 0,-54 -26,-84 -69,-84 -41,0 -79,36 -79,95 0,60 37,95 84,95zm-67 -106c4,-44 31,-70 62,-70 33,0 53,23 53,70l-115 0zm203 106c5,0 8,-1 12,-2l-3 -13c-4,0 -6,0 -7,0 -5,0 -8,-3 -8,-11l0 -250 -17 0 0 247c0,20 8,29 23,29zm67 -5l17 0 0 -49 40 -48 60 97 19 0 -69 -109 59 -72 -19 0 -90 110 0 0 0 -200 -17 0 0 271zm237 5c44,0 81,-35 81,-95 0,-61 -37,-95 -81,-95 -44,0 -82,34 -82,95 0,60 38,95 82,95zm0 -15c-37,0 -64,-32 -64,-80 0,-48 27,-81 64,-81 36,0 64,33 64,81 0,48 -28,80 -64,80zm136 10l16 0 0 -136c20,-23 38,-34 55,-34 28,0 40,18 40,56l0 114 17 0 0 -136c20,-23 37,-34 54,-34 28,0 41,18 41,56l0 114 17 0 0 -116c0,-47 -18,-69 -55,-69 -20,0 -40,14 -61,37 -6,-23 -21,-37 -50,-37 -20,0 -41,14 -57,32l-1 0 -2 -28 -14 0 0 181zm384 0l17 0 0 -106 47 0c55,0 89,-24 89,-73 0,-51 -34,-69 -91,-69l-62 0 0 248zm17 -121l0 -113 41 0c52,0 77,13 77,55 0,41 -25,58 -75,58l-43 0zm240 126c25,0 44,-14 62,-35l1 0 2 30 14 0 0 -181 -17 0 0 134c-21,26 -37,37 -59,37 -29,0 -41,-18 -41,-57l0 -114 -16 0 0 117c0,46 17,69 54,69zm148 -5l17 0 0 -123c14,-34 33,-46 49,-46 7,0 11,0 17,3l4 -16c-7,-3 -12,-3 -19,-3 -21,0 -39,16 -51,38l-1 0 -2 -34 -14 0 0 181zm158 0l20 0 31 -111c6,-18 10,-35 15,-53l1 0c5,18 9,35 14,52l32 112 22 0 52 -181 -17 0 -32 118c-4,16 -9,32 -13,48l-2 0c-4,-16 -9,-32 -13,-48l-33 -118 -20 0 -33 118c-4,16 -9,32 -13,48l-2 0c-3,-16 -8,-32 -12,-48l-33 -118 -18 0 54 181zm297 5c44,0 81,-35 81,-95 0,-61 -37,-95 -81,-95 -44,0 -81,34 -81,95 0,60 37,95 81,95zm0 -15c-37,0 -64,-32 -64,-80 0,-48 27,-81 64,-81 36,0 64,33 64,81 0,48 -28,80 -64,80zm136 10l16 0 0 -49 41 -48 60 97 19 0 -69 -109 59 -72 -19 0 -90 110 -1 0 0 -200 -16 0 0 271zm239 5c27,0 43,-9 57,-18l-7 -13c-13,10 -29,17 -48,17 -41,0 -68,-33 -69,-79l131 0c1,-4 1,-9 1,-13 0,-54 -27,-84 -70,-84 -40,0 -79,36 -79,95 0,60 38,95 84,95zm-67 -106c4,-44 32,-70 63,-70 32,0 53,23 53,70l-116 0zm181 101l17 0 0 -123c13,-34 33,-46 49,-46 7,0 11,0 17,3l3 -16c-6,-3 -11,-3 -18,-3 -21,0 -39,16 -51,38l-1 0 -2 -34 -14 0 0 181zm169 5c8,0 19,-3 30,-7l-5 -13c-6,3 -16,5 -23,5 -25,0 -30,-15 -30,-38l0 -118 52 0 0 -15 -52 0 0 -52 -15 0 -2 52 -29 2 0 13 29 0 0 116c0,33 10,55 45,55zm130 0c44,0 82,-35 82,-95 0,-61 -38,-95 -82,-95 -43,0 -81,34 -81,95 0,60 38,95 81,95zm0 -15c-36,0 -63,-32 -63,-80 0,-48 27,-81 63,-81 37,0 65,33 65,81 0,48 -28,80 -65,80z"/>
   </g>
   <g>
    <path class="fil1" d="M1073 642l86 0 0 368 -30 0c-44,0 -56,-18 -56,-63l0 -305zm-161 0l87 0 0 368 -33 0c-39,0 -54,-13 -54,-52l0 -316zm372 101l-72 0 0 -161c25,-1 24,9 32,27 14,32 44,103 40,134zm-708 -101l294 0 0 68 -103 1 -1 299c-98,0 -86,-21 -86,-123 0,-59 0,-118 0,-176l-103 -1 -1 -68zm-197 368c-80,0 -58,-87 -58,-155 0,-71 0,-141 0,-213l237 0 0 66 -151 1 0 91 126 0 0 67 -125 1 -1 142 -28 0zm544 -461l73 0 0 74 -73 0 0 -74zm98 -66l136 0 0 135 -136 0 0 -135zm-174 -62l100 2 -1 98 -100 1 1 -101zm-615 456l0 16c0,104 75,243 146,317l102 82c24,16 47,23 62,36 137,-11 320,-98 423,-153 67,-36 117,-74 173,-115 35,-26 138,-113 153,-140 3,-33 8,-52 7,-87 0,-17 -2,-35 -4,-45 -3,-29 3,-23 -10,-45 0,0 2,0 97,0 0,-46 -2,-97 -1,-111 0,-57 0,-55 0,-55 -34,1 -118,1 -153,1 -25,-48 -60,-94 -99,-130 -209,-193 -539,-192 -742,11 -14,14 -17,18 -28,32 -28,35 -48,59 -71,103 -32,62 -79,232 -55,283z"/>
    <path class="fil2" d="M1238 1089c0,7 2,5 -7,5 -40,59 -307,253 -412,277 -15,14 -27,16 -47,24 -19,7 -34,13 -51,19 -145,53 -462,121 -580,0 -50,-52 -56,-121 -43,-194l7 -24c1,-1 1,-3 2,-4 0,116 110,179 208,200 172,37 312,-25 355,-26l24 -11c106,-36 216,-86 308,-144 52,-33 166,-112 206,-152 19,-19 45,-43 63,-56 29,-25 110,-121 140,-160 44,-53 49,-67 83,-119 57,-85 63,-125 95,-188l8 -13c-3,40 -49,130 -65,163 -67,135 -136,234 -233,344 -15,18 -43,46 -61,59zm365 -582c0,26 0,10 -6,16 0,-26 0,-10 6,-16zm0 0l3 -12 -3 12zm5 -22c0,-14 9,-1 3,0 0,0 -3,15 -3,0zm5 -16c0,-14 9,-1 4,0 0,0 -4,15 -4,0zm6 -22l1 2c0,0 -2,-1 -1,-2zm-328 473c-15,27 -118,114 -153,140 -56,41 -106,79 -173,115 -103,55 -286,142 -423,153 -71,6 -130,21 -217,6 -237,-41 -200,-254 -116,-405l16 -27c8,-10 2,-3 7,-9l0 -16c-26,2 -24,11 -37,28 -11,13 -18,19 -30,34 -68,88 -109,141 -147,256 -57,170 13,303 131,363 301,154 778,-83 1017,-291 88,-76 159,-146 230,-238 145,-190 250,-413 282,-653 11,-74 32,-288 8,-361 -8,-23 -1,-4 -7,-14 0,104 -16,203 -35,292l-37 126c-7,18 -14,39 -22,59 -9,23 -17,36 -26,56 -18,41 -33,71 -55,109 -37,66 -86,133 -134,192 -14,18 -63,76 -79,85z"/>
    <path class="fil3" d="M379 1010l28 0 1 -142 125 -1 0 -67 -126 0 0 -91 151 -1 0 -66 -237 0c0,72 0,142 0,213 0,68 -22,155 58,155z"/>
    <path class="fil3" d="M577 710l103 1c0,58 0,117 0,176 0,102 -12,123 86,123l1 -299 103 -1 0 -68 -294 0 1 68z"/>
    <path class="fil1" d="M670 1366c26,1 40,6 73,6 26,-1 51,-1 76,-1 105,-24 372,-218 412,-277l7 -5c4,-17 10,-26 17,-43 6,-13 12,-27 16,-43 -18,13 -44,37 -63,56 -40,40 -154,119 -206,152 -92,58 -202,108 -308,144l-24 11z"/>
    <path class="fil3" d="M912 958c0,39 15,52 54,52l33 0 0 -368 -87 0 0 316z"/>
    <path class="fil3" d="M1073 947c0,45 12,63 56,63l30 0 0 -368 -86 0 0 305z"/>
    <polygon class="fil4" points="1347,523 1510,523 1510,365 1347,365 "/>
    <polygon class="fil3" points="1021,618 1157,618 1157,483 1021,483 "/>
    <path class="fil5" d="M1151 300c0,119 -21,98 98,98 27,0 16,-43 16,-114 -71,0 -114,-11 -114,16z"/>
    <path class="fil6" d="M1309 295c0,25 30,16 92,16 25,0 17,-30 17,-92 0,-27 -40,-17 -109,-17l0 93z"/>
    <polygon class="fil7" points="1467,246 1570,246 1570,142 1467,142 "/>
    <polygon class="fil3" points="846,522 946,521 947,423 847,421 "/>
    <path class="fil3" d="M1284 743c4,-31 -26,-102 -40,-134 -8,-18 -7,-28 -32,-27l0 161 72 0z"/>
    <polygon class="fil8" points="1543,88 1630,88 1630,7 1543,7 "/>
    <polygon class="fil3" points="923,623 996,623 996,549 923,549 "/>
   </g>
  </g>
 </g>
</svg>
