<?xml version="1.0" encoding="UTF-8"?>
<!DOCTYPE svg PUBLIC "-//W3C//DTD SVG 1.1//EN" "http://www.w3.org/Graphics/SVG/1.1/DTD/svg11.dtd">
<!-- Creator: CorelDRAW X7 -->
<svg xmlns="http://www.w3.org/2000/svg" xml:space="preserve" width="49.6992mm" height="49.6992mm" version="1.1" style="shape-rendering:geometricPrecision; text-rendering:geometricPrecision; image-rendering:optimizeQuality; fill-rule:evenodd; clip-rule:evenodd"
viewBox="0 0 4970 4970"
 xmlns:xlink="http://www.w3.org/1999/xlink">
 <defs>
  <style type="text/css">
   <![CDATA[
    .fil1 {fill:#30917A}
    .fil8 {fill:#319981}
    .fil2 {fill:#319982}
    .fil9 {fill:#319A82}
    .fil10 {fill:#349B83}
    .fil3 {fill:#39B496}
    .fil4 {fill:#3CB599}
    .fil6 {fill:#F9FCFA}
    .fil7 {fill:#FAFCFC}
    .fil5 {fill:#FCFDFD}
    .fil0 {fill:#FDFEFE}
   ]]>
  </style>
 </defs>
 <g id="Layer_x0020_1">
  <metadata id="CorelCorpID_0Corel-Layer"/>
  <g id="_1957779366752">
   <path class="fil0" d="M858 2471l12 230c6,41 8,81 17,122 39,177 98,350 193,505 83,134 174,253 288,362 32,31 167,146 205,167 42,23 69,48 115,71 95,46 138,78 256,117l104 34c47,10 156,44 195,40l0 -946c0,-21 -28,-42 -52,-64 -10,-10 -19,-21 -30,-30l-22 -19c-4,-5 -5,-6 -9,-10l-105 -101c-11,-11 -5,-8 -25,-8l-344 0c-25,0 -32,-13 -46,-27 -63,-65 -131,-124 -192,-188 -6,-6 -11,-10 -18,-17l-28 -28c-54,-47 -20,-17 -91,-12 -31,2 -41,-1 -67,-8 -77,-22 -111,-119 -103,-193 4,-40 24,-74 50,-98 71,-67 244,-49 275,97 13,61 -22,117 -19,127 8,11 22,23 33,34l205 199c22,22 26,21 61,21l202 0c-1,-17 -49,-54 -64,-69 -20,-18 -15,-36 -15,-62l0 -123c0,-30 -39,-46 -61,-63l-175 -133c-15,-11 -27,-12 -28,-36 -7,-157 11,-343 -1,-494 -17,-8 -32,-11 -50,-23 -8,-6 -15,-12 -21,-18 -22,-22 -35,-37 -44,-71 -17,-63 7,-132 50,-173 93,-89 257,-32 278,95 7,47 -5,96 -27,124 -34,45 -40,43 -89,65 -5,112 -1,326 -1,449 0,24 19,30 34,41 27,20 55,45 84,63 21,13 23,26 49,29l-1 -260c-34,-12 -65,-34 -87,-64 -27,-39 -30,-67 -27,-125 3,-44 30,-79 53,-99 93,-78 266,-32 276,110 9,141 -86,153 -119,182 -4,172 0,345 0,517 0,32 47,61 69,83 10,9 17,18 27,26l210 204c10,10 17,17 27,26l54 52c11,11 18,13 18,34l0 1078c0,30 -37,11 -80,9 -30,-2 -62,-6 -90,-15 -95,-27 -147,-34 -249,-70 -29,-10 -51,-20 -75,-30 -26,-10 -48,-22 -72,-32 -63,-27 -116,-59 -175,-93 -14,-7 -17,-12 -31,-21l-66 -41c-18,-12 -39,-32 -61,-47 -52,-36 -183,-155 -222,-203l-72 -86c-8,-9 -14,-20 -23,-31 -38,-49 -55,-79 -87,-126l-41 -64c-40,-64 -78,-145 -105,-215 -28,-73 -64,-168 -76,-242 -7,-38 -14,-45 -20,-87 -1,-15 -7,-25 -9,-43 -2,-15 -2,-33 -5,-48 -13,-77 -21,-231 -13,-305 3,-32 5,-68 6,-100 1,-37 11,-56 13,-91 4,-77 28,-148 49,-219 17,-60 33,-119 60,-176 14,-30 26,-67 41,-96 156,-301 369,-550 656,-724l170 -93c122,-51 225,-97 358,-124 61,-12 115,-24 180,-30 138,-12 188,-13 317,-9 68,2 129,13 194,23 56,9 212,46 259,68 26,12 53,16 78,30l133 58c33,18 72,38 102,58l53 32c21,15 44,28 66,43 149,101 279,230 389,373 55,72 106,151 148,231 41,78 93,185 115,269l27 80c8,29 15,58 23,86 9,33 26,150 30,188 2,21 6,24 7,44 3,68 13,270 -6,333l-20 134c-7,45 -23,129 -37,171l-26 80c-7,21 -20,56 -29,75 -17,34 -26,73 -47,109 -32,54 -48,97 -92,167 -40,64 -85,123 -130,182 -30,40 -66,78 -99,113 -32,34 -72,68 -106,100 -19,18 -38,30 -56,46 -15,14 -39,33 -59,47l-44 30c-7,4 -12,7 -17,11 -73,57 -182,111 -269,149 -13,5 -25,11 -37,15 -67,26 -165,67 -234,79l-86 19c-43,12 -96,11 -140,19 -30,6 -67,9 -102,6 0,-5 -5,-1074 2,-1084 5,-9 73,-54 90,-67l120 -91c32,-25 24,-26 24,-66 0,-130 -3,-259 0,-388 68,-49 218,-151 279,-201 17,-13 10,-28 10,-75l-1 -115c-40,-16 -67,-29 -89,-63 -46,-71 -38,-159 24,-218 28,-29 67,-44 111,-45 81,-1 158,57 168,139 12,110 -44,159 -116,188 -2,60 0,124 0,184 0,66 -5,49 -80,102l-159 115c-9,6 -18,12 -27,19 -8,6 -19,15 -26,21l0 304c25,-2 128,-87 148,-102l285 -214c36,-27 68,-57 105,-81 19,-12 27,-13 27,-38 0,-120 4,-361 -1,-467 -31,-17 -56,-26 -81,-53 -58,-64 -48,-204 49,-256 120,-65 273,33 243,187 -9,46 -35,80 -72,103 -14,9 -29,12 -41,19l-2 534c-127,90 -247,189 -375,280l-91 70c-27,23 -272,196 -278,213 32,2 112,8 136,-7 8,-5 16,-8 25,-13l369 -195c7,-52 -7,-75 17,-121 33,-64 119,-93 191,-81 152,27 171,257 24,316 -52,22 -119,17 -164,-19 -33,-25 -29,-10 -111,32l-43 24c-10,5 -14,7 -24,12 -16,8 -29,16 -45,24l-179 96c-49,27 -44,27 -111,27 -45,0 -91,0 -136,0 -44,0 -104,-12 -104,34l0 717c0,27 28,16 57,9 23,-5 50,-7 72,-13 67,-20 131,-32 196,-59l87 -39c49,-19 98,-45 142,-72 70,-44 138,-86 199,-143 34,-32 48,-39 90,-82 15,-15 28,-28 44,-44l39 -45c37,-49 76,-96 109,-148 40,-65 57,-95 91,-165 8,-18 21,-38 29,-58 17,-43 32,-80 46,-124 14,-45 25,-86 37,-134l19 -109c5,-83 13,-93 13,-204 0,-137 -13,-203 -36,-329 -17,-92 -59,-191 -92,-274 -20,-50 -51,-105 -80,-149l-53 -84c-140,-202 -322,-361 -540,-468 -20,-9 -41,-22 -62,-32 -31,-14 -66,-29 -100,-38 -31,-9 -67,-25 -100,-35 -22,-7 -50,-14 -74,-18 -37,-7 -74,-18 -113,-23 -126,-15 -262,-19 -389,-2 -13,2 -26,1 -40,3 -36,4 -77,18 -112,23 -76,12 -196,60 -270,92 -272,116 -517,345 -665,599 -30,52 -69,125 -89,182 -27,74 -36,90 -58,171 -37,138 -50,247 -50,396 0,61 9,154 17,216 4,28 10,42 14,66 6,41 20,86 31,128 10,39 27,79 41,117 29,77 89,187 134,256 32,49 66,94 101,137 93,114 210,213 335,294 64,43 131,79 202,110 77,33 100,38 174,63 22,7 43,9 60,19l0 82c-38,1 -151,-43 -193,-57 -21,-7 -39,-17 -60,-25 -63,-25 -167,-77 -221,-116 -17,-12 -35,-23 -51,-33 -17,-12 -31,-23 -49,-36 -217,-154 -413,-418 -510,-670 -37,-93 -71,-193 -85,-292l-9 -32c-8,-38 -15,-203 -15,-244 0,-32 1,-64 2,-95 0,-44 8,-90 11,-134l26 -120c4,-22 14,-52 21,-73 23,-74 46,-148 76,-216 5,-11 9,-17 15,-31 15,-31 37,-63 52,-94 70,-140 231,-321 352,-421 52,-42 110,-84 165,-123 28,-19 161,-86 191,-100l119 -50c7,-3 11,-4 18,-6 25,-7 49,-15 74,-22 38,-9 77,-23 115,-28 39,-5 86,-17 125,-22 53,-6 129,-10 187,-10l180 10c16,2 26,6 38,8 17,2 29,1 44,4 16,3 25,8 40,10 16,2 25,3 40,8 59,19 119,31 183,56 13,5 23,9 34,14 76,29 129,50 200,93 63,37 116,71 173,114l56 42c10,9 11,13 24,23 28,22 51,46 76,71 124,123 232,275 316,453 53,114 106,276 121,410 1,17 5,22 7,42 9,147 17,225 0,372l-27 154c-6,26 -18,85 -27,106 -13,31 -21,69 -34,100 -16,42 -48,122 -68,157 -67,118 -144,245 -239,343 -157,160 -316,282 -523,373l-96 38c-14,5 -19,4 -34,11 -41,18 -95,32 -139,40 -51,11 -100,20 -156,27l-1 85c0,21 6,18 26,16 27,-1 23,-5 39,-8 53,-11 109,-14 159,-32 25,-8 54,-13 77,-21l238 -99c10,-7 22,-8 35,-15 24,-12 39,-23 61,-34 50,-26 130,-81 174,-117l80 -64c41,-34 85,-80 123,-119 93,-96 179,-217 243,-337 34,-64 66,-130 91,-196 3,-7 4,-10 8,-17 4,-7 4,-8 7,-17l21 -76c4,-14 8,-17 13,-35 13,-52 27,-104 36,-157 37,-232 34,-441 -21,-670 -24,-102 -36,-127 -65,-212l-74 -163c-5,-10 -10,-21 -17,-32 -97,-163 -150,-242 -289,-382 -84,-85 -185,-163 -284,-228 -95,-62 -240,-128 -350,-164l-118 -35c-50,-15 -168,-34 -219,-39 -102,-9 -206,-15 -310,-5 -26,2 -70,3 -95,8 -17,3 -24,4 -44,6 -15,1 -28,7 -40,10l-86 17c-22,3 -56,13 -77,21 -25,10 -53,15 -78,25 -50,18 -96,37 -145,58 -76,33 -190,104 -255,148 -40,27 -79,54 -115,86 -110,97 -203,201 -289,318 -28,39 -53,83 -79,121 -48,70 -113,230 -139,314 -23,73 -37,125 -52,201 -18,93 -26,184 -26,281zm1305 -667c-1,-1 -2,-3 -2,-2 -1,0 -2,-2 -3,-2l-44 -22c-16,-9 -30,-22 -42,-36 -82,-98 -31,-260 107,-270 209,-16 255,240 82,318l-1 333c16,-2 90,-68 104,-79 29,-25 70,-62 100,-82l1 -469c-54,-24 -46,-8 -94,-57 -57,-59 -49,-167 4,-224 56,-59 161,-67 225,-18 92,70 89,229 -38,286l-1 523c-26,21 -48,43 -74,62 -36,27 -205,172 -227,184 -5,106 0,221 -1,327 0,37 9,35 29,54 13,12 29,26 41,39 16,15 27,23 42,39 13,12 28,35 48,38 2,-63 -8,-43 28,-78l190 -182c12,-13 16,-13 16,-36l0 -643c-1,-47 11,-41 37,-72 17,-19 32,-36 49,-57l53 -56c13,-13 100,-103 102,-114 4,-25 -57,-77 -5,-174 28,-53 74,-82 137,-88 141,-13 218,131 152,253 -72,131 -182,63 -208,72l-218 232c-9,10 -6,27 -6,43 0,34 0,68 0,102 0,54 4,530 -1,555 -4,21 -146,146 -177,178 -16,16 -34,37 -52,49l-1 1593c92,5 168,-11 251,-17 21,-2 41,-7 60,-9 25,-3 29,-9 53,-12 29,-5 56,-9 83,-19 8,-3 17,-7 26,-8 45,-8 191,-61 226,-78l70 -31c29,-16 62,-29 92,-46 87,-47 168,-101 244,-159 73,-56 151,-129 214,-194 113,-116 197,-250 281,-389l86 -185c34,-73 82,-245 93,-314l31 -205c1,-11 1,-23 2,-34 8,-83 3,-181 -1,-265 -3,-46 -15,-131 -23,-177l-51 -220c-15,-33 -23,-68 -35,-102l-61 -139c-27,-63 -58,-120 -94,-177 -131,-206 -318,-420 -528,-553 -46,-29 -96,-67 -145,-91 -10,-4 -16,-6 -25,-11l-89 -44c-62,-33 -125,-52 -191,-79 -50,-21 -103,-31 -157,-43 -30,-7 -74,-22 -105,-26 -12,-2 -22,-1 -34,-3 -131,-27 -409,-33 -540,-5 -39,8 -75,13 -114,20l-83 19c-10,4 -16,5 -27,7 -104,21 -242,85 -341,131l-47 23c-114,63 -217,138 -318,219 -64,51 -151,137 -203,201l-61 76c-20,26 -35,47 -57,77 -58,81 -106,168 -149,258 -22,46 -39,94 -58,142 -36,86 -54,175 -77,263 -17,62 -16,116 -22,145 -7,33 -3,36 -7,64 -13,103 -7,186 -4,289 0,26 5,34 5,60 0,31 16,155 25,181 10,32 16,72 26,106l98 275c5,12 8,12 12,22 42,112 132,246 203,339 97,127 209,239 336,338 103,79 215,149 333,205 31,14 66,26 94,42 51,29 246,84 308,96 78,14 159,27 239,33 78,6 61,11 61,-71l0 -1078c0,-88 4,-185 0,-271 -1,-25 -14,-25 -28,-40 -33,-32 -69,-73 -104,-100 -26,-19 -47,-43 -69,-64 -31,-33 -56,-35 -55,-80l0 -541c0,-85 5,-187 -1,-270z"/>
   <path class="fil1" d="M3528 2758c92,-28 129,125 34,144 -77,15 -109,-68 -77,-116 13,-20 18,-20 43,-28zm-2282 -326c43,-20 87,14 97,43 31,88 -95,144 -139,55 -14,-29 -5,-76 42,-98zm629 -474c20,-8 74,5 84,55 9,47 -24,81 -57,87 -78,14 -114,-68 -76,-116 22,-27 21,-15 49,-26zm1280 -44c116,-26 118,129 39,139 -112,16 -116,-121 -39,-139zm368 -158c40,-17 86,16 93,48 10,51 -15,80 -52,92 -41,13 -81,-15 -89,-50 -12,-51 12,-73 48,-90zm-1918 -120c20,-7 40,-1 56,8 53,33 40,118 -17,133 -78,21 -120,-68 -83,-114 16,-21 18,-17 44,-27zm-747 835c0,-97 8,-188 26,-281 15,-76 29,-128 52,-201 26,-84 91,-244 139,-314 26,-38 51,-82 79,-121 86,-117 179,-221 289,-318 36,-32 75,-59 115,-86 65,-44 179,-115 255,-148 49,-21 95,-40 145,-58 25,-10 53,-15 78,-25 21,-8 55,-18 77,-21l86 -17c12,-3 25,-9 40,-10 20,-2 27,-3 44,-6 25,-5 69,-6 95,-8 104,-10 208,-4 310,5 51,5 169,24 219,39l118 35c110,36 255,102 350,164 99,65 200,143 284,228 139,140 192,219 289,382 7,11 12,22 17,32l74 163c29,85 41,110 65,212 55,229 58,438 21,670 -9,53 -23,105 -36,157 -5,18 -9,21 -13,35l-21 76c-3,9 -3,10 -7,17 -4,7 -5,10 -8,17 -25,66 -57,132 -91,196 -64,120 -150,241 -243,337 -38,39 -82,85 -123,119l-80 64c-44,36 -124,91 -174,117 -22,11 -37,22 -61,34 -13,7 -25,8 -35,15l-238 99c-23,8 -52,13 -77,21 -50,18 -106,21 -159,32 -16,3 -12,7 -39,8 -20,2 -26,5 -26,-16l1 -85c56,-7 105,-16 156,-27 44,-8 98,-22 139,-40 15,-7 20,-6 34,-11l96 -38c207,-91 366,-213 523,-373 95,-98 172,-225 239,-343 20,-35 52,-115 68,-157 13,-31 21,-69 34,-100 9,-21 21,-80 27,-106l27 -154c17,-147 9,-225 0,-372 -2,-20 -6,-25 -7,-42 -15,-134 -68,-296 -121,-410 -84,-178 -192,-330 -316,-453 -25,-25 -48,-49 -76,-71 -13,-10 -14,-14 -24,-23l-56 -42c-57,-43 -110,-77 -173,-114 -71,-43 -124,-64 -200,-93 -11,-5 -21,-9 -34,-14 -64,-25 -124,-37 -183,-56 -15,-5 -24,-6 -40,-8 -15,-2 -24,-7 -40,-10 -15,-3 -27,-2 -44,-4 -12,-2 -22,-6 -38,-8l-180 -10c-58,0 -134,4 -187,10 -39,5 -86,17 -125,22 -38,5 -77,19 -115,28 -25,7 -49,15 -74,22 -7,2 -11,3 -18,6l-119 50c-30,14 -163,81 -191,100 -55,39 -113,81 -165,123 -121,100 -282,281 -352,421 -15,31 -37,63 -52,94 -6,14 -10,20 -15,31 -30,68 -53,142 -76,216 -7,21 -17,51 -21,73l-26 120c-3,44 -11,90 -11,134 -1,31 -2,63 -2,95 0,41 7,206 15,244l9 32c14,99 48,199 85,292 97,252 293,516 510,670 18,13 32,24 49,36 16,10 34,21 51,33 54,39 158,91 221,116 21,8 39,18 60,25 42,14 155,58 193,57l0 -82c-17,-10 -38,-12 -60,-19 -74,-25 -97,-30 -174,-63 -71,-31 -138,-67 -202,-110 -125,-81 -242,-180 -335,-294 -35,-43 -69,-88 -101,-137 -45,-69 -105,-179 -134,-256 -14,-38 -31,-78 -41,-117 -11,-42 -25,-87 -31,-128 -4,-24 -10,-38 -14,-66 -8,-62 -17,-155 -17,-216 0,-149 13,-258 50,-396 22,-81 31,-97 58,-171 20,-57 59,-130 89,-182 148,-254 393,-483 665,-599 74,-32 194,-80 270,-92 35,-5 76,-19 112,-23 14,-2 27,-1 40,-3 127,-17 263,-13 389,2 39,5 76,16 113,23 24,4 52,11 74,18 33,10 69,26 100,35 34,9 69,24 100,38 21,10 42,23 62,32 218,107 400,266 540,468l53 84c29,44 60,99 80,149 33,83 75,182 92,274 23,126 36,192 36,329 0,111 -8,121 -13,204l-19 109c-12,48 -23,89 -37,134 -14,44 -29,81 -46,124 -8,20 -21,40 -29,58 -34,70 -51,100 -91,165 -33,52 -72,99 -109,148l-39 45c-16,16 -29,29 -44,44 -42,43 -56,50 -90,82 -61,57 -129,99 -199,143 -44,27 -93,53 -142,72l-87 39c-65,27 -129,39 -196,59 -22,6 -49,8 -72,13 -29,7 -57,18 -57,-9l0 -717c0,-46 60,-34 104,-34 45,0 91,0 136,0 67,0 62,0 111,-27l179 -96c16,-8 29,-16 45,-24 10,-5 14,-7 24,-12l43 -24c82,-42 78,-57 111,-32 45,36 112,41 164,19 147,-59 128,-289 -24,-316 -72,-12 -158,17 -191,81 -24,46 -10,69 -17,121l-369 195c-9,5 -17,8 -25,13 -24,15 -104,9 -136,7 6,-17 251,-190 278,-213l91 -70c128,-91 248,-190 375,-280l2 -534c12,-7 27,-10 41,-19 37,-23 63,-57 72,-103 30,-154 -123,-252 -243,-187 -97,52 -107,192 -49,256 25,27 50,36 81,53 5,106 1,347 1,467 0,25 -8,26 -27,38 -37,24 -69,54 -105,81l-285 214c-20,15 -123,100 -148,102l0 -304c7,-6 18,-15 26,-21 9,-7 18,-13 27,-19l159 -115c75,-53 80,-36 80,-102 0,-60 -2,-124 0,-184 72,-29 128,-78 116,-188 -10,-82 -87,-140 -168,-139 -44,1 -83,16 -111,45 -62,59 -70,147 -24,218 22,34 49,47 89,63l1 115c0,47 7,62 -10,75 -61,50 -211,152 -279,201 -3,129 0,258 0,388 0,40 8,41 -24,66l-120 91c-17,13 -85,58 -90,67 -7,10 -2,1079 -2,1084 35,3 72,0 102,-6 44,-8 97,-7 140,-19l86 -19c69,-12 167,-53 234,-79 12,-4 24,-10 37,-15 87,-38 196,-92 269,-149 5,-4 10,-7 17,-11l44 -30c20,-14 44,-33 59,-47 18,-16 37,-28 56,-46 34,-32 74,-66 106,-100 33,-35 69,-73 99,-113 45,-59 90,-118 130,-182 44,-70 60,-113 92,-167 21,-36 30,-75 47,-109 9,-19 22,-54 29,-75l26 -80c14,-42 30,-126 37,-171l20 -134c19,-63 9,-265 6,-333 -1,-20 -5,-23 -7,-44 -4,-38 -21,-155 -30,-188 -8,-28 -15,-57 -23,-86l-27 -80c-22,-84 -74,-191 -115,-269 -42,-80 -93,-159 -148,-231 -110,-143 -240,-272 -389,-373 -22,-15 -45,-28 -66,-43l-53 -32c-30,-20 -69,-40 -102,-58l-133 -58c-25,-14 -52,-18 -78,-30 -47,-22 -203,-59 -259,-68 -65,-10 -126,-21 -194,-23 -129,-4 -179,-3 -317,9 -65,6 -119,18 -180,30 -133,27 -236,73 -358,124l-170 93c-287,174 -500,423 -656,724 -15,29 -27,66 -41,96 -27,57 -43,116 -60,176 -21,71 -45,142 -49,219 -2,35 -12,54 -13,91 -1,32 -3,68 -6,100 -8,74 0,228 13,305 3,15 3,33 5,48 2,18 8,28 9,43 6,42 13,49 20,87 12,74 48,169 76,242 27,70 65,151 105,215l41 64c32,47 49,77 87,126 9,11 15,22 23,31l72 86c39,48 170,167 222,203 22,15 43,35 61,47l66 41c14,9 17,14 31,21 59,34 112,66 175,93 24,10 46,22 72,32 24,10 46,20 75,30 102,36 154,43 249,70 28,9 60,13 90,15 43,2 80,21 80,-9l0 -1078c0,-21 -7,-23 -18,-34l-54 -52c-10,-9 -17,-16 -27,-26l-210 -204c-10,-8 -17,-17 -27,-26 -22,-22 -69,-51 -69,-83 0,-172 -4,-345 0,-517 33,-29 128,-41 119,-182 -10,-142 -183,-188 -276,-110 -23,20 -50,55 -53,99 -3,58 0,86 27,125 22,30 53,52 87,64l1 260c-26,-3 -28,-16 -49,-29 -29,-18 -57,-43 -84,-63 -15,-11 -34,-17 -34,-41 0,-123 -4,-337 1,-449 49,-22 55,-20 89,-65 22,-28 34,-77 27,-124 -21,-127 -185,-184 -278,-95 -43,41 -67,110 -50,173 9,34 22,49 44,71 6,6 13,12 21,18 18,12 33,15 50,23 12,151 -6,337 1,494 1,24 13,25 28,36l175 133c22,17 61,33 61,63l0 123c0,26 -5,44 15,62 15,15 63,52 64,69l-202 0c-35,0 -39,1 -61,-21l-205 -199c-11,-11 -25,-23 -33,-34 -3,-10 32,-66 19,-127 -31,-146 -204,-164 -275,-97 -26,24 -46,58 -50,98 -8,74 26,171 103,193 26,7 36,10 67,8 71,-5 37,-35 91,12l28 28c7,7 12,11 18,17 61,64 129,123 192,188 14,14 21,27 46,27l344 0c20,0 14,-3 25,8l105 101c4,4 5,5 9,10l22 19c11,9 20,20 30,30 24,22 52,43 52,64l0 946c-39,4 -148,-30 -195,-40l-104 -34c-118,-39 -161,-71 -256,-117 -46,-23 -73,-48 -115,-71 -38,-21 -173,-136 -205,-167 -114,-109 -205,-228 -288,-362 -95,-155 -154,-328 -193,-505 -9,-41 -11,-81 -17,-122l-12 -230z"/>
   <path class="fil0" d="M4885 2817c12,6 11,8 13,12 -24,12 -71,13 -102,12 -65,-1 -116,-17 -169,-50 -72,-46 -80,-61 -14,-62 74,0 108,17 177,46l95 42zm-4883 -224l0 -86c148,12 312,180 477,93 34,-17 32,-20 37,-64 4,-29 6,-76 -5,-96 -21,3 -5,9 -53,30 -57,25 -83,22 -144,12 -33,-6 -35,-12 -62,-21 -38,-12 -79,-35 -119,-50 -58,-23 -68,-27 -127,-41 0,-18 -4,-47 2,-61l5 21c17,7 42,10 58,16l117 49c57,21 110,59 197,53 39,-3 99,-22 118,-47 -2,-25 -37,-89 -51,-103 -20,-1 -38,8 -57,11 -134,18 -266,-95 -375,-111 0,-23 11,-116 16,-128l0 15c34,-9 59,-17 98,-22 35,-4 85,-3 117,2 97,14 156,64 183,63 1,-1 1,-3 1,-3l9 -45c6,-16 8,-30 12,-48l24 -96c31,-117 81,-230 130,-340l72 -135c6,-11 7,-8 12,-18 29,-54 104,-166 143,-213 11,-13 16,-23 25,-35 155,-190 384,-394 602,-511l76 -43c28,-14 56,-23 82,-38 50,-29 199,-82 257,-98 125,-35 155,-46 285,-69 235,-42 592,-32 811,27 34,10 48,9 97,24 16,5 1,2 15,6 10,2 17,3 25,6 27,9 61,20 89,30 32,12 56,21 87,32l120 56c12,7 31,11 43,17l152 87c23,12 47,30 70,46 73,48 137,100 203,154 34,28 149,143 178,174 59,65 159,191 206,267 16,26 33,44 47,73 9,18 28,54 41,75l41 80c13,27 26,52 37,82 21,53 48,111 66,169l28 91c5,19 11,26 14,44 3,16 7,37 10,53 3,16 2,9 6,20 4,10 3,15 6,27 3,14 5,34 11,47 9,-2 28,-12 37,-16 82,-42 128,-55 220,-54 41,0 67,4 102,12 5,-6 3,5 4,-12 6,13 20,118 20,139 -32,-14 -67,-26 -109,-30 -35,-3 -104,-1 -128,14 5,11 11,10 25,15l210 78c9,0 4,2 9,-2 3,4 2,1 3,8l4 52c-5,-12 1,-6 -9,-13 -9,-6 -36,-9 -52,-17l-69 -26c-44,-20 -86,-38 -135,-55 -54,-19 -59,-24 -127,38 -18,17 -74,84 -76,109 22,-1 26,-30 121,-28 114,3 262,112 351,115l0 44c-16,-8 -54,-13 -75,-22 -24,-11 -47,-21 -71,-31 -22,-9 -44,-20 -70,-29 -17,-7 -18,-9 -33,-15 -14,-6 -26,-7 -42,-12 -58,-18 -119,-14 -171,11 -26,13 -34,27 -37,64 -3,30 -5,74 3,100 25,-7 52,-41 114,-49 37,-5 75,3 108,12l147 61c28,12 88,39 123,41 0,15 3,25 -3,38 -19,-1 -48,-10 -63,-16 -19,-9 -34,-14 -56,-23 -21,-8 -34,-14 -53,-23 -20,-10 -40,-15 -58,-23 -77,-33 -180,-41 -245,16 -6,34 29,87 46,106 19,2 37,-7 54,-10 90,-14 181,35 259,70 23,10 74,31 98,36 3,-3 5,-3 7,-7 0,19 -7,56 -10,75 -2,13 -4,29 -6,40l-7 32c0,-1 -1,2 -1,2 -39,3 -56,12 -99,13 -176,0 -228,-67 -258,-68 -5,11 -9,34 -11,48 -3,21 -8,33 -11,50 -14,76 -40,160 -67,232l-25 61c-2,5 -2,6 -4,11l-22 52c-11,27 -25,57 -37,83 -42,92 -117,216 -176,298 -58,80 -147,193 -213,257 -82,78 -164,154 -254,220 -48,36 -89,65 -140,95l-152 87c-45,32 -280,120 -336,137 -71,23 -131,31 -193,46 -173,42 -355,48 -545,43l-214 -24c-112,-23 -276,-55 -380,-96l-84 -32c-39,-13 -45,-20 -81,-37 -30,-14 -53,-24 -79,-40 -12,-7 -27,-11 -41,-19 -12,-7 -24,-15 -37,-23 -103,-58 -188,-116 -282,-189 -98,-76 -272,-253 -350,-359l-99 -139c-16,-22 -28,-52 -43,-75 -49,-78 -65,-115 -103,-194 -22,-46 -48,-118 -67,-169l-77 -279c-2,-18 -3,-31 -10,-44 -9,3 -26,15 -38,22 -13,7 -27,15 -42,21 -23,9 -67,23 -94,28 -46,9 -125,7 -172,-1 -24,-4 -18,-11 -46,-13 -6,-11 -21,-115 -21,-137 15,4 39,15 53,19 17,4 46,12 60,14 40,4 101,0 134,-11 -4,-12 5,-4 -26,-17l-90 -40c-34,-16 -86,-38 -134,-40 -4,5 -4,-2 -5,12 -2,-4 -6,-48 -6,-57 25,10 49,0 172,57 12,6 17,11 29,15l68 26c56,22 69,22 124,-28 24,-22 73,-75 77,-110 -29,7 -60,31 -132,21 -67,-9 -152,-56 -219,-81 -33,-13 -86,-33 -124,-34l1 51c-1,-2 -2,-5 -3,-8zm2373 -2003c79,-12 304,-5 397,16 16,4 35,4 53,7 32,6 66,12 101,19l167 45c8,3 13,3 22,6 5,2 14,7 21,10 10,3 12,1 22,6l166 72c132,63 248,138 365,226 1,0 3,2 4,3l95 83c59,48 182,186 230,248 72,94 86,125 143,215 33,51 42,80 62,117 35,65 49,116 73,166 9,20 8,24 15,45 5,14 12,33 15,46l28 90c20,69 26,131 40,198 4,17 4,35 7,54 18,102 14,243 12,346l-9 110 -54 275c-17,68 -43,140 -66,202 -98,260 -286,532 -487,708 -5,4 -11,10 -16,15 -83,76 -158,132 -253,193 -91,60 -216,125 -315,162 -121,46 -242,86 -374,106 -20,3 -32,3 -51,8 -17,4 -31,8 -50,9 -37,2 -71,9 -109,11 -78,3 -156,3 -235,2 -38,-1 -71,-8 -109,-10 -77,-6 -320,-60 -391,-87 -28,-10 -59,-23 -85,-33 -106,-39 -227,-102 -319,-160l-54 -37c-7,-4 -11,-6 -18,-10 -25,-16 -47,-34 -69,-50 -57,-43 -82,-69 -130,-109 -42,-35 -83,-79 -120,-119 -120,-126 -215,-266 -296,-420 -29,-54 -52,-105 -76,-163 -25,-58 -47,-118 -61,-178l-12 -48c-9,-32 -18,-58 -24,-95l-37 -261c-3,-109 -6,-239 11,-345 6,-36 6,-71 12,-110l31 -148c16,-34 5,-18 13,-45l60 -180 75 -163c121,-247 325,-493 540,-654 89,-66 189,-136 292,-186 54,-26 107,-53 164,-75l65 -26c114,-45 195,-54 305,-81 70,-18 157,-17 214,-26zm-2241 1570c18,-5 29,-5 51,-5 56,1 130,25 172,52 12,8 20,15 32,24 20,15 21,16 27,32 -69,22 -135,-10 -182,-23 -10,-3 -136,-53 -146,-68l9 -4c1,0 2,-1 3,-1l34 -7z"/>
   <path class="fil2" d="M2680 4713c1,21 -1,72 2,89 7,31 4,120 3,152l-56 1 -50 -84c-20,-33 -38,-74 -49,-86 -1,61 5,56 5,85 0,30 0,59 0,89l-47 0c-1,-22 -5,-7 -5,-61 0,-46 -6,-163 -4,-181 82,-1 57,-8 85,35 10,15 18,29 26,41 7,12 15,28 23,40 9,14 15,30 23,43 2,-3 -2,-89 -5,-103 -11,-47 -8,-73 49,-60zm-116 255l-138 0c-191,-5 -382,-33 -562,-78 -88,-22 -176,-50 -258,-82 -168,-64 -315,-139 -456,-229 -19,-12 -35,-22 -54,-34l-148 -109c-72,-56 -140,-119 -208,-182l-61 -65c-8,-8 -15,-14 -23,-22l-99 -116c-87,-111 -193,-258 -258,-385l-43 -83c-39,-77 -70,-158 -102,-239 -26,-65 -108,-335 -110,-403 28,2 22,9 46,13 47,8 126,10 172,1 27,-5 71,-19 94,-28 15,-6 29,-14 42,-21 12,-7 29,-19 38,-22 7,13 8,26 10,44l77 279c19,51 45,123 67,169 38,79 54,116 103,194 15,23 27,53 43,75l99 139c78,106 252,283 350,359 94,73 179,131 282,189 13,8 25,16 37,23 14,8 29,12 41,19 26,16 49,26 79,40 36,17 42,24 81,37l84 32c104,41 268,73 380,96l214 24c190,5 372,-1 545,-43 62,-15 122,-23 193,-46 56,-17 291,-105 336,-137l152 -87c51,-30 92,-59 140,-95 90,-66 172,-142 254,-220 66,-64 155,-177 213,-257 59,-82 134,-206 176,-298 12,-26 26,-56 37,-83l22 -52c2,-5 2,-6 4,-11l25 -61c27,-72 53,-156 67,-232 3,-17 8,-29 11,-50 2,-14 6,-37 11,-48 30,1 82,68 258,68 43,-1 60,-10 99,-13 0,19 -17,92 -22,112 -42,164 -66,241 -129,398 -15,39 -113,246 -130,259 0,-4 17,-73 -35,-96 -57,-25 -93,31 -121,43 -14,7 -17,3 -31,-5 -1,-47 22,-52 39,-75 -19,-27 -34,-41 -53,-12 -4,7 -2,5 -7,11 -62,82 -9,156 59,137 37,-11 68,-66 95,-43 16,14 8,36 -3,51 -24,32 -24,23 -37,38l33 32 19 -17c8,-4 1,-5 7,0 -40,73 -98,142 -127,190l-209 -80c-12,-4 -20,-5 -28,-13 -16,13 -33,37 -47,54 4,16 40,62 52,78 13,17 85,119 90,136 -7,7 -12,11 -18,18 -19,23 -100,110 -121,122 -48,-38 -101,-104 -147,-151 -8,-8 -13,-16 -25,-20l-51 44c-1,1 -2,2 -2,2 8,10 10,23 16,36l17 39c10,23 26,53 37,75 -16,-1 -108,-76 -140,-87 -40,28 -17,12 -55,45 6,7 13,17 18,23 4,7 2,5 8,13l111 142c8,10 5,0 8,18 -13,12 -28,21 -41,32 -13,9 -26,19 -39,28 -28,18 -52,35 -80,54 -19,-3 -11,-10 -35,-29 -26,-20 -32,-29 -53,-38l-17 -8c12,-30 24,-61 -21,-91 -14,-9 -19,-9 -39,-8 -36,1 -91,44 -120,62l122 206c-5,10 -15,11 -34,21l-110 55c-22,10 -139,63 -155,64 5,-8 102,-32 62,-155 -9,-28 -28,-52 -51,-68 -63,-43 -154,4 -171,57 -13,42 -6,85 18,121 27,41 59,56 107,54l10 2c-169,67 -367,109 -554,135 -76,11 -154,17 -232,19zm-310 -20c-20,-5 -27,-3 -50,-4 -2,-44 8,-82 10,-123l8 -59c3,-13 2,-16 2,-29 1,-14 5,-18 6,-31 18,6 28,3 50,4 5,31 -3,37 -4,62 0,16 0,15 -3,27l-13 124c-1,17 -3,13 -6,29zm611 -260l72 -14c14,-3 62,-15 72,-12 1,3 7,35 8,39 -8,6 -63,14 -88,22l5 38c5,15 -3,16 48,5 10,-1 33,-7 39,-8 4,14 9,33 11,45 -94,12 -86,12 -83,35l16 75c-20,4 -36,11 -56,11 -1,-23 -29,-151 -35,-179 -9,-39 -6,-31 -9,-57zm-1479 10c5,-8 9,-18 14,-28l99 -186 67 30 -23 148c-1,10 -3,3 -2,17 3,-1 26,-29 28,-33l84 -94 47 21c6,3 9,3 15,5 1,20 -31,89 -41,116 -6,18 -14,40 -21,56 -8,19 -14,43 -25,54 -48,-24 -48,-11 -37,-41l26 -66c14,-30 23,-54 36,-83l-58 64c-6,9 -12,13 -19,21 -26,26 -38,59 -60,52l-27 -11c-1,-42 19,-127 26,-172 3,-14 7,-8 1,-16 -15,35 -59,117 -81,163 -13,1 -16,-2 -27,-8 -8,-4 -16,-6 -22,-9zm-306 -189c9,-20 21,-35 33,-53 5,-8 9,-16 17,-25l84 -123c16,7 47,30 64,42 17,11 49,29 59,42 -6,11 -13,25 -21,33 -17,-3 -63,-41 -81,-50 -8,13 -20,27 -26,42l71 49c-8,11 -15,24 -23,36 -13,-3 -24,-15 -37,-24 -45,-29 -33,-28 -57,1 -5,7 -9,11 -11,22 7,8 34,24 40,28l42 28c-23,19 -13,21 -27,33 -16,-6 -48,-29 -65,-41 -13,-9 -21,-13 -33,-21l-29 -19zm-6 -306c-5,10 -22,27 -32,31 -28,-19 -19,-28 -51,-40l-129 139c-11,-6 -12,-11 -20,-18 -9,-8 -12,-7 -21,-14l132 -148c-14,-14 -27,-18 -45,-42 5,-10 22,-27 32,-32l100 94c13,13 25,16 34,30zm-489 -252c5,12 34,101 70,69 33,-30 -54,-126 38,-159 23,-8 39,-2 58,7 22,11 66,59 61,87 -49,29 -40,3 -52,-16 -31,-50 -58,-27 -58,-7 0,27 22,50 15,89 -3,16 -2,18 -11,29 -24,29 -68,36 -104,10 -48,-34 -54,-82 -61,-93 8,-3 24,-6 44,-16zm-36 -294c11,-6 20,-11 31,-18 18,-11 14,-16 26,6 7,14 12,16 17,31 -5,4 -5,4 -12,8l-144 84c-18,9 -36,23 -51,31 -3,-5 -5,-6 -9,-12l-21 -38 163 -92zm-274 -261c3,26 3,44 12,62 7,17 23,38 44,20 22,-19 -2,-79 24,-113 53,-70 147,6 143,97 -9,0 -19,0 -28,1 -15,2 -1,4 -17,4 -4,-37 -7,-77 -48,-77 -13,20 -10,15 -10,47 1,47 -11,93 -64,101 -10,2 -33,-3 -43,-10 -5,-4 -12,-10 -16,-13 -15,-14 -24,-33 -31,-50 -36,-83 16,-61 34,-69zm4285 -83c46,14 90,35 131,50 5,2 11,4 15,5l82 34c-7,13 -17,32 -20,49l-117 -45c-21,-9 -99,-36 -111,-46l20 -47z"/>
   <path class="fil2" d="M150 1723c12,6 44,15 58,20 10,3 47,14 53,19 9,-10 12,-17 15,-28 4,-12 7,-21 11,-32 3,-11 19,-50 20,-60 -8,-5 -45,-16 -57,-20l-55 -19c-1,-18 10,-34 14,-52l289 97c-1,16 -11,36 -16,52 -10,0 -53,-16 -65,-20 -12,-4 -51,-19 -63,-20 -9,13 -15,43 -21,60 -4,11 -20,45 -20,57l121 44c2,1 4,3 5,2 0,0 1,1 2,2 -6,7 -7,10 -10,20 -5,16 -5,26 -20,24l-209 -69c-10,-4 -69,-21 -68,-31l16 -46zm2262 -1721l147 0c130,4 264,18 401,44 148,29 349,87 485,148 26,11 48,20 73,31 91,39 254,132 334,186 50,33 166,116 212,157 10,8 19,14 26,23 -20,-9 -48,-35 -94,-23 -5,1 -11,4 -15,6 -20,12 -41,32 -42,60 -2,42 11,60 29,90 39,61 -24,106 -78,50 -6,-6 -11,-16 -18,-24 -9,-11 -8,-16 -16,-27 -10,2 -27,16 -35,27 9,46 111,128 173,89 16,-10 35,-32 41,-56 16,-58 -72,-129 -27,-161 26,-18 63,5 77,28l19 28 37 -23c-7,-23 -19,-32 -26,-42l85 76c30,31 93,88 119,120 30,39 83,91 108,129 -24,-10 -59,-46 -113,-9 -16,11 -22,15 -31,47 -8,33 8,63 16,95 15,64 -66,99 -108,-22l-5 -13c0,0 -1,-1 -1,-2 -14,7 -29,14 -42,21 15,33 24,75 68,103 44,28 84,34 123,-6 18,-17 19,-17 21,-49 3,-48 -18,-53 -17,-123 27,-15 51,-34 87,28 4,9 4,10 7,18l9 16c13,-5 25,-10 39,-15 4,-11 -2,1 0,-8l1 -5c0,0 1,-2 1,-2 0,-1 1,-2 1,-3l43 60c8,11 35,49 37,60 -14,20 -35,33 -53,51 -9,8 -18,19 -27,26 -31,21 -81,75 -100,90 -8,7 -9,5 -17,11 -9,8 -21,20 -28,29 7,19 19,38 29,52l113 -30c18,-5 104,-31 111,-29 -8,12 -9,9 -20,18 -11,9 -10,10 -23,19l-65 55c-11,7 -12,10 -22,19 -9,9 -14,11 -23,19 -8,7 -15,14 -21,21l28 49 263 -62c8,-2 29,-9 39,-9 7,11 65,150 66,165 -13,0 -26,0 -38,0 -22,0 -20,4 -39,5l-162 0c-28,0 -44,5 -75,5l13 43c8,13 16,10 52,9 25,0 22,-5 39,-5 11,13 11,23 19,45l16 48 -71 55c2,10 6,19 9,27 3,8 2,5 5,12l4 13c28,-16 64,-47 93,-68 8,-5 9,-7 16,-12l144 -105c0,1 1,2 1,2l14 38c27,82 66,233 77,318 -1,17 1,6 -4,12 -35,-8 -61,-12 -102,-12 -92,-1 -138,12 -220,54 -9,4 -28,14 -37,16 -6,-13 -8,-33 -11,-47 -3,-12 -2,-17 -6,-27 -4,-11 -3,-4 -6,-20 -3,-16 -7,-37 -10,-53 -3,-18 -9,-25 -14,-44l-28 -91c-18,-58 -45,-116 -66,-169 -11,-30 -24,-55 -37,-82l-41 -80c-13,-21 -32,-57 -41,-75 -14,-29 -31,-47 -47,-73 -47,-76 -147,-202 -206,-267 -29,-31 -144,-146 -178,-174 -66,-54 -130,-106 -203,-154 -23,-16 -47,-34 -70,-46l-152 -87c-12,-6 -31,-10 -43,-17l-120 -56c-31,-11 -55,-20 -87,-32 -28,-10 -62,-21 -89,-30 -8,-3 -15,-4 -25,-6 -14,-4 1,-1 -15,-6 -49,-15 -63,-14 -97,-24 -219,-59 -576,-69 -811,-27 -130,23 -160,34 -285,69 -58,16 -207,69 -257,98 -26,15 -54,24 -82,38l-76 43c-218,117 -447,321 -602,511 -9,12 -14,22 -25,35 -39,47 -114,159 -143,213 -5,10 -6,7 -12,18l-72 135c-49,110 -99,223 -130,340l-24 96c-4,18 -6,32 -12,48l-9 45c0,0 0,2 -1,3 -27,1 -86,-49 -183,-63 -32,-5 -82,-6 -117,-2 -39,5 -64,13 -98,22l0 -15c3,-32 11,-59 17,-89 6,-31 12,-59 19,-87 31,-134 103,-342 164,-464 20,-39 47,-100 71,-140 7,-12 12,-22 19,-34 80,-132 155,-251 258,-370l74 -84 330 -299c107,-81 234,-163 356,-224l105 -53c289,-128 612,-214 963,-224zm-2140 1418c10,-11 17,-32 25,-45 14,1 118,53 139,64 34,17 107,47 135,65 -3,15 -15,36 -21,46l-123 -56c-30,-10 -54,-25 -85,-40l-38 -16c-6,-3 -9,-5 -16,-8l-16 -10zm336 -79c7,6 5,4 13,9 5,4 18,13 23,18l-27 42 -118 -86c-3,-2 -4,-4 -6,-5l-108 -81c-5,-3 -9,-6 -15,-9 5,-10 16,-21 23,-32 5,-9 12,-21 20,-29 9,1 20,6 30,8 5,2 10,3 14,4l181 54c-5,-10 -6,-8 -13,-15 -6,-7 -6,-10 -11,-17 -8,-11 -17,-16 -25,-28l-47 -59c-47,-64 -59,-51 -32,-92l22 -31c42,21 93,55 134,77l132 74 -31 44c-17,-12 -150,-83 -191,-112l-25 -15c2,2 3,3 5,7 22,31 77,89 96,118 6,8 3,6 11,14 4,5 5,6 10,11 8,11 14,16 20,25 23,32 26,22 -4,61 -15,-1 -74,-21 -96,-26l-150 -51c3,8 7,8 16,15l135 97c9,5 8,5 14,10zm36 -475c7,-12 15,-22 25,-32 20,-20 15,-29 52,-54 11,-7 20,-15 32,-20 69,-26 153,44 115,129 -16,37 -35,45 -48,65 5,10 79,75 79,75 0,0 1,1 2,2l-39 42c-8,-10 -17,-18 -27,-28 -10,-10 -19,-14 -29,-25 -37,-36 -18,-21 -55,-49 -21,-16 -34,-37 -54,-52 -13,-9 -46,-40 -53,-53zm3522 -43c18,-13 61,-66 82,-78 14,7 30,22 36,36 -8,14 -62,65 -80,83 -12,12 -18,12 -30,23 -21,21 -85,91 -110,102l-36 -36 138 -130zm-3146 -121c4,7 1,5 8,12 6,8 13,15 20,22 56,64 132,19 113,-45 -6,-21 -35,-60 -46,-71l-25 -31c-7,-8 -5,-8 -12,-16 -4,-6 -9,-9 -14,-15l-35 -47 41 -33 121 150c1,1 1,1 2,2 12,19 26,49 26,71 0,45 -31,75 -65,98 -41,29 -81,24 -121,-2 -24,-16 -44,-42 -61,-65 -6,-9 -11,-12 -18,-21 -6,-10 -12,-14 -19,-23 -15,-24 -40,-43 -51,-68 15,-8 31,-26 45,-32 16,28 80,97 91,114zm2531 -154c8,-8 9,-7 16,-12l61 -51c7,-5 9,-9 15,-14 15,-16 17,-12 31,-25 11,-11 20,-16 30,-26 19,-19 18,-12 31,-25l28 -25c5,4 2,2 8,6l53 35c-13,16 -63,283 -82,304 -10,-15 -23,-11 -45,-32 1,-13 6,-27 10,-42 2,-9 9,-31 9,-42 -10,-9 -7,-8 -20,-15 -77,-42 -46,-49 -114,9l-16 13c-10,-9 -40,-18 -46,-32l31 -26zm-2341 -156c10,-10 13,-9 27,-16 11,-7 14,-10 26,-16 12,9 45,27 57,34l101 58c5,2 7,3 13,7 9,6 19,12 28,18 13,9 13,14 25,16l-112 -193c14,-11 31,-16 45,-24l74 130c3,5 6,12 9,19l18 31c1,1 4,7 5,9 10,16 38,59 40,75 -8,5 -15,7 -24,12 -11,6 -13,8 -23,14 -44,-22 -105,-61 -149,-85l-56 -35c-12,-8 -18,-14 -27,-19 2,14 8,20 14,29 28,45 61,110 86,149 8,13 9,10 13,25 -10,7 -36,17 -43,24 -9,-13 -13,-19 -19,-32l-39 -66c-6,-12 -10,-22 -17,-33l-37 -65c-8,-15 -33,-52 -35,-66zm1828 -301c76,19 72,1 72,55l11 116c0,46 1,26 4,49l2 47c2,10 4,3 4,19l0 43c-13,1 -20,-3 -33,-6 -2,-1 -12,-3 -13,-3 -11,-5 -6,2 -11,-9 0,-31 -5,-46 -5,-77 -2,-8 -7,-7 -22,-11l-74 -17 -35 59c-5,9 -6,12 -10,18 -11,-2 -48,-8 -56,-14l166 -269zm-1136 319c-8,1 -37,18 -60,20 -3,-8 -19,-29 -26,-37l-27 -33 -93 32c-1,22 5,14 5,35l0 42c0,20 -34,27 -52,29 0,-22 -2,-24 -5,-40 -3,-23 3,-94 0,-122 -7,-45 -5,-23 -5,-74l-4 -78c18,-6 54,-19 71,-22 8,12 16,22 24,33l172 215zm1411 -187c3,-6 5,-11 8,-18 7,-13 8,-19 14,-32l54 20c-3,3 -46,95 -45,112l118 48 34 -85c3,-8 9,-23 11,-27 6,3 17,6 27,11l26 14c-9,9 -100,228 -104,240 -5,12 -11,23 -16,32 -15,-6 -47,-11 -47,-24 0,0 -1,-2 0,-2l35 -84c3,-6 10,-25 13,-28 -4,-4 -2,-2 -7,-6 -13,-10 -105,-43 -112,-44 -11,19 -28,65 -39,88 -6,11 -7,20 -11,28 -13,1 -42,-10 -53,-18l94 -225zm-823 -87c1,-9 2,-5 3,-19l12 -89c17,-3 57,-4 72,2 5,4 15,48 17,57 5,18 9,36 15,54 10,32 17,97 27,113l26 -72c69,-168 36,-146 132,-139l0 299 -40 -2c-13,-4 -15,-2 -17,-8 -6,-21 5,-80 5,-88l-3 -139c0,1 -1,2 -1,2l-91 225c-16,-3 -23,-4 -43,-5l-51 -214c-2,-10 -1,-22 -5,-28 -5,8 -7,46 -8,61 0,18 -3,12 -5,28l-16 153c-24,2 -30,-3 -51,-6l22 -185zm-500 253c-1,-1 -1,-2 -2,-2 0,-1 -1,-2 -1,-3 -6,-13 -19,-90 -22,-108l-34 -182c82,-19 60,-12 104,38l67 70c13,13 47,66 60,74 0,-16 -8,-37 -12,-52l-29 -159c4,-11 -3,-2 9,-8 11,-5 24,-1 41,-9 4,32 8,51 13,79 3,23 10,52 14,75 5,23 27,129 25,145 -76,8 -45,15 -79,-19 -8,-8 -15,-14 -22,-23l-129 -152 22 108c8,37 14,80 22,118 -13,2 -37,7 -47,10z"/>
   <path class="fil1" d="M2175 1567c43,-14 79,8 93,40 16,39 -7,86 -40,92 -40,8 -85,4 -97,-40 -13,-45 10,-81 44,-92zm843 -225c41,-12 83,14 89,51 7,45 -20,85 -50,91 -86,18 -142,-111 -39,-142zm-547 -83c57,-23 121,36 90,101 -5,11 -25,32 -36,37 -90,35 -148,-100 -54,-138zm-308 545c6,83 1,185 1,270l0 541c-1,45 24,47 55,80 22,21 43,45 69,64 35,27 71,68 104,100 14,15 27,15 28,40 4,86 0,183 0,271l0 1078c0,82 17,77 -61,71 -80,-6 -161,-19 -239,-33 -62,-12 -257,-67 -308,-96 -28,-16 -63,-28 -94,-42 -118,-56 -230,-126 -333,-205 -127,-99 -239,-211 -336,-338 -71,-93 -161,-227 -203,-339 -4,-10 -7,-10 -12,-22l-98 -275c-10,-34 -16,-74 -26,-106 -9,-26 -25,-150 -25,-181 0,-26 -5,-34 -5,-60 -3,-103 -9,-186 4,-289 4,-28 0,-31 7,-64 6,-29 5,-83 22,-145 23,-88 41,-177 77,-263 19,-48 36,-96 58,-142 43,-90 91,-177 149,-258 22,-30 37,-51 57,-77l61 -76c52,-64 139,-150 203,-201 101,-81 204,-156 318,-219l47 -23c99,-46 237,-110 341,-131 11,-2 17,-3 27,-7l83 -19c39,-7 75,-12 114,-20 131,-28 409,-22 540,5 12,2 22,1 34,3 31,4 75,19 105,26 54,12 107,22 157,43 66,27 129,46 191,79l89 44c9,5 15,7 25,11 49,24 99,62 145,91 210,133 397,347 528,553 36,57 67,114 94,177l61 139c12,34 20,69 35,102l51 220c8,46 20,131 23,177 4,84 9,182 1,265 -1,11 -1,23 -2,34l-31 205c-11,69 -59,241 -93,314l-86 185c-84,139 -168,273 -281,389 -63,65 -141,138 -214,194 -76,58 -157,112 -244,159 -30,17 -63,30 -92,46l-70 31c-35,17 -181,70 -226,78 -9,1 -18,5 -26,8 -27,10 -54,14 -83,19 -24,3 -28,9 -53,12 -19,2 -39,7 -60,9 -83,6 -159,22 -251,17l1 -1593c18,-12 36,-33 52,-49 31,-32 173,-157 177,-178 5,-25 1,-501 1,-555 0,-34 0,-68 0,-102 0,-16 -3,-33 6,-43l218 -232c26,-9 136,59 208,-72 66,-122 -11,-266 -152,-253 -63,6 -109,35 -137,88 -52,97 9,149 5,174 -2,11 -89,101 -102,114l-53 56c-17,21 -32,38 -49,57 -26,31 -38,25 -37,72l0 643c0,23 -4,23 -16,36l-190 182c-36,35 -26,15 -28,78 -20,-3 -35,-26 -48,-38 -15,-16 -26,-24 -42,-39 -12,-13 -28,-27 -41,-39 -20,-19 -29,-17 -29,-54 1,-106 -4,-221 1,-327 22,-12 191,-157 227,-184 26,-19 48,-41 74,-62l1 -523c127,-57 130,-216 38,-286 -64,-49 -169,-41 -225,18 -53,57 -61,165 -4,224 48,49 40,33 94,57l-1 469c-30,20 -71,57 -100,82 -14,11 -88,77 -104,79l1 -333c173,-78 127,-334 -82,-318 -138,10 -189,172 -107,270 12,14 26,27 42,36l44 22c1,0 2,2 3,2 0,-1 1,1 2,2zm212 -1214c-57,9 -144,8 -214,26 -110,27 -191,36 -305,81l-65 26c-57,22 -110,49 -164,75 -103,50 -203,120 -292,186 -215,161 -419,407 -540,654l-75 163 -60 180c-8,27 3,11 -13,45l-31 148c-6,39 -6,74 -12,110 -17,106 -14,236 -11,345l37 261c6,37 15,63 24,95l12 48c14,60 36,120 61,178 24,58 47,109 76,163 81,154 176,294 296,420 37,40 78,84 120,119 48,40 73,66 130,109 22,16 44,34 69,50 7,4 11,6 18,10l54 37c92,58 213,121 319,160 26,10 57,23 85,33 71,27 314,81 391,87 38,2 71,9 109,10 79,1 157,1 235,-2 38,-2 72,-9 109,-11 19,-1 33,-5 50,-9 19,-5 31,-5 51,-8 132,-20 253,-60 374,-106 99,-37 224,-102 315,-162 95,-61 170,-117 253,-193 5,-5 11,-11 16,-15 201,-176 389,-448 487,-708 23,-62 49,-134 66,-202l54 -275 9 -110c2,-103 6,-244 -12,-346 -3,-19 -3,-37 -7,-54 -14,-67 -20,-129 -40,-198l-28 -90c-3,-13 -10,-32 -15,-46 -7,-21 -6,-25 -15,-45 -24,-50 -38,-101 -73,-166 -20,-37 -29,-66 -62,-117 -57,-90 -71,-121 -143,-215 -48,-62 -171,-200 -230,-248l-95 -83c-1,-1 -3,-3 -4,-3 -117,-88 -233,-163 -365,-226l-166 -72c-10,-5 -12,-3 -22,-6 -7,-3 -16,-8 -21,-10 -9,-3 -14,-3 -22,-6l-167 -45c-35,-7 -69,-13 -101,-19 -18,-3 -37,-3 -53,-7 -93,-21 -318,-28 -397,-16z"/>
   <path class="fil3" d="M2 2507c148,12 312,180 477,93 34,-17 32,-20 37,-64 4,-29 6,-76 -5,-96 -21,3 -5,9 -53,30 -57,25 -83,22 -144,12 -33,-6 -35,-12 -62,-21 -38,-12 -79,-35 -119,-50 -58,-23 -68,-27 -127,-41 -2,2 -3,12 -4,25l0 112z"/>
   <path class="fil3" d="M4964 2625c0,-22 4,-35 4,-59l0 -7c0,-21 0,-41 0,-62l0 -1 0 -1 0 -1c-16,-8 -54,-13 -75,-22 -24,-11 -47,-21 -71,-31 -22,-9 -44,-20 -70,-29 -17,-7 -18,-9 -33,-15 -14,-6 -26,-7 -42,-12 -58,-18 -119,-14 -171,11 -26,13 -34,27 -37,64 -3,30 -5,74 3,100 25,-7 52,-41 114,-49 37,-5 75,3 108,12l147 61c28,12 88,39 123,41z"/>
   <path class="fil3" d="M8 2309l5 21c17,7 42,10 58,16l117 49c57,21 110,59 197,53 39,-3 99,-22 118,-47 -2,-25 -37,-89 -51,-103 -20,-1 -38,8 -57,11 -134,18 -266,-95 -375,-111l-2 4c0,1 -1,2 -1,3l-9 104z"/>
   <path class="fil3" d="M4950 2789c1,-19 6,-43 7,-62 2,-24 4,-37 4,-64 -19,-1 -48,-10 -63,-16 -19,-9 -34,-14 -56,-23 -21,-8 -34,-14 -53,-23 -20,-10 -40,-15 -58,-23 -77,-33 -180,-41 -245,16 -6,34 29,87 46,106 19,2 37,-7 54,-10 90,-14 181,35 259,70 23,10 74,31 98,36 3,-3 5,-3 7,-7z"/>
   <path class="fil3" d="M5 2601c1,14 0,28 0,42 1,18 4,21 4,41 25,10 49,0 172,57 12,6 17,11 29,15l68 26c56,22 69,22 124,-28 24,-22 73,-75 77,-110 -29,7 -60,31 -132,21 -67,-9 -152,-56 -219,-81 -33,-13 -86,-33 -124,-34l1 51z"/>
   <path class="fil0" d="M2468 321c21,3 27,8 51,6l16 -153c2,-16 5,-10 5,-28 1,-15 3,-53 8,-61 4,6 3,18 5,28l51 214c20,1 27,2 43,5l91 -225c0,0 1,-1 1,-2l3 139c0,8 -11,67 -5,88 2,6 4,4 17,8l40 2 0 -299c-96,-7 -63,-29 -132,139l-26 72c-10,-16 -17,-81 -27,-113 -6,-18 -10,-36 -15,-54 -2,-9 -12,-53 -17,-57 -15,-6 -55,-5 -72,-2l-12 89c-1,14 -2,10 -3,19l-22 185z"/>
   <path class="fil4" d="M4968 2450c0,-46 -4,-82 -4,-123 -5,-12 1,-6 -9,-13 -9,-6 -36,-9 -52,-17l-69 -26c-44,-20 -86,-38 -135,-55 -54,-19 -59,-24 -127,38 -18,17 -74,84 -76,109 22,-1 26,-30 121,-28 114,3 262,112 351,115z"/>
   <path class="fil0" d="M638 1234l-181 -54c-4,-1 -9,-2 -14,-4 -10,-2 -21,-7 -30,-8 -8,8 -15,20 -20,29 -7,11 -18,22 -23,32 6,3 10,6 15,9l108 81c2,1 3,3 6,5l118 86 27 -42c-5,-5 -18,-14 -23,-18 -8,-5 -6,-3 -13,-9 -6,-5 -5,-5 -14,-10l-135 -97c-9,-7 -13,-7 -16,-15l150 51c22,5 81,25 96,26 30,-39 27,-29 4,-61 -6,-9 -12,-14 -20,-25 -5,-5 -6,-6 -10,-11 -8,-8 -5,-6 -11,-14 -19,-29 -74,-87 -96,-118 -2,-4 -3,-5 -5,-7l25 15c41,29 174,100 191,112l31 -44 -132 -74c-41,-22 -92,-56 -134,-77l-22 31c-27,41 -15,28 32,92l47 59c8,12 17,17 25,28 5,7 5,10 11,17 7,7 8,5 13,15z"/>
   <path class="fil0" d="M4747 1458l-18 -37c0,-1 -3,-8 -3,-8 -4,-5 -1,-2 -5,-6 -8,6 -68,21 -88,27 -9,2 -19,5 -28,7l-60 17c-10,3 -48,15 -55,19 11,-17 30,-23 48,-40 8,-8 132,-113 142,-116 -11,-15 -20,-39 -31,-55 -3,3 -2,2 -7,4l-55 15c-21,5 -174,46 -179,53 2,-12 2,-6 9,-11l157 -129c10,-10 8,-14 25,-16 -5,-10 -10,-16 -16,-26 -7,-12 -9,-20 -20,-27 -14,20 -35,33 -53,51 -9,8 -18,19 -27,26 -31,21 -81,75 -100,90 -8,7 -9,5 -17,11 -9,8 -21,20 -28,29 7,19 19,38 29,52l113 -30c18,-5 104,-31 111,-29 -8,12 -9,9 -20,18 -11,9 -10,10 -23,19l-65 55c-11,7 -12,10 -22,19 -9,9 -14,11 -23,19 -8,7 -15,14 -21,21l28 49 263 -62c8,-2 29,-9 39,-9z"/>
   <path class="fil0" d="M2121 65l29 159c4,15 12,36 12,52 -13,-8 -47,-61 -60,-74l-67 -70c-44,-50 -22,-57 -104,-38l34 182c3,18 16,95 22,108 0,1 1,2 1,3 1,0 1,1 2,2 10,-3 34,-8 47,-10 -8,-38 -14,-81 -22,-118l-22 -108 129 152c7,9 14,15 22,23 34,34 3,27 79,19 2,-16 -20,-122 -25,-145 -4,-23 -11,-52 -14,-75 -5,-28 -9,-47 -13,-79 -17,8 -30,4 -41,9 -12,6 -5,-3 -9,8z"/>
   <path class="fil0" d="M1375 300l112 193c-12,-2 -12,-7 -25,-16 -9,-6 -19,-12 -28,-18 -6,-4 -8,-5 -13,-7l-101 -58c-12,-7 -45,-25 -57,-34 -12,6 -15,9 -26,16 -14,7 -17,6 -27,16 2,14 27,51 35,66l37 65c7,11 11,21 17,33l39 66c6,13 10,19 19,32 7,-7 33,-17 43,-24 -4,-15 -5,-12 -13,-25 -25,-39 -58,-104 -86,-149 -6,-9 -12,-15 -14,-29 9,5 15,11 27,19l56 35c44,24 105,63 149,85 10,-6 12,-8 23,-14 9,-5 16,-7 24,-12 -2,-16 -30,-59 -40,-75 -1,-2 -4,-8 -5,-9l-18 -31c-3,-7 -6,-14 -9,-19l-74 -130c-14,8 -31,13 -45,24z"/>
   <path class="fil0" d="M3997 4455c5,-5 13,-10 21,-16 9,-7 15,-12 23,-19l-117 -144c15,3 10,5 20,12l132 90c9,-5 7,-6 15,-13 7,-5 11,-7 19,-12 -2,-21 -18,-41 -26,-66l-50 -109c28,20 33,35 45,49 17,21 57,52 81,84 8,-8 6,-10 14,-7l28 -28c-48,-38 -101,-104 -147,-151 -8,-8 -13,-16 -25,-20l-51 44c-1,1 -2,2 -2,2 8,10 10,23 16,36l17 39c10,23 26,53 37,75 -16,-1 -108,-76 -140,-87 -40,28 -17,12 -55,45 6,7 13,17 18,23 4,7 2,5 8,13l111 142c8,10 5,0 8,18z"/>
   <path class="fil0" d="M1386 4698c6,3 14,5 22,9 11,6 14,9 27,8 22,-46 66,-128 81,-163 6,8 2,2 -1,16 -7,45 -27,130 -26,172l27 11c22,7 34,-26 60,-52 7,-8 13,-12 19,-21l58 -64c-13,29 -22,53 -36,83l-26 66c-11,30 -11,17 37,41 11,-11 17,-35 25,-54 7,-16 15,-38 21,-56 10,-27 42,-96 41,-116 -6,-2 -9,-2 -15,-5l-47 -21 -84 94c-2,4 -25,32 -28,33 -1,-14 1,-7 2,-17l23 -148 -67 -30 -99 186c-5,10 -9,20 -14,28z"/>
   <path class="fil0" d="M195 1603l55 19c12,4 49,15 57,20 -1,10 -17,49 -20,60 -4,11 -7,20 -11,32 -3,11 -6,18 -15,28 -6,-5 -43,-16 -53,-19 -14,-5 -46,-14 -58,-20l-16 46c-1,10 58,27 68,31l209 69c15,2 15,-8 20,-24 3,-10 4,-13 10,-20 -1,-1 -2,-2 -2,-2 -1,1 -3,-1 -5,-2l-121 -44c0,-12 16,-46 20,-57 6,-17 12,-47 21,-60 12,1 51,16 63,20 12,4 55,20 65,20 5,-16 15,-36 16,-52l-289 -97c-4,18 -15,34 -14,52z"/>
   <path class="fil0" d="M3219 448c11,8 40,19 53,18 4,-8 5,-17 11,-28 11,-23 28,-69 39,-88 7,1 99,34 112,44 5,4 3,2 7,6 -3,3 -10,22 -13,28l-35 84c-1,0 0,2 0,2 0,13 32,18 47,24 5,-9 11,-20 16,-32 4,-12 95,-231 104,-240l-26 -14c-10,-5 -21,-8 -27,-11 -2,4 -8,19 -11,27l-34 85 -118 -48c-1,-17 42,-109 45,-112l-54 -20c-6,13 -7,19 -14,32 -3,7 -5,12 -8,18l-94 225z"/>
   <path class="fil0" d="M1686 225l68 83c7,10 6,5 8,17 -11,5 -57,23 -71,23 -1,-20 1,-47 -1,-65 -2,-22 -7,-29 -4,-58zm-51 -41l4 78c0,51 -2,29 5,74 3,28 -3,99 0,122 3,16 5,18 5,40 18,-2 52,-9 52,-29l0 -42c0,-21 -6,-13 -5,-35l93 -32 27 33c7,8 23,29 26,37 23,-2 52,-19 60,-20l-172 -215c-8,-11 -16,-21 -24,-33 -17,3 -53,16 -71,22z"/>
   <path class="fil0" d="M1029 511l35 47c5,6 10,9 14,15 7,8 5,8 12,16l25 31c11,11 40,50 46,71 19,64 -57,109 -113,45 -7,-7 -14,-14 -20,-22 -7,-7 -4,-5 -8,-12 -11,-17 -75,-86 -91,-114 -14,6 -30,24 -45,32 11,25 36,44 51,68 7,9 13,13 19,23 7,9 12,12 18,21 17,23 37,49 61,65 40,26 80,31 121,2 34,-23 65,-53 65,-98 0,-22 -14,-52 -26,-71 -1,-1 -1,-1 -2,-2l-121 -150 -41 33z"/>
   <path class="fil0" d="M2992 258c16,-28 54,-80 61,-110 21,29 5,57 12,96 1,8 4,18 3,31 -10,0 -67,-13 -76,-17zm-120 102c8,6 45,12 56,14 4,-6 5,-9 10,-18l35 -59 74 17c15,4 20,3 22,11 0,31 5,46 5,77 5,11 0,4 11,9 1,0 11,2 13,3 13,3 20,7 33,6l0 -43c0,-16 -2,-9 -4,-19l-2 -47c-3,-23 -4,-3 -4,-49l-11 -116c0,-54 4,-36 -72,-55l-166 269z"/>
   <path class="fil0" d="M4650 1676c27,-3 75,1 93,-2 19,-2 1,-5 40,-4 -6,10 -16,15 -28,22 -11,7 -17,13 -27,20 -10,7 -42,32 -53,33 -6,-8 -21,-56 -25,-69zm188 19c-1,-15 -17,-61 -25,-72 -13,0 -26,0 -38,0 -22,0 -20,4 -39,5l-162 0c-28,0 -44,5 -75,5l13 43c8,13 16,10 52,9 25,0 22,-5 39,-5 11,13 11,23 19,45l16 48 -71 55c2,10 6,19 9,27 3,8 2,5 5,12l4 13c28,-16 64,-47 93,-68 8,-5 9,-7 16,-12l144 -105z"/>
   <path class="fil0" d="M3727 554c-10,-9 -47,-25 -62,-39 34,-25 96,-85 102,-88l-18 64c-4,18 -10,51 -22,63zm-207 20c6,14 36,23 46,32l16 -13c68,-58 37,-51 114,-9 13,7 10,6 20,15 0,11 -7,33 -9,42 -4,15 -9,29 -10,42 22,21 35,17 45,32 19,-21 69,-288 82,-304l-53 -35c-6,-4 -3,-2 -8,-6l-28 25c-13,13 -12,6 -31,25 -10,10 -19,15 -30,26 -14,13 -16,9 -31,25 -6,5 -8,9 -15,14l-61 51c-7,5 -8,4 -16,12l-31 26z"/>
   <path class="fil0" d="M2535 4959c0,-30 0,-59 0,-89 0,-29 -6,-24 -5,-85 11,12 29,53 49,86l50 84 56 -1c1,-32 4,-121 -3,-152 -3,-17 -1,-68 -2,-89 -57,-13 -60,13 -49,60 3,14 7,100 5,103 -8,-13 -14,-29 -23,-43 -8,-12 -16,-28 -23,-40 -8,-12 -16,-26 -26,-41 -28,-43 -3,-36 -85,-35 -2,18 4,135 4,181 0,54 4,39 5,61l47 0z"/>
   <path class="fil0" d="M785 923c-19,-7 -32,-31 -49,-43 -25,-19 -36,-21 -9,-48 78,-75 140,35 58,91zm-141 -57c7,13 40,44 53,53 20,15 33,36 54,52 37,28 18,13 55,49 10,11 19,15 29,25 10,10 19,18 27,28l39 -42c-1,-1 -2,-2 -2,-2 0,0 -74,-65 -79,-75 13,-20 32,-28 48,-65 38,-85 -46,-155 -115,-129 -12,5 -21,13 -32,20 -37,25 -32,34 -52,54 -10,10 -18,20 -25,32z"/>
   <path class="fil0" d="M3307 4610c27,-11 65,26 77,60 17,45 2,85 -34,96 -64,18 -115,-106 -67,-145 13,-10 10,-5 24,-11zm43 204c9,-3 16,-6 25,-11 5,-8 102,-32 62,-155 -9,-28 -28,-52 -51,-68 -63,-43 -154,4 -171,57 -13,42 -6,85 18,121 27,41 59,56 107,54l10 2z"/>
   <path class="fil0" d="M4483 1009c-9,-12 -17,-23 -27,-35 -8,-11 -19,-27 -29,-36 -24,-10 -59,-46 -113,-9 -16,11 -22,15 -31,47 -8,33 8,63 16,95 15,64 -66,99 -108,-22l-5 -13c0,0 -1,-1 -1,-2 -14,7 -29,14 -42,21 15,33 24,75 68,103 44,28 84,34 123,-6 18,-17 19,-17 21,-49 3,-48 -18,-53 -17,-123 27,-15 51,-34 87,28 4,9 4,10 7,18l9 16c13,-5 25,-10 39,-15 4,-11 -2,1 0,-8l1 -5c0,0 1,-2 1,-2 0,-1 1,-2 1,-3z"/>
   <path class="fil0" d="M3619 4462c21,-15 57,-37 73,-2 12,24 -20,56 -41,58 -9,-18 -25,-38 -32,-56zm55 201c12,-3 18,-6 28,-12 9,-6 19,-10 26,-16 -11,2 -12,-6 -30,-37 -8,-16 -17,-26 -23,-44 41,-28 57,-9 97,33 0,1 5,6 5,6 7,9 2,1 6,10 5,-4 20,-12 27,-17 9,-6 19,-11 27,-17 -19,-3 -11,-10 -35,-29 -26,-20 -32,-29 -53,-38l-17 -8c12,-30 24,-61 -21,-91 -14,-9 -19,-9 -39,-8 -36,1 -91,44 -120,62l122 206z"/>
   <path class="fil0" d="M4115 613c-10,-13 -12,-13 -25,-22 -20,-9 -48,-35 -94,-23 -5,1 -11,4 -15,6 -20,12 -41,32 -42,60 -2,42 11,60 29,90 39,61 -24,106 -78,50 -6,-6 -11,-16 -18,-24 -9,-11 -8,-16 -16,-27 -10,2 -27,16 -35,27 9,46 111,128 173,89 16,-10 35,-32 41,-56 16,-58 -72,-129 -27,-161 26,-18 63,5 77,28l19 28 37 -23c-7,-23 -19,-32 -26,-42z"/>
   <path class="fil5" d="M4255 3929c17,0 23,8 45,15l43 20c-1,2 -22,34 -32,37l-9 -10c-1,-1 -1,-2 -2,-2l-37 -51c-1,0 -7,-9 -8,-9zm86 207c8,-8 11,-15 20,-24 11,-10 12,-14 20,-25 -12,-9 -34,-39 -42,-54l42 -51 65 22c4,-11 9,-14 16,-18 8,-7 15,-17 21,-25l-209 -80c-12,-4 -20,-5 -28,-13 -16,13 -33,37 -47,54 4,16 40,62 52,78 13,17 85,119 90,136z"/>
   <path class="fil0" d="M1080 4509l29 19c12,8 20,12 33,21 17,12 49,35 65,41 14,-12 4,-14 27,-33l-42 -28c-6,-4 -33,-20 -40,-28 2,-11 6,-15 11,-22 24,-29 12,-30 57,-1 13,9 24,21 37,24 8,-12 15,-25 23,-36l-71 -49c6,-15 18,-29 26,-42 18,9 64,47 81,50 8,-8 15,-22 21,-33 -10,-13 -42,-31 -59,-42 -17,-12 -48,-35 -64,-42l-84 123c-8,9 -12,17 -17,25 -12,18 -24,33 -33,53z"/>
   <path class="fil0" d="M275 3396c-18,8 -70,-14 -34,69 7,17 16,36 31,50 4,3 11,9 16,13 10,7 33,12 43,10 53,-8 65,-54 64,-101 0,-32 -3,-27 10,-47 41,0 44,40 48,77 16,0 2,-2 17,-4 9,-1 19,-1 28,-1 4,-91 -90,-167 -143,-97 -26,34 -2,94 -24,113 -21,18 -37,-3 -44,-20 -9,-18 -9,-36 -12,-62z"/>
   <path class="fil0" d="M4610 3771l35 -64c0,-4 17,-73 -35,-96 -57,-25 -93,31 -121,43 -14,7 -17,3 -31,-5 -1,-47 22,-52 39,-75 -19,-27 -34,-41 -53,-12 -4,7 -2,5 -7,11 -62,82 -9,156 59,137 37,-11 68,-66 95,-43 16,14 8,36 -3,51 -24,32 -24,23 -37,38l33 32 19 -17c8,-4 1,-5 7,0z"/>
   <path class="fil0" d="M585 3951c-20,10 -36,13 -44,16 7,11 13,59 61,93 36,26 80,19 104,-10 9,-11 8,-13 11,-29 7,-39 -15,-62 -15,-89 0,-20 27,-43 58,7 12,19 3,45 52,16 5,-28 -39,-76 -61,-87 -19,-9 -35,-15 -58,-7 -92,33 -5,129 -38,159 -36,32 -65,-57 -70,-69z"/>
   <path class="fil0" d="M2865 4688c3,26 0,18 9,57 6,28 34,156 35,179 20,0 36,-7 56,-11l-16 -75c-3,-23 -11,-23 83,-35 -2,-12 -7,-31 -11,-45 -6,1 -29,7 -39,8 -51,11 -43,10 -48,-5l-5 -38c25,-8 80,-16 88,-22 -1,-4 -7,-36 -8,-39 -10,-3 -58,9 -72,12l-72 14z"/>
   <path class="fil4" d="M4898 2829c-2,-4 -1,-6 -13,-12l-95 -42c-69,-29 -103,-46 -177,-46 -66,1 -58,16 14,62 53,33 104,49 169,50 31,1 78,0 102,-12z"/>
   <path class="fil4" d="M88 2172c10,15 136,65 146,68 47,13 113,45 182,23 -6,-16 -7,-17 -27,-32 -12,-9 -20,-16 -32,-24 -42,-27 -116,-51 -172,-52 -22,0 -33,0 -51,5l-34 7c-1,0 -2,1 -3,1l-9 4z"/>
   <path class="fil0" d="M908 4111c18,24 31,28 45,42l-132 148c9,7 12,6 21,14 8,7 9,12 20,18l129 -139c32,12 23,21 51,40 10,-4 27,-21 32,-31 -9,-14 -21,-17 -34,-30l-100 -94c-10,5 -27,22 -32,32z"/>
   <path class="fil6" d="M1246 2432c-47,22 -56,69 -42,98 44,89 170,33 139,-55 -10,-29 -54,-63 -97,-43z"/>
   <path class="fil7" d="M3528 2758c-25,8 -30,8 -43,28 -32,48 0,131 77,116 95,-19 58,-172 -34,-144z"/>
   <path class="fil7" d="M1875 1958c-28,11 -27,-1 -49,26 -38,48 -2,130 76,116 33,-6 66,-40 57,-87 -10,-50 -64,-63 -84,-55z"/>
   <path class="fil7" d="M1605 1636c-26,10 -28,6 -44,27 -37,46 5,135 83,114 57,-15 70,-100 17,-133 -16,-9 -36,-15 -56,-8z"/>
   <path class="fil5" d="M3523 1756c-36,17 -60,39 -48,90 8,35 48,63 89,50 37,-12 62,-41 52,-92 -7,-32 -53,-65 -93,-48z"/>
   <path class="fil7" d="M2471 1259c-94,38 -36,173 54,138 11,-5 31,-26 36,-37 31,-65 -33,-124 -90,-101z"/>
   <path class="fil5" d="M3155 1914c-77,18 -73,155 39,139 79,-10 77,-165 -39,-139z"/>
   <path class="fil5" d="M3018 1342c-103,31 -47,160 39,142 30,-6 57,-46 50,-91 -6,-37 -48,-63 -89,-51z"/>
   <path class="fil0" d="M4028 953l36 36c25,-11 89,-81 110,-102 12,-11 18,-11 30,-23 18,-18 72,-69 80,-83 -6,-14 -22,-29 -36,-36 -21,12 -64,65 -82,78l-138 130z"/>
   <path class="fil0" d="M272 1420l16 10c7,3 10,5 16,8l38 16c31,15 55,30 85,40l123 56c6,-10 18,-31 21,-46 -28,-18 -101,-48 -135,-65 -21,-11 -125,-63 -139,-64 -8,13 -15,34 -25,45z"/>
   <path class="fil5" d="M2175 1567c-34,11 -57,47 -44,92 12,44 57,48 97,40 33,-6 56,-53 40,-92 -14,-32 -50,-54 -93,-40z"/>
   <path class="fil4" d="M15 2741c3,21 2,55 8,63 15,4 39,15 53,19 17,4 46,12 60,14 40,4 101,0 134,-11 -4,-12 5,-4 -26,-17l-90 -40c-34,-16 -86,-38 -134,-40 -4,5 -4,-2 -5,12z"/>
   <path class="fil8" d="M3307 4610c-14,6 -11,1 -24,11 -48,39 3,163 67,145 36,-11 51,-51 34,-96 -12,-34 -50,-71 -77,-60z"/>
   <path class="fil4" d="M4957 2267c0,-20 -1,-62 -7,-75 -32,-14 -67,-26 -109,-30 -35,-3 -104,-1 -128,14 5,11 11,10 25,15l210 78c9,0 4,2 9,-2z"/>
   <path class="fil0" d="M386 3749l21 38c4,6 6,7 9,12 15,-8 33,-22 51,-31l144 -84c7,-4 7,-4 12,-8 -5,-15 -10,-17 -17,-31 -12,-22 -8,-17 -26,-6 -11,7 -20,12 -31,18l-163 92z"/>
   <path class="fil0" d="M2254 4948c3,-16 5,-12 6,-29l13 -124c3,-12 3,-11 3,-27 1,-25 9,-31 4,-62 -22,-1 -32,2 -50,-4 -1,13 -5,17 -6,31 0,13 1,16 -2,29l-8 59c-2,41 -12,79 -10,123 23,1 30,-1 50,4z"/>
   <path class="fil0" d="M4540 3360c12,10 90,37 111,46l117 45c3,-17 13,-36 20,-49l-82 -34c-4,-1 -10,-3 -15,-5 -41,-15 -85,-36 -131,-50l-20 47z"/>
   <path class="fil9" d="M4649 1266c-9,-13 -16,-29 -24,-43 -9,-15 -17,-28 -26,-41 -17,2 -15,6 -25,16l-157 129c-7,5 -7,-1 -9,11 5,-7 158,-48 179,-53l55 -15c5,-2 4,-1 7,-4z"/>
   <path class="fil9" d="M4041 4420c17,-11 125,-104 133,-116 -8,-3 -6,-1 -14,7 -24,-32 -64,-63 -81,-84 -12,-14 -17,-29 -45,-49l50 109c8,25 24,45 26,66 -8,5 -12,7 -19,12 -8,7 -6,8 -15,13l-132 -90c-10,-7 -5,-9 -20,-12l117 144z"/>
   <path class="fil9" d="M4721 1407c-2,-20 -32,-65 -41,-86 -10,3 -134,108 -142,116 -18,17 -37,23 -48,40 7,-4 45,-16 55,-19l60 -17c9,-2 19,-5 28,-7 20,-6 80,-21 88,-27z"/>
   <path class="fil8" d="M785 923c82,-56 20,-166 -58,-91 -27,27 -16,29 9,48 17,12 30,36 49,43z"/>
   <path class="fil9" d="M4381 4087c10,-7 34,-39 42,-50 9,-10 36,-40 39,-51 -7,4 -12,7 -16,18l-65 -22 -42 51c8,15 30,45 42,54z"/>
   <path class="fil8" d="M3728 4635c9,-6 17,-10 27,-16 11,-6 16,-9 28,-16 -4,-9 1,-1 -6,-10 0,0 -5,-5 -5,-6 -40,-42 -56,-61 -97,-33 6,18 15,28 23,44 18,31 19,39 30,37z"/>
   <path class="fil9" d="M4650 1676c4,13 19,61 25,69 11,-1 43,-26 53,-33 10,-7 16,-13 27,-20 12,-7 22,-12 28,-22 -39,-1 -21,2 -40,4 -18,3 -66,-1 -93,2z"/>
   <path class="fil9" d="M3727 554c12,-12 18,-45 22,-63l18 -64c-6,3 -68,63 -102,88 15,14 52,30 62,39z"/>
   <path class="fil9" d="M2992 258c9,4 66,17 76,17 1,-13 -2,-23 -3,-31 -7,-39 9,-67 -12,-96 -7,30 -45,82 -61,110z"/>
   <path class="fil9" d="M1686 225c-3,29 2,36 4,58 2,18 0,45 1,65 14,0 60,-18 71,-23 -2,-12 -1,-7 -8,-17l-68 -83z"/>
   <path class="fil9" d="M3619 4462c7,18 23,38 32,56 21,-2 53,-34 41,-58 -16,-35 -52,-13 -73,2z"/>
   <path class="fil10" d="M4255 3929c1,0 7,9 8,9l37 51c1,0 1,1 2,2l9 10c10,-3 31,-35 32,-37l-43 -20c-22,-7 -28,-15 -45,-15z"/>
  </g>
 </g>
</svg>
