<?xml version="1.0" encoding="UTF-8"?>
<!DOCTYPE svg PUBLIC "-//W3C//DTD SVG 1.1//EN" "http://www.w3.org/Graphics/SVG/1.1/DTD/svg11.dtd">
<!-- Creator: CorelDRAW X7 -->
<svg xmlns="http://www.w3.org/2000/svg" xml:space="preserve" width="283.633mm" height="172.381mm" version="1.1" style="shape-rendering:geometricPrecision; text-rendering:geometricPrecision; image-rendering:optimizeQuality; fill-rule:evenodd; clip-rule:evenodd"
viewBox="0 0 28363 17238"
 xmlns:xlink="http://www.w3.org/1999/xlink">
 <defs>
  <style type="text/css">
   <![CDATA[
    .fil6 {fill:black}
    .fil41 {fill:#0097D4}
    .fil21 {fill:#009899}
    .fil10 {fill:#00AF94}
    .fil32 {fill:#00C5A2}
    .fil31 {fill:#01BED9}
    .fil23 {fill:#01C3A2}
    .fil3 {fill:#020303}
    .fil38 {fill:#020505}
    .fil14 {fill:#02AE95}
    .fil20 {fill:#050505}
    .fil35 {fill:#050A0A}
    .fil24 {fill:#05A998}
    .fil37 {fill:#060606}
    .fil36 {fill:#081010}
    .fil2 {fill:#099A97}
    .fil39 {fill:#0B0C0C}
    .fil25 {fill:#15CFEA}
    .fil28 {fill:#1C5F69}
    .fil17 {fill:#2B846C}
    .fil19 {fill:#338671}
    .fil11 {fill:#38A286}
    .fil1 {fill:#39AE8E}
    .fil9 {fill:#3A024D}
    .fil0 {fill:#3DA58A}
    .fil33 {fill:#50E5FA}
    .fil30 {fill:#52554C}
    .fil12 {fill:#5E057B}
    .fil40 {fill:#670089}
    .fil18 {fill:#757574}
    .fil16 {fill:#810BA9}
    .fil42 {fill:#848483}
    .fil13 {fill:#9C09CE}
    .fil22 {fill:#A71607}
    .fil26 {fill:#BA55DC}
    .fil29 {fill:#D2D2D2}
    .fil15 {fill:lightgrey}
    .fil8 {fill:#D4D5D5}
    .fil7 {fill:#E8E8E8}
    .fil27 {fill:#EEEBEE}
    .fil34 {fill:#F41A03}
    .fil5 {fill:#FCFDFD}
    .fil4 {fill:#FEFEFE}
   ]]>
  </style>
 </defs>
 <g id="Layer_x0020_1">
  <metadata id="CorelCorpID_0Corel-Layer"/>
  <g id="_2872934736032">
   <path class="fil0" d="M3771 9399l-333 -19c28,-50 228,-252 278,-274l-49 -379c68,19 379,152 413,184l-367 176c7,188 -59,140 58,312zm10918 -5213c417,-67 515,568 97,636 -194,31 -344,-108 -368,-267 -30,-198 106,-342 271,-369zm739 -492c0,-164 97,-293 178,-373 169,-168 296,-174 498,-174 265,0 554,276 554,547l0 113c0,439 -653,780 -1069,353 -124,-126 -161,-246 -161,-466zm-12123 6783c32,16 -8,2 44,13l179 -272c14,-23 21,-36 33,-54l218 -332c2,-3 8,-12 10,-15l86 -127c27,-46 24,-4 14,-63 -11,-64 -84,-168 -118,-228l141 -5c246,-4 162,24 248,-104 2,-2 4,-5 6,-7 1,-2 3,-5 5,-7l200 -299c23,-35 47,-67 70,-105 14,-24 18,-37 31,-56l59 -79c9,-12 9,-13 15,-23 114,-183 34,-94 73,-180 -39,-1 -264,-19 -284,-26 16,-27 23,-3 60,-57l136 -206c63,73 109,168 177,232 11,-38 39,-67 66,-109l377 -585c12,-31 7,-38 21,-67 27,-59 57,-30 46,-123 -13,-74 -66,-127 -73,-201 102,3 245,131 349,130l198 -303 10 156 94 32 92 12c-19,-101 -51,-55 12,-147l562 -853 94 2c-17,-39 -27,-41 -40,-80 75,-127 83,-87 182,-166 -32,-21 -30,-9 -50,-34 30,-41 62,-101 96,-147 18,-26 33,-49 49,-75 26,-42 27,-52 65,-67l1 -22c17,-52 123,-201 158,-249 67,-91 129,-109 279,-133 -83,-25 -252,-145 -316,-195 -199,-154 -376,-408 -363,-685 3,-60 50,-263 77,-322 20,-44 33,-49 48,-94 -73,-48 -112,-489 294,-725 2,-2 5,-4 7,-5l16 -9c2,-2 5,-4 8,-5 94,-56 231,-98 340,-135 189,-62 242,-65 420,-190 46,-32 67,-66 107,-93 16,-11 12,-6 24,-14l209 -178c2,-2 5,-4 7,-6l35 -38c18,-21 34,-32 53,-48 3,-3 20,-20 25,-25 2,-1 5,-4 7,-6 2,-1 4,-4 6,-6l292 -245c22,-19 34,-28 57,-43l115 -84c30,-23 27,-18 55,-45 3,-2 20,-18 20,-18 2,-2 5,-4 7,-5l367 -257c3,-2 6,-4 8,-5l463 -324c23,-17 18,-18 25,-25 18,-18 1,-8 23,-17 4,-2 19,-3 30,-7 30,-9 32,-16 66,-32l247 -55c142,-16 236,33 328,73 -20,8 27,11 -39,12 29,25 131,27 301,226 263,308 458,584 584,988 120,-32 144,-48 273,-9 174,51 452,326 544,491 215,385 249,688 149,1110 -83,348 -318,590 -615,759 -144,82 -303,154 -477,210 -96,31 -466,143 -556,130 364,22 1337,4 1767,4l4869 5c85,0 374,-15 427,29l-2013 -4999 -8140 62c-70,141 -953,1582 -1057,1752l-795 1314c-449,734 -900,1458 -1337,2198 -178,300 -355,579 -532,879 -79,134 -508,816 -529,891 69,17 132,48 202,73l163 71c46,14 -6,13 15,1 -73,39 -148,30 -203,62 62,50 297,120 344,162l-103 126c-67,-63 -37,-85 -122,-143 -71,-48 -84,-97 -141,-141 -32,15 -50,41 -73,72 -21,29 -39,50 -58,77l-165 -82 286 -70c-35,-54 -107,-142 -164,-181 -29,31 -354,546 -361,604l228 85c-19,46 -143,121 -178,126 -16,-33 -62,-136 -90,-157 -42,47 -110,174 -148,236 -85,141 -93,99 -28,259 75,184 148,366 223,552 119,292 360,855 451,1113z"/>
   <path class="fil1" d="M5920 14255l194 2 -1 747 -194 -3 1 -746zm7096 -8c91,-22 197,1 248,52 60,60 52,155 51,256 0,201 43,420 -147,459 -258,52 -299,-95 -299,-309 1,-195 -42,-411 147,-458zm-6084 8l284 -1 110 751 -200 0 -13 -135c-97,0 -65,23 -78,134l-203 1 100 -750zm2729 -6c88,-26 195,-4 249,46 62,56 59,148 60,247 1,199 40,414 -140,467 -93,27 -200,5 -255,-43 -63,-56 -59,-147 -59,-249 -1,-208 -45,-413 145,-468zm2738 7c154,-15 398,-36 421,126 8,58 9,215 -14,258 -38,73 -127,58 -206,67l-2 299 -200 -2 1 -748zm-3353 -3c209,0 397,-37 419,139 41,334 -76,295 -223,315l-2 299 -196 0 2 -753zm994 3c106,-8 330,-17 391,42 38,36 49,112 46,183 -3,101 -23,93 -80,139 109,56 86,192 79,385l-182 0c-7,-170 30,-316 -45,-336 -33,49 -12,256 -14,336l-196 -2 1 -747zm-2682 3c95,-18 329,-18 389,39 42,42 51,112 49,183 -4,113 -18,91 -81,137 73,39 80,56 81,161 1,75 1,152 -2,227l-180 -1c-2,-67 -1,-134 -1,-201 0,-139 -3,-126 -48,-134 -26,56 -7,256 -10,336l-198 -6 1 -741zm6027 -2c105,-12 334,-17 392,41 37,36 49,111 46,183 -3,100 -23,93 -79,138 109,56 86,191 79,387l-183 0c-5,-160 28,-316 -45,-336 -32,51 -11,256 -13,336l-198 -3 1 -746zm480 -4l427 4 -1 148 -114 2 -1 597 -198 2 -2 -597 -112 -2 1 -154zm-2630 1l328 -1 -1 154 -126 0 -1 137 120 5 -1 140 -120 2 4 161 138 1 -1 153 -341 -2 1 -750zm-716 0l426 4 -1 146 -113 2 0 598 -199 1 -2 -597 -112 -2 1 -152zm-2682 0l426 3 -1 148 -113 1 -1 599 -196 -2 -3 -596 -113 -1 1 -152zm-1678 1l426 5 0 143 -115 7 -2 594 -194 0 -2 -596 -113 -7 0 -146zm5975 634c79,-132 -62,-186 -133,-238 -190,-138 -153,-459 170,-408 142,23 158,89 153,240l-182 0c-3,-72 17,-103 -46,-113 -70,131 81,166 157,228 74,60 125,188 74,325 -33,88 -192,121 -307,83 -111,-37 -134,-133 -118,-273l177 2c10,82 -23,148 55,154zm-3371 2c31,-15 37,-18 36,-72 -1,-87 -48,-99 -139,-161 -49,-33 -78,-41 -102,-97 -48,-112 -47,-353 243,-319 149,17 173,90 168,241l-182 -2c-2,-61 11,-79 -24,-112 -71,24 -42,108 -2,139 39,31 83,52 127,84 96,71 122,192 88,314 -30,105 -184,138 -303,101 -120,-37 -138,-133 -126,-271l175 -1c12,75 -18,129 41,156zm-3551 -1278c99,-22 488,-6 617,-6l9364 -1 0 263c-1664,0 -3329,0 -4994,0 -86,0 -4889,15 -4987,-8l0 -248zm-789 -370c29,109 639,1593 699,1742l706 1728 8138 -65 1981 -3274c87,-144 585,-993 663,-1088 -82,-16 -117,-85 -138,-170 -27,-106 -18,-158 -3,-263l-12 -33c-38,60 -61,438 -99,605 -25,113 -311,536 -392,643 -43,56 -133,100 -238,111 -133,14 -1157,2 -1384,2 -354,0 -1097,121 -972,-383 44,-177 110,-380 139,-554l-253 0c-53,33 -308,552 -363,650 -67,119 -98,228 -245,266 -146,37 -324,21 -478,21l-1898 2c-18,1 -98,2 -104,-13 -2,-4 -6,-3 -9,-5 -150,14 -278,-138 -271,-292 6,-124 124,-291 181,-381l2920 -4758c23,-38 81,-122 96,-164l-748 1c-173,240 -553,912 -745,1213 -250,393 -492,816 -739,1209l-993 1616c-167,264 -324,538 -492,806 -564,901 -389,876 -1069,876 -350,0 -1775,34 -1918,-38 -149,-76 -206,-281 -103,-444 407,-644 834,-1363 1232,-2015l1972 -3224c-292,-2 -460,4 -757,-16l-2968 4521c-168,254 -331,497 -494,754 -301,474 -273,414 -842,414z"/>
   <path class="fil2" d="M2995 11129l43 77c28,70 82,181 97,246 24,-27 41,-59 61,-94l-80 -27 243 -294 37 35c16,-50 94,-158 127,-208 77,-116 77,-85 171,-166l-41 -20 -292 -63 -56 -138c-91,-258 -332,-821 -451,-1113 -75,-186 -148,-368 -223,-552 -65,-160 -57,-118 28,-259 38,-62 106,-189 148,-236 28,21 74,124 90,157 35,-5 159,-80 178,-126l-228 -85c7,-58 332,-573 361,-604 57,39 129,127 164,181l-286 70 165 82c19,-27 37,-48 58,-77 23,-31 41,-57 73,-72 57,44 70,93 141,141 85,58 55,80 122,143l103 -126c-47,-42 -282,-112 -344,-162 55,-32 130,-23 203,-62 -21,12 31,13 -15,-1l-163 -71c-70,-25 -133,-56 -202,-73 21,-75 450,-757 529,-891 177,-300 354,-579 532,-879 437,-740 888,-1464 1337,-2198l795 -1314c104,-170 987,-1611 1057,-1752l8140 -62 2013 4999c2,47 75,199 94,257 -135,17 -3810,1 -3942,1 -398,0 -3867,-17 -3933,11l7878 2c46,59 254,622 299,736 49,127 98,253 147,375 21,52 133,294 133,349l-77 18 98 8 111 247c3,3 6,8 7,10 34,56 35,88 58,125l30 36c9,86 87,178 105,269 40,46 102,208 133,277 88,192 113,186 60,286 -95,177 -206,347 -307,518 -107,179 -202,337 -308,516 -33,54 -265,478 -314,498 -2,58 -106,206 -137,259l-253 417c-20,51 -117,211 -155,255 -25,66 -580,990 -606,1013 -27,93 -128,187 -141,268 -78,95 -576,944 -663,1088l-1981 3274 -8138 65 -706 -1728c-60,-149 -670,-1633 -699,-1742l-566 0c8,39 28,79 44,119l338 836c31,90 60,151 92,232l743 1841c89,199 191,490 268,656 93,200 304,311 524,313l1337 -1c235,0 437,-12 661,-12 889,0 1760,-16 2660,-13 116,1 189,-13 312,-12l1011 0c228,0 417,-13 649,-13l1162 0c94,1 386,-25 466,-45 267,-70 321,-294 443,-469l539 -884c19,-37 36,-63 58,-104l1709 -2817c18,-53 123,-221 157,-248 16,-60 701,-1190 735,-1220 14,-45 203,-361 234,-387 13,-52 158,-289 190,-316 14,-28 11,-28 31,-51 13,-44 54,-103 77,-142 26,-43 44,-102 92,-121 1,-67 665,-1128 714,-1208 375,-614 349,-571 12,-1388 8,-9 -2,-5 21,-25 -49,3 -23,22 -72,-100l-156 -393c-25,-42 -87,-189 -89,-233 -48,-42 -72,-153 -97,-218 -28,-74 -58,-146 -85,-220l-325 -811 -122 -297 -1167 -2904c-16,-38 -24,-54 -40,-97l-304 -744c-86,-214 -279,-724 -375,-936 -14,-32 -25,-48 -39,-86 -75,-209 -167,-482 -325,-599 -103,-78 -260,-126 -397,-127 -107,-1 -163,13 -263,13 -1383,-8 -2802,25 -4182,25 -360,0 -683,12 -1036,12 -354,0 -708,0 -1061,0 -183,0 -325,13 -512,13 -184,0 -920,-17 -1037,12l-208 54c-110,52 -153,113 -209,190l-153 247c-31,56 -63,109 -99,163 -38,58 -62,105 -100,163 -164,250 -429,706 -592,980l-247 403c-20,31 -30,55 -50,87 -33,54 -72,109 -102,160 -16,28 -24,51 -43,82l-901 1483c-21,36 -26,53 -50,88l-1043 1715c-176,279 -363,623 -545,904 -169,261 -424,703 -591,981l-303 497c-20,30 -28,48 -47,77 -55,85 -51,80 -76,187 -37,155 -43,142 3,328 28,109 440,1130 525,1323l374 943z"/>
   <path class="fil3" d="M14209 7273l4020 11 77 -18c0,-55 -112,-297 -133,-349 -49,-122 -98,-248 -147,-375 -45,-114 -253,-677 -299,-736l-7878 -2c-50,164 -344,569 -456,742 -66,103 -453,670 -469,727l1090 0c-26,65 -72,126 -108,186l-327 534c-426,715 -879,1427 -1313,2145 -290,479 -579,949 -872,1424 -147,238 -291,474 -436,713l-436 715 2146 5c253,-450 599,-963 874,-1431l877 -1433c62,-99 1731,-2848 1765,-2858l2025 0z"/>
   <path class="fil3" d="M13405 11021c35,-150 798,-1407 935,-1626 53,-86 284,-484 329,-521 -15,140 -90,391 -128,536 -44,170 -84,349 -124,525 -79,357 -148,719 -230,1085l-782 1zm-3225 1861l2366 2c65,-14 467,-920 537,-939l802 0 -235 938 2067 1c37,-8 140,-184 166,-223 277,-429 192,-278 274,-887 61,-455 123,-910 184,-1366 60,-455 121,-907 183,-1363 61,-453 136,-919 184,-1373l-3345 3c-7,50 -59,114 -91,166l-1096 1787c-135,216 -270,432 -399,650 -260,438 -534,862 -798,1299l-598 976c-66,106 -138,217 -201,329z"/>
   <path class="fil4" d="M8508 5368c-637,0 -1343,-141 -1555,-612 -251,-556 808,-1084 971,-1108 -155,223 -148,288 -234,510 -52,133 -58,434 -20,556 75,242 379,414 596,526 42,22 82,38 128,59 90,42 88,17 114,69zm2103 -1152l-201 151c-314,175 -909,516 -1155,743l-173 177c-28,34 -41,62 -69,88 -172,-12 -591,-324 -725,-469 -211,-227 -288,-505 -210,-864 60,-242 310,-509 498,-672 100,-87 224,-184 325,-262l333 -238c146,-102 295,-194 448,-292 78,-49 149,-93 216,-146 39,-30 69,-55 103,-85l65 -72c15,-16 4,-7 20,-18 34,-59 82,-112 112,-173 23,-49 52,-166 76,-201 147,26 465,510 533,641 110,211 293,676 233,909 16,104 -90,370 -141,462 -42,77 -72,125 -132,180 -48,45 -91,94 -156,141zm1334 -431c37,202 44,357 -18,551 -45,138 -146,311 -225,387 -190,184 -506,314 -823,413 -25,3 -108,29 -151,37 -272,51 -562,72 -838,122l-289 59c-74,-4 -30,-77 -14,-112 47,-100 19,-106 156,-218 98,-80 172,-143 293,-219l637 -377c66,-56 151,-106 222,-162 265,-208 407,-325 480,-678 -5,-113 53,-321 11,-518 182,4 560,483 559,715zm-5203 367c-15,45 -28,50 -48,94 -27,59 -74,262 -77,322 -13,277 164,531 363,685 64,50 233,170 316,195 -150,24 -212,42 -279,133 -35,48 -141,197 -158,249 27,35 169,193 204,211l195 -294 2299 0c-8,45 -481,745 -570,880 -58,88 -132,221 -197,293 -22,51 -89,142 -120,189 -44,69 -81,121 -124,188 -61,95 -172,285 -246,366 -25,57 -88,141 -126,199 -44,68 -78,123 -123,188 -88,129 -170,249 -247,376 -22,51 -56,91 -87,139 -30,46 -55,83 -85,128l-1700 2582c-55,89 -115,169 -170,254l-594 904c-25,38 -56,98 -93,125 -10,38 -91,157 -120,199 -39,59 -90,129 -122,189l-2319 -5 458 -687c13,-54 105,-176 136,-220l399 -614 -311 -62c-20,35 -37,67 -61,94l-198 297c25,32 25,20 54,45 -138,83 -107,41 -196,176 -49,74 -90,159 -149,214l-75 112c-28,41 -49,78 -77,122 -86,134 -263,351 -281,507 -4,38 19,127 34,157 49,101 129,137 231,156 60,10 128,6 193,6 377,0 825,10 1186,-1l566 0c569,0 541,60 842,-414 163,-257 326,-500 494,-754l2968 -4521c297,20 465,14 757,16l-1972 3224c-398,652 -825,1371 -1232,2015 -103,163 -46,368 103,444 143,72 1568,38 1918,38 680,0 505,25 1069,-876 168,-268 325,-542 492,-806l993 -1616c247,-393 489,-816 739,-1209 192,-301 572,-973 745,-1213l748 -1c-15,42 -73,126 -96,164l-2920 4758c-57,90 -175,257 -181,381 -7,154 121,306 271,292 241,28 604,8 862,8 1125,0 724,85 1036,-266l-1660 0c-52,0 -190,23 -219,-25 63,-112 135,-223 201,-329l598 -976c264,-437 538,-861 798,-1299 129,-218 264,-434 399,-650l1096 -1787c32,-52 84,-116 91,-166 22,-24 -7,-5 32,-19 41,-14 954,-4 989,-4l-175 -379 -2025 0c-34,10 -1703,2759 -1765,2858l-877 1433c-275,468 -621,981 -874,1431l-2146 -5 436 -715c145,-239 289,-475 436,-713 293,-475 582,-945 872,-1424 434,-718 887,-1430 1313,-2145l327 -534c36,-60 82,-121 108,-186l-1090 0c16,-57 403,-624 469,-727 112,-173 406,-578 456,-742 66,-28 3535,-11 3933,-11 132,0 3807,16 3942,-1 -19,-58 -92,-210 -94,-257 -53,-44 -342,-29 -427,-29l-4869 -5c-430,0 -1403,18 -1767,-4 90,13 460,-99 556,-130 174,-56 333,-128 477,-210 297,-169 532,-411 615,-759 100,-422 66,-725 -149,-1110 -92,-165 -370,-440 -544,-491 -129,-39 -153,-23 -273,9 -126,-404 -321,-680 -584,-988 -170,-199 -272,-201 -301,-226 -89,5 -120,-19 -221,24 -54,23 -97,65 -131,119 -46,72 -44,208 -168,343 -173,188 -389,284 -591,421l-305 207c-50,34 -102,67 -146,103l-423 339c-38,32 -226,213 -246,250 -75,-9 -136,-64 -239,-48 -188,28 -430,163 -576,260 -62,41 -110,77 -169,118 -31,21 -48,37 -77,60 -30,25 -42,29 -76,61 -55,52 -95,93 -138,150l-116 153z"/>
   <path class="fil4" d="M19136 7764c-23,20 -13,16 -21,25 337,817 363,774 -12,1388 -49,80 -713,1141 -714,1208 119,47 254,121 374,176 225,105 953,424 1044,566 140,219 -91,677 -193,795 -132,153 -398,212 -614,175 -98,-17 -106,-33 -161,-89l-20 -31c-2,-3 -4,-6 -6,-8 -27,-34 -1026,-564 -1048,-567 -34,30 -719,1160 -735,1220 200,98 339,169 587,234 227,58 475,95 722,114 875,67 2100,-32 2862,-435 379,-200 581,-467 766,-906 170,-401 324,-948 -7,-1269 -449,-438 -1569,-765 -1910,-986 -88,-57 -168,-103 -173,-250 -8,-235 143,-472 267,-566 125,-94 544,-195 626,-10 209,46 1661,634 1932,690 112,-259 364,-874 171,-1151 -352,-504 -1841,-542 -2446,-516 -327,15 -668,52 -986,120 -106,23 -206,56 -305,73z"/>
   <path class="fil5" d="M25353 10699c21,-24 -37,-7 40,-26l1341 7 -1004 -981c7,-77 -3,-5 25,-37l375 -945 1473 0c-24,-33 -1,-14 -47,-33 -15,-6 -42,-12 -58,-17l-2838 -870c-124,-37 -311,-95 -445,-113l-2007 5198 3993 -4 399 -1041 -1686 -3 439 -1135z"/>
   <path class="fil6" d="M20274 9150c-29,-16 -51,-29 -87,-38 0,-60 -1,-73 17,-120 40,-103 93,-219 220,-229 -39,73 -114,313 -150,387zm-1962 -3361l5523 4 -492 1480 -4435 -2 156 393c49,122 23,103 72,100 99,-17 199,-50 305,-73 318,-68 659,-105 986,-120 605,-26 2094,12 2446,516 193,277 -59,892 -171,1151 -35,20 -83,14 -131,14l-2011 0c43,-199 237,-489 210,-704 -82,-185 -501,-84 -626,10 -124,94 -275,331 -267,566 5,147 85,193 173,250 341,221 1461,548 1910,986 331,321 177,868 7,1269 -185,439 -387,706 -766,906 -762,403 -1987,502 -2862,435 -247,-19 -495,-56 -722,-114 -248,-65 -387,-136 -587,-234 -34,27 -139,195 -157,248 78,75 355,186 473,219l411 100c373,80 881,111 1269,106 71,-1 87,-14 162,-14 435,0 1066,-102 1484,-225 81,-24 192,-48 268,-82 298,-132 400,-132 675,-349 463,-364 743,-1001 828,-1581 57,-387 -58,-737 -364,-978 -64,-51 -129,-95 -197,-140l-215 -134c-111,-67 -386,-182 -456,-243l1410 0c299,2 348,-128 445,-416 71,-211 235,-657 162,-940 -52,-200 -102,-313 -267,-444 -29,-22 -58,-39 -88,-62l-177 -110c184,0 546,19 707,-17 70,-16 57,-3 109,-41 75,-56 98,-90 125,-175 26,-79 53,-135 75,-212 25,-85 43,-150 72,-227l150 -450c47,-141 95,-304 146,-441 53,-141 93,-335 -50,-445 -133,-101 -287,-77 -510,-77 -1777,0 -3553,0 -5330,0l122 297z"/>
   <path class="fil6" d="M27603 8717l-1473 0 -375 945c-9,59 -14,41 150,40l1270 0c-6,60 -329,880 -377,991l-1445 6 -439 1135 1686 3 -399 1041 -3993 4 2007 -5198c3,-2 7,-3 10,-3 2,-1 7,-3 10,-3 3,-1 7,-2 11,-3l86 -1c899,12 1866,0 2771,0 310,0 655,-14 964,3l-399 1040 -65 0zm-5693 4153c0,188 129,312 324,312l3933 0c144,0 262,-68 314,-198 49,-122 98,-251 148,-377 47,-117 275,-673 275,-761 0,-39 -8,-57 -17,-95 -66,-260 -382,-217 -595,-217 -312,0 -624,0 -937,0l200 -537c134,0 1196,14 1288,-10 18,-5 61,-15 79,-21 135,-52 186,-236 239,-373 20,-55 34,-100 53,-147 21,-51 35,-89 57,-142 52,-130 207,-506 207,-605 0,-83 -55,-194 -139,-248 -85,-55 -209,-52 -348,-52 -266,0 -533,0 -799,0 5,-56 109,-316 137,-374l1262 0c352,1 354,-222 493,-567 57,-140 280,-689 280,-781 0,-24 -17,-86 -22,-103 -17,-60 -57,-109 -107,-143 -133,-91 -433,-54 -607,-54 -187,0 -328,-12 -512,-12l-2822 0c-82,0 -207,28 -273,88 -103,91 -277,635 -338,773 -84,189 -219,590 -309,802l-105 270c-22,55 -42,107 -66,171l-139 360c-27,67 -45,114 -70,180 -143,386 -350,866 -480,1243l-412 1061c-51,141 -192,450 -192,557z"/>
   <path class="fil7" d="M13363 7675l3345 -3c-48,454 -123,920 -184,1373 -62,456 -123,908 -183,1363 -61,456 -123,911 -184,1366 -82,609 3,458 -274,887 -26,39 -129,215 -166,223l-2067 -1 235 -938 -802 0c-70,19 -472,925 -537,939l-2366 -2c29,48 167,25 219,25l1660 0c-312,351 89,266 -1036,266 -258,0 -621,20 -862,-8 3,2 7,1 9,5 6,15 86,14 104,13l1898 -2c154,0 332,16 478,-21 147,-38 178,-147 245,-266 55,-98 310,-617 363,-650l253 0c-29,174 -95,377 -139,554 -125,504 618,383 972,383 227,0 1251,12 1384,-2 105,-11 195,-55 238,-111 81,-107 367,-530 392,-643 38,-167 61,-545 99,-605 -15,-85 114,-915 135,-1072 47,-352 94,-702 142,-1056l213 -1584c28,-211 64,-345 38,-534 247,0 495,1 742,2l562 2c163,1 160,22 149,-39l-111 -247 -98 -8 -4020 -11 175 379c-35,0 -948,-10 -989,4 -39,14 -10,-5 -32,19z"/>
   <path class="fil8" d="M18637 6600c27,74 57,146 85,220 25,65 49,176 97,218 -2,-38 -10,-6 7,-28l4350 1 476 -1201 -5015 790z"/>
   <path class="fil4" d="M18637 6600l5015 -790 -476 1201 -4350 -1c-17,22 -9,-10 -7,28 2,44 64,191 89,233l4435 2 492 -1480 -5523 -4 325 811z"/>
   <path class="fil9" d="M2972 12254l-458 687 2319 5c32,-60 83,-130 122,-189 29,-42 110,-161 120,-199l21 -810c-1,-6 -54,-76 -70,-97 -52,-65 -87,-118 -145,-186 -47,16 -350,221 -415,236l-47 -296 686 51c14,-69 -2,-64 -24,-86 -30,-31 -129,-80 -135,-143 54,-5 125,-29 169,-46l20 -560c0,-66 11,-46 -24,-53 -56,20 -386,298 -479,368 -83,62 -152,127 -235,189 -81,61 -155,128 -235,190l-829 657c-23,18 -37,24 -59,41 -6,4 -22,18 -26,23 -16,21 -11,8 -20,38 67,-9 423,-75 445,-66l-353 316c-47,-78 -74,-186 -106,-223 -23,-27 9,1 -25,-22 -41,40 -159,139 -217,175z"/>
   <path class="fil10" d="M8078 4042c-78,359 -1,637 210,864 134,145 553,457 725,469 28,-26 41,-54 69,-88l173 -177c246,-227 841,-568 1155,-743l201 -151 -255 -1000 -8 1 -51 -8c-67,48 -453,175 -556,212l-1117 409c-96,34 -507,172 -546,212z"/>
   <path class="fil11" d="M16457 11820l12 33c35,-285 165,-601 259,-844 62,-161 97,-249 274,-287 103,-23 432,-29 510,28l253 -417c-99,-40 -203,-185 -262,-273 -249,-373 -146,-875 17,-1255 128,-297 215,-412 395,-654 67,-89 457,-422 618,-441l-30 -36c-23,-37 -24,-69 -58,-125 -1,-2 -4,-7 -7,-10 11,61 14,40 -149,39l-562 -2c-247,-1 -495,-2 -742,-2 26,189 -10,323 -38,534l-213 1584c-48,354 -95,704 -142,1056 -21,157 -150,987 -135,1072z"/>
   <path class="fil12" d="M6954 9084c-11,61 -59,77 -103,113l-1690 1337 -50 34c35,7 24,-13 24,53l-20 560c-44,17 -115,41 -169,46 6,63 105,112 135,143 22,22 38,17 24,86l-686 -51 47 296c65,-15 368,-220 415,-236 58,68 93,121 145,186 16,21 69,91 70,97l-21 810c37,-27 68,-87 93,-125l594 -904c55,-85 115,-165 170,-254l1700 -2582c30,-45 55,-82 85,-128 31,-48 65,-88 87,-139 -75,20 -729,591 -850,658z"/>
   <path class="fil6" d="M5212 13861c98,23 4901,8 4987,8 1665,0 3330,0 4994,0l0 -263 -9364 1c-129,0 -518,-16 -617,6l0 248z"/>
   <path class="fil13" d="M5173 9100l-41 1398c5,73 -7,27 29,36l1690 -1337c44,-36 92,-52 103,-113l39 -1394c-7,-31 0,-13 -14,-32 -26,51 -167,146 -219,188l-672 538c-195,171 -604,465 -785,628 -33,30 -74,69 -130,88z"/>
   <path class="fil14" d="M6859 5830l-1 22c2,68 74,245 99,324 29,65 8,60 59,152 33,59 17,104 1,126 51,37 180,79 244,114l-364 186c-1,23 2,59 0,87 -3,56 -14,47 -15,76 -1,35 46,93 62,142l-118 -3c53,12 100,-1 138,22 14,-10 -2,-6 28,-12l136 2c60,2 120,4 180,6 22,62 -59,300 -73,383 30,-18 5,-2 27,-19l757 -606c142,-108 703,-578 788,-620 1,119 -16,237 -15,354 0,83 -16,275 -2,354 65,-72 139,-205 197,-293 89,-135 562,-835 570,-880l-2299 0 -195 294c-35,-18 -177,-176 -204,-211z"/>
   <path class="fil15" d="M27603 8717l65 0 399 -1040c-309,-17 -654,-3 -964,-3 -905,0 -1872,12 -2771,0l-86 1c-4,1 -8,2 -11,3 -3,0 -8,2 -10,3 -3,0 -7,1 -10,3 134,18 321,76 445,113l2838 870c16,5 43,11 58,17 46,19 23,0 47,33z"/>
   <path class="fil16" d="M4212 10356c-2,96 19,119 -23,187l-55 -67c-81,148 -350,519 -456,692 -24,39 -40,72 -71,105 -48,-22 -183,-169 -211,-201l-37 -35 -243 294 80 27 311 62 -399 614c-31,44 -123,166 -136,220 58,-36 176,-135 217,-175 34,23 2,-5 25,22 32,37 59,145 106,223l353 -316c-22,-9 -378,57 -445,66 9,-30 4,-17 20,-38 4,-5 20,-19 26,-23 22,-17 36,-23 59,-41l829 -657c80,-62 154,-129 235,-190 83,-62 152,-127 235,-189 93,-70 423,-348 479,-368l50 -34c-36,-9 -24,37 -29,-36l41 -1398c-14,-42 -2,-153 3,-200l-361 546c-37,62 -80,124 -119,181l-484 729z"/>
   <path class="fil17" d="M6742 4152l116 -153c43,-57 83,-98 138,-150 34,-32 46,-36 76,-61 29,-23 46,-39 77,-60 59,-41 107,-77 169,-118 146,-97 388,-232 576,-260 103,-16 164,39 239,48 20,-37 208,-218 246,-250l423 -339c44,-36 96,-69 146,-103l305 -207c202,-137 418,-233 591,-421 124,-135 122,-271 168,-343 34,-54 77,-96 131,-119 101,-43 132,-19 221,-24 66,-1 19,-4 39,-12 -92,-40 -186,-89 -328,-73l-247 55c-34,16 -36,23 -66,32 -11,4 -26,5 -30,7 -22,9 -5,-1 -23,17 -7,7 -2,8 -25,25l-463 324c-2,1 -5,3 -8,5l-367 257c-2,1 -5,3 -7,5 0,0 -17,16 -20,18 -28,27 -25,22 -55,45l-115 84c-23,15 -35,24 -57,43l-292 245c-2,2 -4,5 -6,6 -2,2 -5,5 -7,6 -5,5 -22,22 -25,25 -19,16 -35,27 -53,48l-35 38c-2,2 -5,4 -7,6l-209 178c-12,8 -8,3 -24,14 -40,27 -61,61 -107,93 -178,125 -231,128 -420,190 -109,37 -246,79 -340,135 -3,1 -6,3 -8,5l-16 9c-2,1 -5,3 -7,5 -406,236 -367,677 -294,725z"/>
   <path class="fil18" d="M20062 3682c176,0 228,12 391,-71 405,-206 477,-717 155,-1099 -142,-169 -284,-241 -534,-241 -179,0 -361,103 -442,207 -33,43 -41,43 -70,92 -24,38 -34,59 -53,109 -47,120 -51,318 -27,434 46,218 140,366 328,484 45,29 185,85 252,85z"/>
   <path class="fil19" d="M5494 7522c35,40 49,19 80,55 -41,52 -205,195 -256,210l-100 -194c11,93 -19,64 -46,123 -14,29 -9,36 -21,67l-377 585c-27,42 -55,71 -66,109 -68,-64 -114,-159 -177,-232l-136 206c-37,54 -44,30 -60,57 20,7 245,25 284,26 -39,86 41,-3 -73,180 -6,10 -6,11 -15,23l-59 79c-13,19 -17,32 -31,56 -23,38 -47,70 -70,105l-200 299c-2,2 -4,5 -5,7 -2,2 -4,5 -6,7 -86,128 -2,100 -248,104 45,28 162,14 225,16l-99 440c-65,-57 -81,-169 -149,-223 10,59 13,17 -14,63l-86 127c-2,3 -8,12 -10,15l-218 332c-12,18 -19,31 -33,54l-179 272c-52,-11 -12,3 -44,-13l56 138 292 63c22,-57 113,-179 150,-234 53,-80 102,-162 151,-233 41,28 63,77 93,122 29,43 65,92 87,143l55 67c42,-68 21,-91 23,-187l-11 -214c-68,0 -139,38 -199,25 -11,-53 540,-843 565,-882 157,-246 456,-674 580,-886l0 -66 53 -5c53,-116 588,-873 596,-921l-94 -32 -10 -156 -198 303z"/>
   <path class="fil6" d="M19176 11796l224 -587c45,12 104,64 150,88 -15,66 -17,109 -39,173 -62,181 -117,326 -335,326zm-956 -1148c50,9 94,28 119,62 -25,0 -51,1 -76,1l-65 -8c-2,-1 -6,-2 -9,-4 -32,27 -177,264 -190,316l1147 0c-15,91 -133,362 -175,465 -56,139 -155,353 -132,528 55,56 63,72 161,89 216,37 482,-22 614,-175 102,-118 333,-576 193,-795 -91,-142 -819,-461 -1044,-566 -120,-55 -255,-129 -374,-176 -48,19 -66,78 -92,121 -23,39 -64,98 -77,142z"/>
   <path class="fil20" d="M17902 10074c49,-20 281,-444 314,-498 106,-179 201,-337 308,-516 101,-171 212,-341 307,-518 53,-100 28,-94 -60,-286 -31,-69 -93,-231 -133,-277 -67,21 -202,112 -257,151 -250,176 -414,424 -552,710 -222,460 -293,913 73,1234z"/>
   <path class="fil21" d="M10673 4428c33,171 102,362 136,516 13,57 0,50 6,99 7,51 20,29 21,99l43 -6c317,-99 633,-229 823,-413 79,-76 180,-249 225,-387 62,-194 55,-349 18,-551 -40,-43 -211,-84 -280,-108 -57,-19 -242,-88 -290,-89 -73,353 -215,470 -480,678 -71,56 -156,106 -222,162z"/>
   <path class="fil22" d="M15428 3694c0,220 37,340 161,466 416,427 1069,86 1069,-353l0 -113c0,-271 -289,-547 -554,-547 -202,0 -329,6 -498,174 -81,80 -178,209 -178,373z"/>
   <path class="fil23" d="M7235 7457l-20 55c-38,-35 -170,-288 -206,-351l-17 486c3,1 8,0 10,3 14,34 9,4 19,6 16,3 15,3 33,4 288,20 903,-20 1246,3 74,-81 185,-271 246,-366 43,-67 80,-119 124,-188 31,-47 98,-138 120,-189 -14,-79 2,-271 2,-354 -1,-117 16,-235 15,-354 -85,42 -646,512 -788,620l-757 606c-22,17 3,1 -27,19z"/>
   <path class="fil21" d="M6954 9084c121,-67 775,-638 850,-658 77,-127 159,-247 247,-376 45,-65 79,-120 123,-188 38,-58 101,-142 126,-199 -343,-23 -958,17 -1246,-3 -18,-1 -17,-1 -33,-4 -10,-2 -5,28 -19,-6 -2,-3 -7,-2 -10,-3l-10 8 -3 3c14,19 7,1 14,32l-39 1394z"/>
   <path class="fil24" d="M8508 5368c-26,-52 -24,-27 -114,-69 -46,-21 -86,-37 -128,-59 -217,-112 -521,-284 -596,-526 -38,-122 -32,-423 20,-556 86,-222 79,-287 234,-510 -163,24 -1222,552 -971,1108 212,471 918,612 1555,612z"/>
   <path class="fil25" d="M8078 4042c39,-40 450,-178 546,-212l1117 -409c103,-37 489,-164 556,-212 -147,-33 -366,-118 -528,-172 -86,-28 -171,-59 -262,-87 -77,-24 -190,-74 -273,-80l-333 238c-101,78 -225,175 -325,262 -188,163 -438,430 -498,672z"/>
   <path class="fil26" d="M5200 8328l-53 5 0 66c26,20 -11,-22 16,19l110 225c46,86 -23,139 -97,257 -5,47 -17,158 -3,200 56,-19 97,-58 130,-88 181,-163 590,-457 785,-628l672 -538c52,-42 193,-137 219,-188l3 -3 -867 -5 88 -136c-27,-23 -53,-22 -82,-35l-213 -47c17,86 106,194 59,268 -82,129 -410,603 -452,691l-315 -63z"/>
   <path class="fil27" d="M13405 11021l782 -1c82,-366 151,-728 230,-1085 40,-176 80,-355 124,-525 38,-145 113,-396 128,-536 -45,37 -276,435 -329,521 -137,219 -900,1476 -935,1626z"/>
   <path class="fil7" d="M17765 10333c31,-53 135,-201 137,-259 -366,-321 -295,-774 -73,-1234 138,-286 302,-534 552,-710 55,-39 190,-130 257,-151 -18,-91 -96,-183 -105,-269 -161,19 -551,352 -618,441 -180,242 -267,357 -395,654 -163,380 -266,882 -17,1255 59,88 163,233 262,273z"/>
   <path class="fil28" d="M10086 2257l262 960 8 -1c86,9 257,78 340,105 104,35 235,89 344,112 60,-233 -123,-698 -233,-909 -68,-131 -386,-615 -533,-641 -24,35 -53,152 -76,201 -30,61 -78,114 -112,173z"/>
   <path class="fil29" d="M17765 11402c22,3 1021,533 1048,567 2,2 4,5 6,8l20 31c-23,-175 76,-389 132,-528 42,-103 160,-374 175,-465l-1147 0c-31,26 -220,342 -234,387z"/>
   <path class="fil30" d="M18714 3878c265,-97 407,304 151,405 -266,105 -436,-299 -151,-405zm-625 191c0,260 51,460 250,586 427,269 1008,-155 764,-663l-118 -182c-254,-301 -698,-214 -842,75 -24,48 -54,118 -54,184z"/>
   <path class="fil4" d="M5796 7407c-8,48 -543,805 -596,921l315 63c42,-88 370,-562 452,-691 47,-74 -42,-182 -59,-268l213 47 342 -530c328,-503 223,-257 110,-524 74,4 171,0 221,34 32,-88 149,-199 163,-283 -25,-79 -97,-256 -99,-324 -38,15 -39,25 -65,67 -16,26 -31,49 -49,75 -34,46 -66,106 -96,147 20,25 18,13 50,34 -99,79 -107,39 -182,166 13,39 23,41 40,80l-94 -2 -562 853c-63,92 -31,46 -12,147l-92 -12z"/>
   <path class="fil29" d="M25353 10699l1445 -6c48,-111 371,-931 377,-991l-1270 0c-164,1 -159,19 -150,-40 -28,32 -18,-40 -25,37l1004 981 -1341 -7c-77,19 -19,2 -40,26z"/>
   <path class="fil15" d="M22702 9238c-271,-56 -1723,-644 -1932,-690 27,215 -167,505 -210,704l2011 0c48,0 96,6 131,-14z"/>
   <path class="fil31" d="M6121 7479c29,13 55,12 82,35l-88 136 867 5 10 -8 17 -486 -45 -83c-38,-23 -85,-10 -138,-22l-210 -7c21,-40 242,-257 283,-280l-49 -382 167 67c16,-22 32,-67 -1,-126 -51,-92 -30,-87 -59,-152 -14,84 -131,195 -163,283 -50,-34 -147,-30 -221,-34 113,267 218,21 -110,524l-342 530z"/>
   <path class="fil32" d="M10879 5136l-43 6c-1,-70 -14,-48 -21,-99 -6,-49 7,-42 -6,-99 -34,-154 -103,-345 -136,-516l-637 377c-121,76 -195,139 -293,219 -137,112 -109,118 -156,218 -16,35 -60,108 14,112l289 -59c276,-50 566,-71 838,-122 43,-8 126,-34 151,-37z"/>
   <path class="fil4" d="M4212 10356l484 -729c39,-57 82,-119 119,-181l361 -546c74,-118 143,-171 97,-257l-110 -225c-27,-41 10,1 -16,-19 -124,212 -423,640 -580,886 -25,39 -576,829 -565,882 60,13 131,-25 199,-25l11 214z"/>
   <path class="fil7" d="M16469 11853c-15,105 -24,157 3,263 21,85 56,154 138,170 13,-81 114,-175 141,-268 0,-301 193,-755 296,-1011l310 -2c38,-44 135,-204 155,-255 -78,-57 -407,-51 -510,-28 -177,38 -212,126 -274,287 -94,243 -224,559 -259,844z"/>
   <path class="fil33" d="M9234 2870c83,6 196,56 273,80 91,28 176,59 262,87 162,54 381,139 528,172l51 8 -262 -960c-16,11 -5,2 -20,18l-65 72c-34,30 -64,55 -103,85 -67,53 -138,97 -216,146 -153,98 -302,190 -448,292z"/>
   <path class="fil31" d="M10611 4216c65,-47 108,-96 156,-141 60,-55 90,-103 132,-180 51,-92 157,-358 141,-462 -109,-23 -240,-77 -344,-112 -83,-27 -254,-96 -340,-105l255 1000z"/>
   <path class="fil34" d="M14689 4186c-165,27 -301,171 -271,369 24,159 174,298 368,267 418,-68 320,-703 -97,-636z"/>
   <path class="fil35" d="M9661 14249c-190,55 -146,260 -145,468 0,102 -4,193 59,249 55,48 162,70 255,43 180,-53 141,-268 140,-467 -1,-99 2,-191 -60,-247 -54,-50 -161,-72 -249,-46z"/>
   <path class="fil36" d="M13016 14247c-189,47 -146,263 -147,458 0,214 41,361 299,309 190,-39 147,-258 147,-459 1,-101 9,-196 -51,-256 -51,-51 -157,-74 -248,-52z"/>
   <path class="fil37" d="M13384 15003l198 3c2,-80 -19,-285 13,-336 73,20 40,176 45,336l183 0c7,-196 30,-331 -79,-387 56,-45 76,-38 79,-138 3,-72 -9,-147 -46,-183 -58,-58 -287,-53 -392,-41l-1 746z"/>
   <path class="fil3" d="M7357 15000l198 6c3,-80 -16,-280 10,-336 45,8 48,-5 48,134 0,67 -1,134 1,201l180 1c3,-75 3,-152 2,-227 -1,-105 -8,-122 -81,-161 63,-46 77,-24 81,-137 2,-71 -7,-141 -49,-183 -60,-57 -294,-57 -389,-39l-1 741z"/>
   <path class="fil3" d="M10039 15003l196 2c2,-80 -19,-287 14,-336 75,20 38,166 45,336l182 0c7,-193 30,-329 -79,-385 57,-46 77,-38 80,-139 3,-71 -8,-147 -46,-183 -61,-59 -285,-50 -391,-42l-1 747z"/>
   <path class="fil4" d="M3653 10678l41 20c-94,81 -94,50 -171,166 -33,50 -111,158 -127,208 28,32 163,179 211,201 31,-33 47,-66 71,-105 106,-173 375,-544 456,-692 -22,-51 -58,-100 -87,-143 -30,-45 -52,-94 -93,-122 -49,71 -98,153 -151,233 -37,55 -128,177 -150,234z"/>
   <path class="fil3" d="M6832 15005l203 -1c13,-111 -19,-134 78,-134l13 135 200 0 -110 -751 -284 1 -100 750z"/>
   <path class="fil20" d="M12134 14889c-78,-6 -45,-72 -55,-154l-177 -2c-16,140 7,236 118,273 115,38 274,5 307,-83 51,-137 0,-265 -74,-325 -76,-62 -227,-97 -157,-228 63,10 43,41 46,113l182 0c5,-151 -11,-217 -153,-240 -323,-51 -360,270 -170,408 71,52 212,106 133,238z"/>
   <path class="fil6" d="M8763 14891c-59,-27 -29,-81 -41,-156l-175 1c-12,138 6,234 126,271 119,37 273,4 303,-101 34,-122 8,-243 -88,-314 -44,-32 -88,-53 -127,-84 -40,-31 -69,-115 2,-139 35,33 22,51 24,112l182 2c5,-151 -19,-224 -168,-241 -290,-34 -291,207 -243,319 24,56 53,64 102,97 91,62 138,74 139,161 1,54 -5,57 -36,72z"/>
   <path class="fil35" d="M12398 15004l200 2 2 -299c79,-9 168,6 206,-67 23,-43 22,-200 14,-258 -23,-162 -267,-141 -421,-126l-1 748z"/>
   <path class="fil38" d="M9044 15006l196 0 2 -299c147,-20 264,19 223,-315 -22,-176 -210,-139 -419,-139l-2 753z"/>
   <path class="fil39" d="M2646 12184c59,-55 100,-140 149,-214 89,-135 58,-93 196,-176 -29,-25 -29,-13 -54,-45l198 -297c-15,-65 -69,-176 -97,-246l-43 -77c-3,45 -75,153 -107,198 -1,2 -3,5 -5,7l-55 82c-2,2 -4,5 -6,8l-23 38c-2,2 -4,6 -5,8 -2,2 -4,5 -5,7 -105,147 -44,153 -131,94 0,223 1,136 -34,316 -18,91 -22,202 22,297z"/>
   <path class="fil40" d="M1123 12408c6,79 279,460 299,537l38 0c11,-41 336,-514 387,-589 39,-58 47,-70 -103,-39l-524 89c-46,11 -58,21 -97,2z"/>
   <polygon class="fil20" points="11234,15004 11575,15006 11576,14853 11438,14852 11434,14691 11554,14689 11555,14549 11435,14544 11436,14407 11562,14407 11563,14253 11235,14254 "/>
   <path class="fil33" d="M11375 3588c48,1 233,70 290,89 69,24 240,65 280,108 1,-232 -377,-711 -559,-715 42,197 -16,405 -11,518z"/>
   <path class="fil20" d="M16751 12018c26,-23 581,-947 606,-1013l-310 2c-103,256 -296,710 -296,1011z"/>
   <polygon class="fil20" points="13864,14407 13976,14409 13978,15006 14176,15004 14177,14407 14291,14405 14292,14257 13865,14253 "/>
   <polygon class="fil6" points="10518,14406 10630,14408 10632,15005 10831,15004 10831,14406 10944,14404 10945,14258 10519,14254 "/>
   <polygon class="fil6" points="7836,14406 7949,14407 7952,15003 8148,15005 8149,14406 8262,14405 8263,14257 7837,14254 "/>
   <polygon class="fil6" points="6159,14401 6272,14408 6274,15004 6468,15004 6470,14410 6585,14403 6585,14260 6159,14255 "/>
   <path class="fil9" d="M436 11571l-162 -299c-12,52 -43,105 -63,150l-212 462c59,-5 86,-39 133,-67 45,-27 85,-46 127,-73l184 -116c32,-29 14,-29 55,-57 66,45 189,162 238,175l-38 -549c-73,54 -162,348 -262,374z"/>
   <path class="fil41" d="M2321 10261l4 3c0,0 -5,-2 -4,-3zm-337 -300c27,37 204,142 260,177 56,34 48,14 65,85 -64,15 -221,25 -300,25 4,48 77,202 100,250 86,-58 151,-150 225,-200 14,29 99,371 100,412l25 0c28,-122 96,-239 124,-362l-274 -187c-25,-42 -61,-319 -88,-375 -47,32 -211,139 -237,175z"/>
   <path class="fil42" d="M18714 3878c-285,106 -115,510 151,405 256,-101 114,-502 -151,-405z"/>
   <polygon class="fil6" points="5919,15001 6113,15004 6114,14257 5920,14255 "/>
   <path class="fil40" d="M3771 9399c-117,-172 -51,-124 -58,-312l367 -176c-34,-32 -345,-165 -413,-184l49 379c-50,22 -250,224 -278,274l333 19z"/>
   <path class="fil40" d="M6826 7056l118 3c-16,-49 -63,-107 -62,-142 1,-29 12,-20 15,-76 2,-28 -1,-64 0,-87l364 -186c-64,-35 -193,-77 -244,-114l-167 -67 49 382c-41,23 -262,240 -283,280l210 7z"/>
   <path class="fil40" d="M1422 11459c45,66 189,134 210,190l52 359c42,-27 123,-172 150,-224 -17,-24 -144,-117 -174,-138l299 -362c-61,5 -200,61 -267,83l-270 92z"/>
   <path class="fil41" d="M1722 10797c12,46 6,30 49,52l342 157c51,25 100,42 146,66 -28,-121 -183,-376 -200,-449 -55,29 -104,58 -162,87 -56,28 -114,73 -175,87z"/>
   <path class="fil40" d="M7009 7161c36,63 168,316 206,351l20 -55c14,-83 95,-321 73,-383 -60,-2 -120,-4 -180,-6l-136 -2c-30,6 -14,2 -28,12l45 83z"/>
   <path class="fil40" d="M3889 9627c68,54 84,166 149,223l99 -440c-63,-2 -180,12 -225,-16l-141 5c34,60 107,164 118,228z"/>
   <path class="fil13" d="M5218 7593l100 194c51,-15 215,-158 256,-210 -31,-36 -45,-15 -80,-55 -104,1 -247,-127 -349,-130 7,74 60,127 73,201z"/>
  </g>
 </g>
</svg>
