<?xml version="1.0" encoding="UTF-8"?>
<!DOCTYPE svg PUBLIC "-//W3C//DTD SVG 1.1//EN" "http://www.w3.org/Graphics/SVG/1.1/DTD/svg11.dtd">
<!-- Creator: CorelDRAW X7 -->
<svg xmlns="http://www.w3.org/2000/svg" xml:space="preserve" width="52.4932mm" height="15.0706mm" version="1.1" style="shape-rendering:geometricPrecision; text-rendering:geometricPrecision; image-rendering:optimizeQuality; fill-rule:evenodd; clip-rule:evenodd"
viewBox="0 0 5249 1507"
 xmlns:xlink="http://www.w3.org/1999/xlink">
 <defs>
  <style type="text/css">
   <![CDATA[
    .fil3 {fill:#FEFEFE}
    .fil2 {fill:#606062}
    .fil5 {fill:#717273}
    .fil4 {fill:#848688}
    .fil0 {fill:#B22D2F}
    .fil1 {fill:#ED3237}
   ]]>
  </style>
 </defs>
 <g id="Layer_x0020_1">
  <metadata id="CorelCorpID_0Corel-Layer"/>
  <g id="_1957611441728">
   <path class="fil0" d="M599 112l0 389c26,-16 84,-136 316,-135 80,1 193,3 267,-12 23,-4 16,-13 16,-41l0 -284c0,-29 2,-28 -24,-23 -86,16 -233,14 -321,16 -60,0 -133,18 -184,45 -26,13 -46,32 -70,45z"/>
   <path class="fil1" d="M599 501l0 -389c-21,-6 -92,-90 -262,-90 -105,-1 -251,-1 -336,-21l1 344c5,14 17,10 54,15 153,22 343,-28 476,77 28,22 30,26 52,51 20,24 11,15 15,13z"/>
   <path class="fil2" d="M781 546l-1 960 122 0c1,-179 1,-358 1,-537 0,-102 -4,-164 59,-207 73,-50 180,-8 236,-35l0 -230c0,-34 6,-20 -115,-20 -87,0 -171,-5 -246,33 -17,8 -48,19 -56,36z"/>
   <path class="fil2" d="M416 1506l0 -964c-112,-80 -225,-66 -358,-65 -25,0 -39,-4 -57,-4l0 258 127 4c160,0 168,100 168,234 0,179 0,358 0,537l120 0z"/>
   <path class="fil3" d="M3285 657l0 336c0,40 42,33 69,33 51,0 37,-76 37,-135 0,-58 0,-115 0,-172 22,-5 6,-9 41,-9 24,0 45,22 45,46l0 180c-7,82 -10,90 70,90 32,0 37,-24 37,-57l0 -234c2,-42 58,-23 71,-9 19,18 11,94 11,136 0,19 -3,132 3,145 10,26 104,32 104,-10l0 -266c0,-51 -52,-107 -103,-107 -133,0 -85,12 -125,19 -17,3 -33,-19 -63,-19 -48,0 -60,-4 -99,17 -8,-23 -29,-17 -65,-17 -20,0 -33,13 -33,33z"/>
   <path class="fil4" d="M780 1506l1 -960c-16,4 -30,21 -41,34 -11,14 -23,31 -32,46 -63,104 -42,180 -53,251 -6,42 -2,393 -2,453 0,63 -13,144 55,170 10,4 21,5 34,6l38 0z"/>
   <path class="fil4" d="M461 1506c9,-1 18,-2 26,-6 88,-35 54,-152 55,-240 1,-123 8,-443 -10,-523 -10,-44 -21,-77 -42,-110 -16,-28 -44,-68 -73,-81l3 960 41 0z"/>
   <path class="fil3" d="M2075 780l-110 0c0,-80 -9,-70 102,-70 32,0 34,70 8,70zm-221 -33l0 160c0,65 49,119 115,119l196 0c46,0 43,-62 28,-80 -29,-35 -228,29 -228,-47l0 -25c109,0 237,20 237,-94l0 -29c0,-68 -43,-127 -110,-127l-127 0c-67,0 -111,56 -111,123z"/>
   <path class="fil3" d="M2473 526l0 471c0,25 36,29 57,29 47,0 50,-27 50,-74 -1,-41 0,-82 0,-123 0,1 1,1 1,3 1,1 2,1 2,2l68 104c60,89 38,88 134,88 65,0 18,-41 -33,-119 -23,-34 -47,-68 -70,-102l110 -136c44,-54 11,-45 -53,-45 -36,0 -50,28 -69,54 -7,9 -11,12 -18,22l-72 92c0,-56 0,-112 0,-168 0,-123 12,-131 -74,-131 -20,0 -33,13 -33,33z"/>
   <path class="fil3" d="M3051 940c-103,0 -86,-9 -86,-184 0,-54 57,-46 86,-46 60,0 45,100 45,169 0,33 -16,61 -45,61zm-193 -213l0 197c0,26 20,58 35,72 47,43 121,30 203,30 52,0 107,-54 107,-106l0 -189c0,-51 -52,-107 -103,-107l-139 0c-51,0 -103,53 -103,103z"/>
   <path class="fil3" d="M1485 538c0,69 33,54 156,54l0 401c0,40 42,33 69,33 26,0 37,-19 37,-45l0 -389c91,0 144,15 144,-46 0,-19 -11,-45 -29,-45l-344 0c-21,0 -33,17 -33,37z"/>
   <path class="fil3" d="M2416 1268l0 176c0,28 31,62 77,62 55,0 46,-9 64,-13 13,-3 29,13 51,13 41,0 115,-6 115,-58l0 -180c0,-17 -29,-33 -66,-8l0 184c-78,19 -53,-27 -53,-172 0,-14 -27,-40 -70,-12l1 148c0,40 5,40 -29,40 -36,0 -25,-90 -25,-135 0,-43 14,-65 -37,-65 -14,0 -28,7 -28,20z"/>
   <path class="fil3" d="M2284 526l0 467c0,51 103,39 103,9l0 -484c0,-31 -103,-42 -103,8z"/>
   <path class="fil3" d="M5072 149l0 106c0,16 -1,2 4,13 -15,0 -30,0 -45,0 -46,1 -37,14 -37,-115 0,-24 45,-16 82,-16 -2,5 -4,4 -4,12zm-143 -8l0 147c0,49 117,37 143,37 0,70 -37,20 -127,41 -16,68 2,53 127,53 38,0 70,-32 70,-69l0 -250c0,-10 -7,-17 -16,-17l-140 0c-25,0 -57,32 -57,58z"/>
   <path class="fil3" d="M1784 1309l-70 0 0 -86 74 0c26,0 33,19 33,45 0,23 -14,41 -37,41zm-94 197l-20 0c-14,-3 -25,-13 -25,-29l0 -283c0,-19 9,-28 28,-28l140 0c27,0 48,14 60,29 14,17 18,44 18,73 0,116 -81,94 -177,94l0 115c0,16 -11,26 -24,29z"/>
   <path class="fil3" d="M3412 1350l-66 0c0,-51 -4,-45 58,-45 11,0 11,2 20,4 2,8 13,41 -12,41zm-135 -29c0,75 -19,185 73,185l119 0c38,0 29,-35 25,-53 -25,-12 -47,-9 -82,-9 -53,0 -66,11 -66,-37 101,0 152,15 152,-73 0,-123 -172,-87 -195,-69 -14,11 -26,34 -26,56z"/>
   <path class="fil3" d="M3035 1198l0 271c0,15 3,23 8,33 8,2 15,3 20,4l20 0c7,-2 12,-6 21,-12l0 -111c10,7 15,19 22,31 9,13 16,23 23,35 8,13 14,22 22,35 11,16 20,21 33,22l40 0c46,0 -72,-117 -70,-140 1,-10 67,-84 73,-95 6,-11 5,0 5,-19 -88,0 -57,-5 -140,97 -3,4 -5,7 -8,9 0,-34 0,-68 0,-102 0,-89 11,-86 -49,-86 -13,0 -20,15 -20,28z"/>
   <path class="fil3" d="M3674 178l-65 0 4 -41c56,0 74,-11 74,28 0,10 -3,13 -13,13zm-135 -17c0,173 0,168 180,168 15,0 23,-3 33,-8 6,-25 6,-20 0,-45 -82,-19 -143,25 -143,-41 115,0 147,10 147,-82 0,-86 -93,-70 -156,-70 -11,0 -17,4 -24,8 -25,15 -37,38 -37,70z"/>
   <path class="fil3" d="M2838 1424c0,-37 -4,-79 4,-115 16,-4 78,-15 78,12l0 111c0,23 -32,16 -66,16 -12,0 -16,-12 -16,-24zm69 82l-65 0c-91,0 -74,-113 -74,-181 0,-104 168,-84 198,-58 34,31 24,103 24,165 0,57 -41,71 -83,74z"/>
   <path class="fil3" d="M4113 1448c-80,0 -62,24 -62,-127 0,-22 31,-16 62,-16 10,0 16,7 16,16l0 111c0,10 -6,16 -16,16zm1 58l-54 0c-47,0 -78,-34 -78,-62l0 -135c0,-36 42,-61 82,-61 152,0 135,24 135,188 0,55 -43,67 -85,70z"/>
   <path class="fil3" d="M3810 22l0 287c0,17 29,32 65,8l0 -107c42,31 47,119 111,119l37 -4c-1,-23 -21,-41 -39,-68 -15,-23 -29,-42 -43,-63l42 -52c19,-23 35,-36 36,-59 -79,0 -56,-5 -98,46l-33 41c-5,6 -8,11 -13,16 0,-36 0,-71 0,-107 0,-44 12,-78 -33,-78 -14,0 -32,6 -32,21z"/>
   <path class="fil3" d="M1936 1256c-9,38 -4,131 -4,176 0,57 41,71 84,74l63 0c22,0 44,-12 54,-24 32,-35 20,-139 20,-206 0,-29 -35,-39 -70,-16 0,35 0,71 0,106 1,79 5,82 -53,82 -40,0 -29,-50 -29,-102 0,-32 7,-80 -7,-91 -15,-13 -44,-6 -58,1z"/>
   <path class="fil3" d="M4740 255c0,-136 -15,-118 66,-118 9,0 12,2 12,12 0,137 13,127 -49,127 -14,0 -29,-7 -29,-21zm-70 -82c0,129 0,156 128,156 24,0 47,-4 62,-15 40,-31 28,-99 28,-169 0,-27 -31,-62 -58,-62 -73,0 -114,-11 -144,28 -11,15 -16,37 -16,62z"/>
   <path class="fil3" d="M4429 276c-66,0 -54,2 -54,-123 0,-23 32,-16 66,-16 23,0 12,44 12,69 0,14 1,32 1,46 -1,19 -7,24 -25,24zm-119 -135l0 127c0,38 43,61 90,61 32,0 71,3 95,-15 40,-31 28,-94 28,-165 0,-31 -28,-66 -57,-66l-99 0c-25,0 -57,32 -57,58z"/>
   <path class="fil3" d="M2666 112c0,183 -20,217 127,217 52,0 90,-23 90,-74 0,-43 5,-130 -4,-168 -82,-19 -66,17 -66,74 0,33 0,66 0,99 -11,7 -17,16 -37,16 -50,0 -41,-34 -41,-82 0,-113 13,-111 -49,-111 -13,0 -20,15 -20,29z"/>
   <path class="fil3" d="M1829 157c0,31 24,63 48,71 36,12 100,-15 100,27 0,26 -91,17 -131,17 -17,24 -15,22 -9,49 29,14 83,8 123,8 106,0 107,-126 39,-149 -37,-12 -100,17 -100,-27 0,-39 131,7 131,-33 0,-48 9,-37 -139,-37 -32,0 -62,41 -62,74z"/>
   <path class="fil3" d="M3793 1186l0 62c-55,0 -53,6 -53,41 0,25 37,20 53,20 0,83 -20,197 74,197l61 0c23,-2 25,-10 25,-41 0,-44 -90,7 -90,-45l0 -111c72,0 78,7 78,-41 0,-27 -52,-20 -78,-20 0,-70 7,-82 -41,-82 -14,0 -29,7 -29,20z"/>
   <path class="fil3" d="M4060 100l0 209c0,22 33,25 61,12 6,-27 5,-107 4,-144 0,-46 -7,-40 49,-40 48,0 25,91 29,164 2,43 66,32 66,8l0 -160c0,-78 -82,-66 -123,-66 -22,0 -7,9 -26,5 -12,-3 8,-5 -11,-5 -24,0 -49,-5 -49,17z"/>
   <path class="fil3" d="M1587 100l0 209c0,22 34,25 62,12 6,-27 4,-107 4,-144 -1,-46 -7,-40 49,-40 48,0 25,91 29,164 2,43 65,32 65,8l0 -168c0,-26 -31,-58 -57,-58l-66 0c-21,0 -7,9 -25,5 -12,-3 7,-5 -11,-5 -24,0 -50,-5 -50,17z"/>
   <path class="fil3" d="M2473 30l0 53c-21,0 -53,-6 -53,25 0,35 26,29 53,29 0,159 -16,192 127,192 31,0 41,-31 26,-50 -17,-20 -83,9 -83,-28l0 -114c38,0 78,8 78,-25 0,-38 -30,-29 -78,-29 0,-70 7,-82 -41,-82 -19,0 -29,10 -29,29z"/>
   <path class="fil3" d="M2124 30l0 53c-20,0 -53,-6 -53,25 0,35 26,29 53,29 0,159 -15,192 128,192 21,0 47,-16 20,-57 -94,0 -78,15 -78,-135 39,0 78,8 78,-25 0,-38 -30,-29 -78,-29 0,-70 8,-82 -41,-82 -19,0 -29,10 -29,29z"/>
   <path class="fil3" d="M2973 22l0 61c-42,0 -53,-6 -53,29 0,31 16,25 53,25 0,160 -18,192 127,192 34,0 29,-24 29,-41 0,-27 -37,-10 -82,-20 -9,-37 -4,-92 -4,-131 77,0 74,6 74,-37 0,-24 -36,-17 -74,-17 0,-74 4,-82 -49,-82 -10,0 -21,11 -21,21z"/>
   <path class="fil3" d="M3264 34c0,39 34,29 99,29l0 246c0,22 33,25 61,12 10,-41 4,-205 4,-258 93,0 86,8 86,-41 0,-13 -12,-17 -24,-17l-197 0c-19,0 -29,10 -29,29z"/>
   <path class="fil3" d="M2211 1256c-10,39 -5,172 -5,221 0,26 17,29 34,29l7 0c39,0 29,-43 29,-82 0,-37 0,-74 0,-111 48,-11 103,16 103,-37 0,-47 -74,-26 -99,-20 -12,3 -1,3 -14,-2 -20,-8 -30,-11 -55,2z"/>
   <path class="fil3" d="M3551 1289c0,43 -7,180 8,213 9,2 15,3 21,4l19 0c8,-2 13,-6 22,-12l0 -181c26,-6 58,-4 90,-4 13,-19 12,-3 12,-41 0,-35 -80,-17 -95,-13 -26,7 -5,-7 -44,-7 -24,0 -33,16 -33,41z"/>
   <path class="fil3" d="M4572 30c0,56 -5,250 4,291 28,13 62,10 62,-12l0 -291c0,-8 -10,-15 -21,-17l-20 0c-13,3 -25,12 -25,29z"/>
   <path class="fil3" d="M1485 30c0,56 -6,250 4,291 28,13 62,10 62,-12l0 -291c0,-8 -10,-15 -22,-17l-19 0c-14,3 -25,12 -25,29z"/>
   <path class="fil3" d="M2317 108c0,48 -5,174 4,213 28,13 62,10 62,-12l0 -209c0,-22 -26,-17 -49,-17 -13,0 -17,12 -17,25z"/>
   <path class="fil3" d="M5183 100l0 209c0,22 34,25 61,12 2,-8 4,-21 5,-35l0 -178c0,-31 -17,-25 -50,-25 -9,0 -16,7 -16,17z"/>
   <path class="fil3" d="M2317 22c0,40 9,37 49,37 26,0 16,-40 13,-54 -17,-4 -62,-12 -62,17z"/>
   <path class="fil3" d="M5187 5c-13,58 0,54 41,54 11,0 18,-10 21,-22l0 -13c-3,-12 -11,-23 -29,-23l-33 4z"/>
   <polygon class="fil5" points="416,1506 420,1506 417,546 416,542 "/>
  </g>
 </g>
</svg>
