<?xml version="1.0" encoding="UTF-8"?>
<!DOCTYPE svg PUBLIC "-//W3C//DTD SVG 1.1//EN" "http://www.w3.org/Graphics/SVG/1.1/DTD/svg11.dtd">
<!-- Creator: CorelDRAW X7 -->
<svg xmlns="http://www.w3.org/2000/svg" xml:space="preserve" width="33.8666mm" height="33.8666mm" version="1.1" style="shape-rendering:geometricPrecision; text-rendering:geometricPrecision; image-rendering:optimizeQuality; fill-rule:evenodd; clip-rule:evenodd"
viewBox="0 0 3387 3387"
 xmlns:xlink="http://www.w3.org/1999/xlink">
 <defs>
  <style type="text/css">
   <![CDATA[
    .fil2 {fill:none}
    .fil0 {fill:#25B5D1}
    .fil1 {fill:#4EBED4}
    .fil6 {fill:#4EBED4}
    .fil3 {fill:#E0E1E3}
    .fil5 {fill:#F85655}
    .fil4 {fill:#FCFCFC}
   ]]>
  </style>
    <clipPath id="id0">
     <path d="M1944 2216l-583 253c-16,18 -72,72 -93,84 -48,55 -114,115 -223,124 -310,26 -474,-382 -190,-573 15,-21 69,-71 91,-85 23,-51 55,-103 80,-153 27,-53 54,-98 82,-149 188,-351 138,-236 264,-662l96 -315c8,-26 2,-23 20,-32l443 2c18,13 6,-6 14,24l57 404 369 4 4 366c12,1 267,159 289,178l15 5 -3 403c-125,20 -247,39 -371,59 -90,15 -291,36 -361,63zm1443 -568l0 106c-7,230 -59,458 -159,660 -42,86 -94,182 -151,259 -58,79 -116,151 -185,219 -68,69 -143,130 -222,188 -81,58 -166,105 -260,150 -250,120 -472,157 -776,157 -233,0 -505,-82 -662,-159 -194,-96 -277,-160 -428,-286 -178,-150 -367,-448 -447,-677 -83,-237 -97,-376 -97,-631 0,-233 81,-505 159,-662 44,-90 93,-180 151,-259 58,-79 115,-149 184,-219 286,-285 718,-494 1140,-494 381,0 592,55 910,227l126 80c245,178 435,400 562,674 95,205 148,435 155,667z"/>
    </clipPath>
 </defs>
 <g id="Layer_x0020_1">
  <metadata id="CorelCorpID_0Corel-Layer"/>
  <g id="_1957611433568">
   <path class="fil0" d="M1944 2216l-583 253c-16,18 -72,72 -93,84 -48,55 -114,115 -223,124 -310,26 -474,-382 -190,-573 15,-21 69,-71 91,-85 23,-51 55,-103 80,-153 27,-53 54,-98 82,-149 188,-351 138,-236 264,-662l96 -315c8,-26 2,-23 20,-32l443 2c18,13 6,-6 14,24l57 404 369 4 4 366c12,1 267,159 289,178l15 5 -3 403c-125,20 -247,39 -371,59 -90,15 -291,36 -361,63zm1443 -568l0 106c-7,230 -59,458 -159,660 -42,86 -94,182 -151,259 -58,79 -116,151 -185,219 -68,69 -143,130 -222,188 -81,58 -166,105 -260,150 -250,120 -472,157 -776,157 -233,0 -505,-82 -662,-159 -194,-96 -277,-160 -428,-286 -178,-150 -367,-448 -447,-677 -83,-237 -97,-376 -97,-631 0,-233 81,-505 159,-662 44,-90 93,-180 151,-259 58,-79 115,-149 184,-219 286,-285 718,-494 1140,-494 381,0 592,55 910,227l126 80c245,178 435,400 562,674 95,205 148,435 155,667z"/>
   <g style="clip-path:url(#id0)">
    <g>
     <polygon id="1" class="fil1" points="1931,710 870,2644 2538,3617 4189,2027 "/>
    </g>
   </g>
   <path class="fil2" d="M1944 2216l-583 253c-16,18 -72,72 -93,84 -48,55 -114,115 -223,124 -310,26 -474,-382 -190,-573 15,-21 69,-71 91,-85 23,-51 55,-103 80,-153 27,-53 54,-98 82,-149 188,-351 138,-236 264,-662l96 -315c8,-26 2,-23 20,-32l443 2c18,13 6,-6 14,24l57 404 369 4 4 366c12,1 267,159 289,178l15 5 -3 403c-125,20 -247,39 -371,59 -90,15 -291,36 -361,63zm1443 -568l0 106c-7,230 -59,458 -159,660 -42,86 -94,182 -151,259 -58,79 -116,151 -185,219 -68,69 -143,130 -222,188 -81,58 -166,105 -260,150 -250,120 -472,157 -776,157 -233,0 -505,-82 -662,-159 -194,-96 -277,-160 -428,-286 -178,-150 -367,-448 -447,-677 -83,-237 -97,-376 -97,-631 0,-233 81,-505 159,-662 44,-90 93,-180 151,-259 58,-79 115,-149 184,-219 286,-285 718,-494 1140,-494 381,0 592,55 910,227l126 80c245,178 435,400 562,674 95,205 148,435 155,667z"/>
   <g>
    <path class="fil3" d="M1355 1732c19,-16 112,-48 147,-57l0 36c10,-22 6,-32 22,-49l96 -101c24,-24 37,-47 63,-71 26,-23 41,-42 63,-69l188 -208c24,-25 38,-45 66,-70 34,4 148,6 183,4l180 1c-34,32 -77,64 -110,100 -19,19 -37,29 -57,49 -23,24 -29,29 -52,47l-542 482c-20,22 -91,90 -110,98 2,2 4,3 6,4l31 11c23,-10 200,-6 222,9l386 -281c66,-45 82,-44 156,-108 23,-20 52,-53 82,-51l-4 -366 -369 -4c-8,-62 -42,-405 -71,-428 -66,156 -157,251 -223,382 -23,46 -51,87 -79,133 -27,45 -51,85 -81,126 -30,41 -122,228 -193,322 -12,15 -13,17 -22,32l-20 36c34,-9 31,-15 42,-9z"/>
    <path class="fil4" d="M946 2019c11,17 26,36 45,47l211 -395c20,-35 55,-96 69,-130 9,16 45,141 27,173 -67,127 -178,281 -247,416 11,21 30,38 46,50 4,-21 108,-190 127,-222 23,-40 123,-193 131,-226 -11,-6 -8,0 -42,9l20 -36c9,-15 10,-17 22,-32 71,-94 163,-281 193,-322 30,-41 54,-81 81,-126 28,-46 56,-87 79,-133 66,-131 157,-226 223,-382l-443 -2c-18,9 -12,6 -20,32l-96 315c-126,426 -76,311 -264,662 -28,51 -55,96 -82,149 -25,50 -57,102 -80,153z"/>
    <path class="fil3" d="M1699 2138c17,-1 139,24 159,51l22 -8c14,12 15,12 31,16 32,9 29,-7 33,19 70,-27 271,-48 361,-63 124,-20 246,-39 371,-59l3 -403 -15 -5c-5,17 -24,24 -54,38 -21,9 -43,18 -66,27 -88,37 -295,118 -376,159 -86,44 -151,58 -193,77 -61,27 -92,52 -184,82 -48,16 -108,51 -120,46 3,10 13,10 28,23z"/>
    <path class="fil4" d="M1502 1711c-1,51 7,158 -24,191 -20,21 -34,34 -54,51l-273 249c-13,13 -7,4 -16,20 15,26 23,24 42,44l352 -327 -31 -11c-2,-1 -4,-2 -6,-4 19,-8 90,-76 110,-98l542 -482c23,-18 29,-23 52,-47 20,-20 38,-30 57,-49 33,-36 76,-68 110,-100l-180 -1c-35,2 -149,0 -183,-4 -28,25 -42,45 -66,70l-188 208c-22,27 -37,46 -63,69 -26,24 -39,47 -63,71l-96 101c-16,17 -12,27 -22,49z"/>
    <path class="fil4" d="M1751 1948c-8,23 -21,47 -35,73 -16,31 -14,49 -46,65l-456 222 45 48 440 -218c-15,-13 -25,-13 -28,-23 12,5 72,-30 120,-46 92,-30 123,-55 184,-82 42,-19 107,-33 193,-77 81,-41 288,-122 376,-159 23,-9 45,-18 66,-27 30,-14 49,-21 54,-38 -22,-19 -277,-177 -289,-178 -30,-2 -59,31 -82,51 -74,64 -90,63 -156,108l-386 281z"/>
    <path class="fil4" d="M1268 2553c-18,-19 -33,-39 -51,-59l-261 -281c-31,-29 -69,-77 -101,-109 -189,127 -180,354 -58,481 65,68 154,100 248,92 109,-9 175,-69 223,-124z"/>
    <path class="fil0" d="M1529 1939l-352 327 37 42 456 -222c32,-16 30,-34 46,-65 14,-26 27,-50 35,-73 -22,-15 -199,-19 -222,-9z"/>
    <path class="fil0" d="M1355 1732c-8,33 -108,186 -131,226 -19,32 -123,201 -127,222l38 42c9,-16 3,-7 16,-20l273 -249c20,-17 34,-30 54,-51 31,-33 23,-140 24,-191l0 -36c-35,9 -128,41 -147,57z"/>
    <path class="fil5" d="M855 2104c32,32 70,80 101,109l261 281c18,20 33,40 51,59 21,-12 77,-66 93,-84l-45 -47 -57 -66 -45 -48 -37 -42c-19,-20 -27,-18 -42,-44l-38 -42c-16,-12 -35,-29 -46,-50 -15,-13 -51,-48 -60,-64 -19,-11 -34,-30 -45,-47 -22,14 -76,64 -91,85z"/>
    <path class="fil0" d="M1259 2356l57 66 542 -233c-20,-27 -142,-52 -159,-51l-440 218z"/>
    <path class="fil0" d="M991 2066c9,16 45,51 60,64 69,-135 180,-289 247,-416 18,-32 -18,-157 -27,-173 -14,34 -49,95 -69,130l-211 395z"/>
    <path class="fil4" d="M1316 2422l45 47 583 -253c-4,-26 -1,-10 -33,-19 -16,-4 -17,-4 -31,-16l-22 8 -542 233z"/>
   </g>
   <path class="fil6" d="M1858 2189c-20,-27 -142,-52 -159,-51l-440 218 57 66 542 -233z"/>
   <path class="fil6" d="M1214 2308l456 -222c32,-16 30,-34 46,-65 14,-26 27,-50 35,-73 -22,-15 -199,-19 -222,-9l-352 327 37 42z"/>
   <path class="fil6" d="M1151 2202l273 -249c20,-17 34,-30 54,-51 31,-33 23,-140 24,-191l0 -36c-35,9 -128,41 -147,57 -8,33 -108,186 -131,226 -19,32 -123,201 -127,222l38 42c9,-15 3,-7 16,-20z"/>
   <path class="fil6" d="M1051 2130c69,-135 180,-289 247,-416 18,-32 -18,-157 -27,-173 -14,34 -49,95 -69,130l-211 395c9,16 45,51 60,64z"/>
  </g>
 </g>
</svg>
