<?xml version="1.0" encoding="UTF-8"?>
<!DOCTYPE svg PUBLIC "-//W3C//DTD SVG 1.1//EN" "http://www.w3.org/Graphics/SVG/1.1/DTD/svg11.dtd">
<!-- Creator: CorelDRAW X7 -->
<svg xmlns="http://www.w3.org/2000/svg" xml:space="preserve" width="33.8666mm" height="33.8666mm" version="1.1" style="shape-rendering:geometricPrecision; text-rendering:geometricPrecision; image-rendering:optimizeQuality; fill-rule:evenodd; clip-rule:evenodd"
viewBox="0 0 3387 3387"
 xmlns:xlink="http://www.w3.org/1999/xlink">
 <defs>
  <style type="text/css">
   <![CDATA[
    .fil2 {fill:none}
    .fil4 {fill:#252525}
    .fil0 {fill:#252525}
    .fil3 {fill:#F1A801}
    .fil1 {fill:#FFC369}
   ]]>
  </style>
    <clipPath id="id0">
     <path d="M1693 0c936,0 1694,758 1694,1693 0,936 -758,1694 -1694,1694 -935,0 -1693,-758 -1693,-1694 0,-935 758,-1693 1693,-1693z"/>
    </clipPath>
 </defs>
 <g id="Layer_x0020_1">
  <metadata id="CorelCorpID_0Corel-Layer"/>
  <g id="_1957699325216">
   <path class="fil0" d="M1693 0c936,0 1694,758 1694,1693 0,936 -758,1694 -1694,1694 -935,0 -1693,-758 -1693,-1694 0,-935 758,-1693 1693,-1693z"/>
   <g style="clip-path:url(#id0)">
    <g>
     <polygon id="1" class="fil1" points="6290,3941 6152,4055 7585,4882 9456,3544 7703,2531 5851,3688 "/>
    </g>
   </g>
   <path class="fil2" d="M1693 0c936,0 1694,758 1694,1693 0,936 -758,1694 -1694,1694 -935,0 -1693,-758 -1693,-1694 0,-935 758,-1693 1693,-1693z"/>
   <g>
    <path class="fil3" d="M807 1182l1793 1 0 1022 -1793 0 0 -1023zm-160 81l-85 1 0 144 85 1 0 566 -85 1 0 146 85 1 0 241 2112 0 1 -241 64 -1 1 -145 -64 -1 -1 -567 64 0 1 -144 -64 -1 -1 -241 -2112 -1 -1 241z"/>
    <path class="fil4" d="M1339 1279l144 0 1 697 68 0 1 -696 144 -1 0 814 -358 0 0 -814zm-269 812l-129 2 -1 -313 -29 -2 0 -132 28 -5 1 -362 323 0 0 473 -193 0 0 339zm704 -812l302 2 -1 348 -34 1 0 47 35 2 -1 414 -301 -1 0 -355 -26 -1 -3 -128 29 -1 0 -328zm516 684l1 13 74 0 1 -246 -27 0c-6,-21 -2,-103 -2,-130l152 0 0 492c-32,3 -299,4 -316,-1l-1 -810c17,-5 285,-4 316,-1l1 227 -110 1 0 -98c-26,-3 -62,-1 -89,-1l0 554zm-1483 242l1793 0 0 -1022 -1793 -1 0 1023z"/>
    <polygon class="fil3" points="1339,2093 1697,2093 1697,1279 1553,1280 1552,1976 1484,1976 1483,1279 1339,1279 "/>
    <path class="fil3" d="M1904 1752l47 0 0 211 -1 13 -46 0 0 -224zm0 -343l47 0 0 178 -1 13 -46 -1 0 -190zm-130 198l-29 1 3 128 26 1 0 355 301 1 1 -414 -35 -2 0 -47 34 -1 1 -348 -302 -2 0 328z"/>
    <path class="fil3" d="M2290 1409c27,0 63,-2 89,1l0 98 110 -1 -1 -227c-31,-3 -299,-4 -316,1l1 810c17,5 284,4 316,1l0 -492 -152 0c0,27 -4,109 2,130l27 0 -1 246 -74 0 -1 -13 0 -554z"/>
    <path class="fil3" d="M1070 1411c17,-5 44,-3 62,-1l-1 232 -61 0 0 -231zm0 341l193 0 0 -473 -323 0 -1 362 -28 5 0 132 29 2 1 313 129 -2 0 -339z"/>
    <path class="fil4" d="M1070 1642l61 0 1 -232c-18,-2 -45,-4 -62,1l0 231z"/>
    <polygon class="fil4" points="1904,1976 1950,1976 1951,1963 1951,1752 1904,1752 "/>
    <polygon class="fil4" points="1904,1599 1950,1600 1951,1587 1951,1409 1904,1409 "/>
   </g>
  </g>
 </g>
</svg>
