<?xml version="1.0" encoding="UTF-8"?>
<!DOCTYPE svg PUBLIC "-//W3C//DTD SVG 1.1//EN" "http://www.w3.org/Graphics/SVG/1.1/DTD/svg11.dtd">
<!-- Creator: CorelDRAW X7 -->
<svg xmlns="http://www.w3.org/2000/svg" xml:space="preserve" width="75.1838mm" height="32.8506mm" version="1.1" style="shape-rendering:geometricPrecision; text-rendering:geometricPrecision; image-rendering:optimizeQuality; fill-rule:evenodd; clip-rule:evenodd"
viewBox="0 0 7518 3285"
 xmlns:xlink="http://www.w3.org/1999/xlink">
 <defs>
  <style type="text/css">
   <![CDATA[
    .fil0 {fill:#FEFEFE}
   ]]>
  </style>
 </defs>
 <g id="Layer_x0020_1">
  <metadata id="CorelCorpID_0Corel-Layer"/>
  <g id="_1957804598000">
   <path class="fil0" d="M495 2243c-71,0 -50,-76 -16,-76 75,0 46,76 16,76zm1391 -1370c-9,-16 -9,-92 1,-108 -8,2 -9,4 -18,8 -6,4 -10,6 -18,11l-60 35c-1,1 -4,3 -5,3 -1,1 -2,1 -3,2 0,0 -1,1 -2,1 -12,7 -23,13 -36,21l-88 52c-6,3 -11,5 -18,10l-493 287c-3,2 -8,5 -11,6l-109 63c0,1 -1,1 -2,2l-15 8c-7,4 -12,7 -18,11 -7,4 -10,6 -18,10l-35 21c-23,13 -32,23 -34,54l4 505c0,23 4,27 4,51 -1,34 11,69 51,65 22,-3 54,-27 75,-39 14,-8 22,-14 34,-21l56 -32c7,-4 11,-7 18,-11l304 -180c7,-4 12,-6 18,-10l62 -38c4,-2 9,-4 11,-5l52 -32c6,-3 4,-2 8,-4l189 -112c13,-8 25,-14 38,-21l1 320c0,37 -5,64 -5,104l-214 122c-21,12 -34,20 -54,31l-270 154c-10,5 -18,9 -26,14 -10,6 -18,10 -29,15 -19,11 -32,20 -53,31l-201 115c-8,5 -5,4 -15,9l-80 45c-12,6 -16,10 -28,16l-268 152c-11,7 -16,10 -27,17 -58,32 -59,10 -115,-20l-322 -187c-4,-2 -9,-4 -13,-7 -7,-4 -8,-6 -14,-10l4 -1530 268 -157c2,-1 7,-3 10,-5 7,-4 5,-3 10,-7l561 -323c1,-1 2,-1 3,-2l165 -94c8,-4 13,-9 20,-13l43 -24c5,-3 4,-2 11,-6l111 -65c15,-8 119,-73 131,-73 13,0 33,17 45,23l33 19c0,1 1,2 2,2l61 35c9,5 3,2 10,6l66 38c8,5 12,7 21,12 9,5 14,8 23,13 13,7 74,40 83,52 -14,4 -26,14 -39,21l-945 545c-7,4 -8,3 -15,8 -5,4 -8,6 -14,10l-31 17c-6,4 -9,5 -16,9l-182 105c-42,25 -90,39 -91,78 -1,65 0,132 0,197 0,259 0,518 0,777 -26,12 -51,26 -68,51l-7 13c-1,1 -3,4 -3,5 -4,8 -6,16 -9,24 -11,32 -5,72 12,102 43,72 142,97 206,40l34 -42c22,-40 22,-86 1,-127l-25 -35c-14,-14 -31,-22 -49,-31l0 -938 403 -234c3,-2 4,-2 8,-4l375 -217c1,0 2,-1 3,-1l515 -298c34,-19 100,-43 83,-92 -11,-32 -65,-53 -95,-69 -1,-1 -4,-3 -5,-3l-20 -13c-6,-3 -9,-5 -15,-8l-31 -18c-6,-3 -1,-1 -7,-4 -4,-2 -3,-2 -8,-5l-134 -77c-50,-28 -99,-63 -150,-87 -36,-17 -66,9 -96,26l-413 240c-5,3 -10,5 -15,8 -6,3 -9,5 -16,9 -11,6 -17,9 -28,15l-284 165c-1,0 -2,1 -3,1 0,1 -1,1 -2,2l-137 79c-1,1 -2,1 -3,2l-426 246c-13,7 -22,13 -27,29 -10,30 -4,1414 -4,1446 0,39 -4,157 3,181 6,24 31,32 49,43 8,4 6,4 15,9l74 42c12,7 21,11 31,17l23 13c1,1 2,2 2,2 1,0 2,1 3,2 1,0 2,1 2,1l251 145c7,5 1,1 8,5 62,35 67,24 141,-18l412 -236c8,-5 9,-4 17,-8 4,-2 11,-6 15,-8l462 -263c46,-30 95,-55 143,-82l140 -80c11,-7 17,-9 28,-16 126,-71 92,-41 99,-182 0,-15 5,-29 7,-41 7,-51 0,-302 1,-375 0,-51 -12,-81 -64,-72 -15,3 -31,15 -44,24l-400 237c-1,0 -2,1 -3,1 0,1 -1,1 -2,2 -1,0 -2,1 -3,1l-337 200c-1,0 -6,3 -8,4 -20,10 -41,23 -60,35 0,-74 6,-162 -3,-229 -3,-18 -4,-227 -3,-229 3,-10 5,-10 12,-16l132 -76c7,-4 12,-7 18,-10l315 -182c13,-8 22,-15 37,-23l243 -142c6,-3 12,-6 18,-10 6,-3 1,0 7,-4l48 -29c13,-7 49,-20 54,-35z"/>
   <path class="fil0" d="M2325 1177c-1,0 -36,-8 -36,-36 0,-44 27,-51 53,-40 14,5 -6,-5 5,2 1,1 2,2 2,2 1,1 2,1 2,2 31,31 -4,70 -26,70zm-438 -412c-10,16 -10,92 -1,108 19,-3 2,2 17,-6l336 -196c65,-37 78,-59 115,-35l379 222c10,5 19,10 28,15l0 1542 -26 13c-10,6 -17,10 -26,15l-104 61c-8,4 -16,8 -26,14l-53 30c-10,5 -18,10 -26,15l-528 304c-6,4 -6,5 -12,8 -5,3 -8,4 -13,7l-116 68c-6,3 -10,5 -16,9l-208 120c-21,11 -32,19 -53,30l-104 61c-25,15 -47,-5 -85,-26l-245 -140c-1,0 -2,-1 -3,-1 0,-1 -2,-1 -2,-2 -1,0 -2,-1 -3,-1 -14,-8 -32,-13 -36,-28 20,-5 210,-116 239,-133l297 -172c7,-4 9,-5 15,-9l700 -401c22,-12 44,-21 46,-50 5,-54 0,-132 0,-188 0,-251 0,-502 0,-753 10,-7 15,-9 25,-15l23 -18c0,0 1,-1 2,-2l24 -35c15,-28 21,-81 5,-113 -24,-47 -65,-82 -119,-82 -54,0 -79,10 -113,47l-18 27c-18,36 -17,88 3,126 9,16 23,32 37,43 45,33 35,12 35,86 0,98 5,820 -3,838 -7,17 -135,84 -149,91l-310 179c-1,0 -2,1 -3,1l-18 10c-1,0 -2,1 -2,1 -19,11 -32,19 -51,30l-51 29c-8,5 -6,3 -12,8l-64 36c-10,5 -17,9 -26,14l-533 308c-6,3 -8,4 -13,7 -28,15 -101,49 -112,73 -10,23 -5,41 10,56l14 11c1,0 2,1 2,1l5 3c1,1 2,1 3,2l77 43c4,3 8,4 13,7l139 81c10,6 16,9 26,14l128 72c16,8 32,19 51,30 43,24 75,-6 113,-27l231 -134c10,-5 17,-9 26,-15l228 -132c9,-5 17,-10 25,-14 11,-6 15,-9 26,-15 6,-3 8,-4 13,-7 6,-3 6,-4 12,-7l221 -128c1,0 2,-1 3,-1 1,-1 2,-1 2,-2l124 -72c1,-1 4,-2 6,-3 19,-11 32,-19 50,-30l191 -109c4,-3 8,-5 12,-7l51 -29c10,-6 18,-11 26,-15l76 -44c40,-28 27,-87 27,-133l0 -1446c0,-111 -6,-89 -97,-143 -19,-11 -32,-21 -53,-31 -18,-10 -34,-21 -50,-30l-202 -118c-10,-6 -18,-9 -26,-14l-76 -45c-24,-13 -38,-10 -63,2l-101 59c-1,0 -2,1 -2,2 -1,0 -2,1 -3,1l-129 75c-1,1 -4,3 -5,3l-121 71c-1,0 -2,1 -3,1l-43 27z"/>
   <path class="fil0" d="M5700 1718l0 705c0,16 15,13 32,12 14,0 29,0 44,0 11,-46 4,-447 4,-529l7 17c4,9 1,0 4,8 3,7 3,9 5,15 17,52 43,102 64,153 3,8 9,19 13,27l13 31c2,4 1,4 3,9l6 14c5,11 9,20 12,28l29 71c7,12 11,30 20,40 21,21 74,19 90,-22 3,-6 3,-9 6,-15 1,-4 3,-6 6,-14 1,-4 4,-10 5,-14 1,-1 2,-4 3,-5 1,-4 2,-5 3,-9l17 -39c2,-6 3,-10 5,-15 4,-10 8,-18 12,-28 0,-2 2,-5 2,-6l50 -119c0,-1 1,-5 2,-6 0,-1 1,-2 1,-3 0,-1 2,-4 2,-5l18 -43c3,-6 4,-9 6,-14l21 -50c1,-1 2,-2 2,-3 0,-1 1,-2 1,-3l0 473c0,73 1,56 68,56 16,0 16,-24 16,-40l0 -657c0,-46 -31,-32 -72,-32 -18,0 -27,40 -33,55l-44 104c-3,8 0,1 -3,9 -1,1 -1,2 -1,3l-128 305c0,1 -1,2 -1,3 -1,0 -1,1 -2,2 -5,12 -7,11 -8,28 -19,-13 -39,-80 -51,-105l-112 -264c-1,-1 -1,-2 -2,-3l-13 -31c-1,-4 -1,-5 -3,-9l-43 -97c-17,0 -76,-9 -76,12z"/>
   <path class="fil0" d="M5504 849l0 705c0,21 49,12 64,12 22,0 16,-30 16,-52l6 -459c1,1 1,2 2,2l39 94c4,10 8,17 12,27 5,10 7,18 11,29l97 228c2,6 0,3 3,9 4,5 6,7 10,9 25,16 72,17 89,-34l29 -72c2,-5 5,-10 6,-13l64 -156c2,-5 3,-8 6,-15l4 -8c0,-1 2,-4 2,-6 0,-1 1,-2 1,-2 1,-1 1,-2 1,-3 2,-3 4,-7 4,-8 5,-10 3,-5 6,-14l18 -43c6,-14 8,-30 18,-42l0 453c0,92 -16,76 76,76 2,-9 4,-9 4,-20l0 -697c0,-21 -53,-12 -68,-12 -17,0 -22,25 -27,37 0,1 -1,2 -1,3l-35 81c0,1 -1,2 -1,3 0,1 -1,2 -1,3 0,1 -1,2 -1,3l-22 54c-4,10 -8,19 -13,31l-107 257c-6,12 -12,19 -12,37 -16,-11 -16,-26 -31,-58 -5,-11 -8,-21 -12,-31 -3,-7 -5,-10 -8,-16l-41 -96c-1,-5 -4,-11 -7,-17 -3,-9 -4,-9 -7,-17l-28 -64c-5,-10 -2,-4 -7,-17 -1,0 -1,-2 -1,-2l-54 -127c-5,-11 -9,-19 -14,-30 -3,-8 -3,-11 -7,-18 -4,-10 -4,-3 -7,-16 -17,0 -76,-9 -76,12z"/>
   <path class="fil0" d="M3494 1726l0 681c0,14 3,16 4,28 94,0 76,15 76,-80l0 -477c1,1 1,2 2,3 0,2 2,4 2,5l95 166c4,8 6,10 10,18l192 337c19,35 17,28 79,28 10,0 12,-3 12,-12l0 -717 -76 0 0 553c-13,-10 -26,-47 -43,-73 -37,-58 -91,-160 -130,-226l-65 -112c-4,-7 -6,-11 -9,-18l-32 -56c-4,-7 -7,-11 -11,-18 -15,-27 -18,-48 -42,-50 -15,-2 -43,0 -60,0 -2,9 -4,9 -4,20z"/>
   <path class="fil0" d="M5352 2067l-117 0c-9,0 -12,-3 -12,-12l0 -265c0,-20 35,-12 89,-12 30,0 122,3 142,10 22,9 32,13 48,29 34,35 26,168 7,199 -27,43 -110,51 -157,51zm-209 356c0,20 38,12 76,12 9,-37 5,-211 4,-273 0,-40 -2,-27 161,-27 14,0 16,15 23,32l93 196c4,7 4,12 8,20l13 27c13,32 10,25 79,25 35,0 -16,-89 -29,-115l-20 -44c-1,-1 -1,-2 -2,-3l-63 -133c-8,-21 -5,-13 22,-21 121,-40 100,-140 100,-257 0,-35 -5,-51 -18,-77 -3,-6 -5,-8 -8,-12 -37,-44 -64,-48 -114,-63 -10,-3 3,-4 -16,-4l-309 0 0 717z"/>
   <path class="fil0" d="M4643 2247c0,-73 -8,-370 10,-419 25,-73 187,-68 241,-41 37,19 49,45 49,87l0 393c0,40 -13,67 -47,85 -16,8 -29,15 -49,15 -34,1 -94,5 -122,-2 -30,-7 -66,-27 -74,-58 -4,-18 -8,-41 -8,-60zm-80 -433l0 517c0,9 20,41 29,52 32,39 67,45 110,57 50,14 182,9 227,-11 74,-33 98,-69 98,-146l0 -433c0,-43 -9,-73 -38,-101l-59 -37c-1,-1 -2,-1 -3,-1 -10,-4 -2,-2 -16,-5 -11,-2 -6,0 -16,-4 -44,-15 -119,-8 -168,-8l-105 35c-28,18 -59,57 -59,85z"/>
   <path class="fil0" d="M4022 953c0,94 -15,131 41,191 24,26 59,38 91,50l133 51c1,0 2,1 3,1 1,0 2,1 3,1 9,3 0,0 9,3 5,2 13,5 17,7 80,33 76,71 76,149 0,51 -39,88 -88,92 -55,5 -136,16 -183,-22 -33,-28 -34,-79 -34,-134 -28,-8 3,-8 -56,-8 -13,0 -3,3 -20,8 0,35 -2,78 0,112 1,19 9,34 19,49l15 17c10,12 27,24 42,31l20 8c12,5 10,4 24,7 16,3 10,3 22,6 11,3 15,2 26,2 54,5 120,6 173,-8 11,-2 9,-1 19,-5l17 -7c7,-3 12,-4 19,-9 9,-4 20,-12 28,-20 2,-2 4,-5 5,-7l6 -6c12,-13 23,-33 26,-50 6,-43 11,-167 -9,-200 0,-1 -2,-4 -3,-5l-14 -22c-22,-30 -58,-47 -93,-59 -1,0 -2,-1 -3,-1l-202 -78c-68,-36 -66,-156 5,-186 50,-22 133,-20 181,0 90,36 28,146 74,146 83,0 64,8 64,-116 0,-16 -31,-67 -66,-86l-37 -16c-13,-4 -15,-2 -28,-7 -39,-15 -125,-7 -169,-7 -24,0 -84,24 -102,39 -13,12 -31,31 -38,46 0,1 -1,5 -2,6 -6,14 -11,20 -11,37z"/>
   <path class="fil0" d="M6869 1822c0,97 -12,113 22,170 16,25 41,42 67,54l104 40c6,3 3,2 14,6l43 16c50,24 122,35 122,107 0,33 5,78 -11,109 -29,51 -102,47 -153,47 -27,0 -54,-1 -77,-11 -66,-28 -63,-70 -63,-149 -28,-8 2,-8 -56,-8 -13,0 -3,3 -20,8 0,39 -10,100 6,134 15,35 34,58 69,75l44 16c58,11 144,20 203,5 47,-11 99,-30 124,-76 7,-13 12,-20 14,-34 7,-43 12,-162 -9,-199l-4 -8c0,-1 -1,-2 -1,-3l-7 -9c-32,-49 -92,-65 -144,-84 -13,-5 -16,-7 -29,-11l-130 -51c-19,-10 -33,-22 -40,-43 -23,-66 0,-143 77,-152 56,-7 145,-16 186,33 26,32 5,123 37,123 84,0 64,7 64,-117 0,-17 1,2 -4,-11 -2,-3 -3,-6 -5,-11 -14,-36 -43,-61 -79,-74 -77,-29 -116,-20 -204,-20 -22,0 -44,9 -64,17 0,0 -1,0 -2,1 -34,12 -65,33 -81,67 -7,15 -13,25 -13,43z"/>
   <path class="fil0" d="M3278 945c0,31 -6,122 4,144 29,67 62,79 119,101 5,2 9,4 15,6 7,3 5,2 14,5 13,5 19,8 32,13l72 28c19,9 45,15 70,30l22 17c8,8 12,14 16,25 12,34 13,106 -4,140 -25,50 -104,48 -152,48 -38,0 -88,-4 -115,-33 -25,-28 -25,-75 -25,-127 -27,-8 12,-8 -52,-8 -37,0 -24,32 -24,128 0,17 -1,-1 5,14 3,7 4,9 6,14 37,78 147,88 221,88 42,0 89,-2 127,-17l14 -6c1,0 2,-1 3,-1l52 -36c46,-49 36,-103 36,-180 0,-49 -11,-94 -50,-122 -19,-14 -44,-31 -66,-38 -5,-2 -5,-1 -10,-3 -2,-1 -6,-3 -8,-4l-194 -74c-1,-1 -4,-2 -5,-3 -18,-10 -25,-15 -33,-35 -24,-57 -13,-143 71,-157 39,-6 102,-9 139,3l28 12c33,18 37,47 40,80 2,32 -18,79 80,56 8,-32 4,-70 4,-104 0,-13 -4,-16 -8,-24 -5,-14 -2,-13 -11,-25 -17,-27 -39,-44 -69,-55 -80,-30 -106,-20 -208,-20 -38,0 -103,27 -135,70 -6,8 -21,38 -21,50z"/>
   <path class="fil0" d="M6601 1838c0,37 11,69 21,103l67 218 -188 0c2,-24 20,-66 23,-81 1,-4 1,-5 2,-10l40 -128c2,-10 4,-10 8,-20 3,-10 2,-11 4,-20 12,-44 4,-49 23,-62zm-269 581c0,23 33,16 68,16 18,0 20,-21 23,-29 0,-1 1,-2 1,-3l27 -86c3,-13 4,-17 7,-28 12,-40 15,-27 15,-58 32,-8 207,-8 240,0l17 67c5,12 7,21 11,33 38,127 17,104 112,104 9,-33 0,-27 -7,-57 -4,-14 -2,-9 -6,-22l-42 -134c-4,-12 -3,-9 -6,-22l-35 -110c0,-1 0,-2 -1,-3l-2 -9c-1,-1 -1,-2 -1,-3l-13 -44c-8,-35 -41,-124 -52,-168 -3,-14 -3,-7 -7,-21l-14 -46c-2,-11 -10,-32 -14,-46l-16 -44 -84 0 -62 199c-3,8 -4,16 -6,22l-34 110c-6,13 -4,11 -8,25l-34 110c-3,7 -1,0 -3,8 -2,6 -2,8 -3,13 -3,12 0,-1 -3,9l-68 217z"/>
   <path class="fil0" d="M3290 2571c9,3 9,4 20,4l4171 0c31,0 31,-32 12,-32l-4191 0c-16,0 -12,14 -12,28z"/>
   <path class="fil0" d="M5015 865l0 677c0,12 4,24 16,24l385 0c25,0 20,-36 20,-52 0,-10 -7,-12 -12,-20l-253 0c-24,0 -72,8 -72,-16l0 -252c0,-19 31,-13 64,-13l233 0c20,-86 -20,-68 -60,-68l-205 1c-17,0 -32,4 -32,-13l0 -212c0,-15 13,-12 28,-12l249 0c21,0 22,-4 40,-4 6,-26 6,-42 0,-68l-397 0c-1,12 -4,14 -4,28z"/>
   <path class="fil0" d="M4086 2423c0,19 23,12 69,12 15,0 16,-24 16,-40l0 -300c59,0 283,5 324,-4l0 -64c-79,-19 -245,10 -324,-8l-1 -225c3,-23 11,-16 61,-16l224 0c69,1 60,2 60,-60 0,-9 -3,-12 -12,-12l-417 0 0 717z"/>
   <path class="fil0" d="M4487 849c0,70 -9,60 92,60 21,0 97,-9 106,6l2 607c-1,51 -11,44 68,44 19,0 12,-32 12,-68 0,-89 -6,-575 4,-585 25,-25 200,28 200,-32 0,-16 4,-44 -16,-44l-456 0c-9,0 -12,3 -12,12z"/>
   <path class="fil0" d="M3826 849l0 705c0,18 23,12 68,12 14,0 16,-18 16,-32l0 -669c0,-14 -3,-16 -4,-28 -38,0 -80,-7 -80,12z"/>
   <path class="fil0" d="M7417 1718l0 697c0,11 2,11 4,20 53,0 80,9 80,-24l0 -677c0,-14 -3,-15 -4,-28 -37,0 -80,-7 -80,12z"/>
   <path class="fil0" d="M3290 2423c0,19 22,12 68,12 9,0 12,-3 12,-12l0 -705c0,-19 -29,-12 -80,-12l0 717z"/>
   <path class="fil0" d="M5888 2760l15 61c5,13 4,18 8,32l24 96c12,35 -2,55 37,55 18,0 22,-51 26,-66l34 -122c0,24 13,57 18,78 3,12 3,20 6,31 23,80 9,79 52,79 3,-14 7,-14 10,-26l54 -226c0,-14 -7,-12 -20,-12 -20,0 -14,20 -19,37l-9 35c0,1 0,2 0,3l-21 80c-4,20 -5,4 -7,25l-8 0c0,-30 -3,-25 -8,-48l-29 -116c-6,-17 -2,-16 -27,-16 -13,0 -9,4 -13,15l-31 121c-3,19 -10,31 -12,52l-20 -72c-4,-13 -2,-13 -5,-27 -2,-9 -4,-10 -7,-21l-12 -52c-5,-19 -7,-16 -36,-16l0 20z"/>
   <path class="fil0" d="M4799 2752l0 240c0,20 24,11 36,8l0 -160 27 57c1,4 1,5 3,10l7 17c2,5 5,11 7,16 8,20 6,18 24,28 32,-15 21,-22 45,-72l27 -68 0 140c-1,39 -1,41 36,32l0 -256c-38,-9 -32,-8 -55,45l-38 97c-1,1 -1,2 -1,3 -7,20 -2,19 -18,23 0,-25 0,-5 -13,-39 0,-1 -1,-2 -1,-3l-45 -107c0,-1 -1,-2 -1,-3 -8,-17 -6,-20 -28,-20 -9,0 -12,2 -12,12z"/>
   <path class="fil0" d="M5740 2876c-42,0 -32,14 -32,-108 94,0 96,2 96,72 0,24 -38,36 -64,36zm-68 -124l0 240c0,18 36,18 36,0l0 -92c68,0 48,-2 55,8l20 45c19,44 18,51 45,51 22,0 6,-22 -12,-61 -37,-78 -7,-21 21,-87 3,-9 3,9 3,-8 0,-28 5,-70 -18,-90 -32,-27 -84,-18 -138,-18 -9,0 -12,2 -12,12z"/>
   <path class="fil0" d="M6981 2876c-42,0 -32,14 -32,-108 107,0 96,6 96,76 0,24 -46,32 -64,32zm-68 -132l0 256c47,11 36,11 36,-100 74,0 46,-8 82,66 4,8 3,5 7,13l6 14c7,11 -2,11 25,11 19,0 11,-12 7,-22 -10,-27 -35,-66 -35,-78 0,-15 14,-12 25,-23 20,-21 24,-102 -3,-124 -33,-27 -68,-17 -130,-17 -6,0 -15,2 -20,4z"/>
   <path class="fil0" d="M7437 2976c-17,0 -56,-2 -56,-24l0 -152c0,-39 60,-38 84,-24 6,4 16,14 16,24l0 144c0,7 -8,18 -14,22 -5,3 -22,10 -30,10zm-92 -188l0 168c0,56 85,48 112,48 29,0 60,-32 60,-60l0 -144c0,-28 -31,-60 -60,-60 -25,0 -112,-8 -112,48z"/>
   <path class="fil0" d="M6320 2976c-18,0 -23,1 -41,-7 -8,-4 -15,-6 -15,-17l0 -160c0,-11 6,-12 13,-16 19,-12 8,-8 43,-8 19,0 44,14 44,40 0,49 9,136 -12,156l-32 12zm-92 -188l0 176c0,19 40,40 48,40l64 0c25,0 56,-25 56,-52l0 -160c0,-71 -168,-72 -168,-4z"/>
   <path class="fil0" d="M4595 2920l0 -96c0,-22 4,-24 4,-44 17,-4 38,-23 78,-6 6,3 18,7 18,22 0,27 6,148 -5,163 -23,36 -90,5 -91,5 0,-20 -4,-22 -4,-44zm-32 -140l0 184c0,8 11,22 17,26 31,23 151,29 151,-42l0 -152c0,-70 -116,-65 -148,-44 -7,4 -20,18 -20,28z"/>
   <path class="fil0" d="M6465 2760c0,51 -6,205 4,244 43,0 32,10 32,-112 12,4 4,0 15,13 14,15 72,91 84,96 10,5 6,3 25,3 15,0 1,1 12,-4 -4,-12 -44,-58 -55,-70l-40 -47c-2,-3 -4,-9 -5,-11l32 -44c0,-1 1,-2 1,-2 1,-1 2,-2 2,-3 6,-7 8,-9 14,-17l13 -20c12,-18 -9,12 4,-4 4,-7 3,-5 7,-9l10 -15c3,-6 10,2 2,-12 -4,-8 4,-6 -21,-6 -14,0 -42,45 -51,57 -10,15 -34,57 -49,63 0,-128 12,-120 -32,-120 -3,9 -4,9 -4,20z"/>
   <path class="fil0" d="M4343 2760c0,51 -6,205 4,244 43,0 32,10 32,-112 11,4 17,13 28,28l64 76c12,11 48,15 41,-5l-77 -91c-15,-18 -7,-3 -20,-28 5,-8 7,-8 12,-16l20 -28c0,-1 1,-2 2,-2 0,-1 1,-2 1,-3l50 -68c0,0 8,4 1,-9 -5,-8 4,-6 -22,-6 -26,0 -74,110 -100,120 0,-128 12,-120 -32,-120 -2,9 -4,9 -4,20z"/>
   <path class="fil0" d="M5284 2884l-53 0 0 -116c102,0 97,5 97,84 0,7 -9,18 -14,22 -5,3 -23,10 -30,10zm-89 -140l0 204c0,48 -8,56 24,56 21,0 12,-37 12,-92 49,0 83,7 112,-17 27,-24 21,-63 21,-103 0,-18 0,0 -4,-9l-24 -32c-36,-19 -61,-11 -121,-11 -6,0 -15,2 -20,4z"/>
   <path class="fil0" d="M5432 2752l0 212c0,17 31,40 52,40 37,0 88,7 107,-28 1,-2 4,-8 4,-9 6,-12 5,6 5,-11l0 -204c0,-16 -10,-12 -32,-12l0 188c0,57 -62,57 -100,32l0 -176c0,-36 3,-44 -24,-44 -10,0 -12,2 -12,12z"/>
   <path class="fil0" d="M3922 2744c0,68 0,136 0,204 0,69 -30,56 148,56 3,-9 4,-9 4,-20 -7,-5 -7,-8 -16,-8l-100 0 0 -96 100 0c3,-9 4,-9 4,-20 -7,-5 -7,-8 -16,-8l-88 0 0 -84c37,0 78,4 112,-4 0,-34 2,-24 -128,-24 -6,0 -15,2 -20,4z"/>
   <path class="fil0" d="M6697 2752l0 240c0,15 13,12 27,12l121 0c2,-9 3,-9 4,-20 -7,-5 -7,-8 -16,-8l-100 0 0 -96 100 0c9,-38 -9,-28 -100,-28l0 -84c56,0 112,10 112,-16 0,-10 -3,-12 -12,-12l-124 0c-9,0 -12,2 -12,12z"/>
   <path class="fil0" d="M3698 2760c20,13 22,8 68,8l0 232c12,3 36,12 36,-8l0 -224c38,0 72,7 72,-16 0,-20 -41,-12 -80,-12 -30,0 -61,0 -92,0 -2,9 -3,9 -4,20z"/>
   <path class="fil0" d="M7125 2752c0,22 33,16 68,16l0 224c0,18 36,18 36,0l0 -224c39,0 59,5 72,-12 -2,-9 -4,-16 -16,-16l-148 0c-9,0 -12,2 -12,12z"/>
   <path class="fil0" d="M4139 2756l0 232c0,9 6,16 16,16 39,0 96,4 132,-4 -1,-35 -32,-24 -112,-24l0 -224c0,-20 -36,-15 -36,4z"/>
   <path class="fil0" d="M3390 2764c29,6 33,4 68,4l0 224c0,15 9,12 32,12l0 -236c35,0 43,2 72,-4 0,-14 2,-24 -12,-24l-148 0c-15,0 -12,10 -12,24z"/>
   <path class="fil0" d="M3302 2752l0 240c0,17 15,12 32,12 7,-33 7,-232 0,-264 -17,0 -32,-5 -32,12z"/>
  </g>
 </g>
</svg>
