<?xml version="1.0" encoding="UTF-8"?>
<!DOCTYPE svg PUBLIC "-//W3C//DTD SVG 1.1//EN" "http://www.w3.org/Graphics/SVG/1.1/DTD/svg11.dtd">
<!-- Creator: CorelDRAW X7 -->
<svg xmlns="http://www.w3.org/2000/svg" xml:space="preserve" width="33.8666mm" height="33.8666mm" version="1.1" style="shape-rendering:geometricPrecision; text-rendering:geometricPrecision; image-rendering:optimizeQuality; fill-rule:evenodd; clip-rule:evenodd"
viewBox="0 0 3387 3387"
 xmlns:xlink="http://www.w3.org/1999/xlink">
 <defs>
  <style type="text/css">
   <![CDATA[
    .fil5 {fill:none}
    .fil10 {fill:#002117}
    .fil0 {fill:#4CFFC6}
    .fil3 {fill:#7AFFD5}
    .fil4 {fill:#7AFFD5}
    .fil8 {fill:#7FC9AE}
    .fil11 {fill:#FBE214}
    .fil6 {fill:#FBE214}
    .fil9 {fill:#FDFDFD}
    .fil7 {fill:#FEFEFE}
    .fil2 {fill:#FF5959}
    .fil1 {fill:#FFC369}
   ]]>
  </style>
    <clipPath id="id0">
     <path d="M1693 0c936,0 1694,758 1694,1693 0,936 -758,1694 -1694,1694 -935,0 -1693,-758 -1693,-1694 0,-935 758,-1693 1693,-1693z"/>
    </clipPath>
 </defs>
 <g id="Layer_x0020_1">
  <metadata id="CorelCorpID_0Corel-Layer"/>
  <g id="_1957611429856">
   <path class="fil0" d="M1693 0c936,0 1694,758 1694,1693 0,936 -758,1694 -1694,1694 -935,0 -1693,-758 -1693,-1694 0,-935 758,-1693 1693,-1693z"/>
   <g style="clip-path:url(#id0)">
    <g>
     <polygon id="1" class="fil1" points="6290,3941 6152,4055 7585,4882 9456,3544 7703,2531 5851,3688 "/>
     <polygon class="fil2" points="4090,3629 6048,4760 7817,3135 6092,2139 "/>
     <polygon class="fil3" points="942,2342 890,2536 962,2577 920,2720 2641,3714 4237,1887 1690,416 1255,2426 "/>
     <path class="fil4" d="M965 2246l79 46c0,0 332,-68 221,-317l-55 -53 -410 -236 111 117 134 134 -80 309z"/>
    </g>
   </g>
   <path class="fil5" d="M1693 0c936,0 1694,758 1694,1693 0,936 -758,1694 -1694,1694 -935,0 -1693,-758 -1693,-1694 0,-935 758,-1693 1693,-1693z"/>
   <g>
    <path class="fil6" d="M2264 2574c18,12 88,48 104,51 8,-14 31,-30 19,-51 -12,-19 -13,-23 -35,-26 -3,-22 -6,-7 -8,-29 -22,0 -28,-9 -49,3 -31,18 -16,23 -35,26l4 26z"/>
    <path class="fil6" d="M1029 2632l109 -52 1 -54 -1 -8c-35,3 -52,-10 -83,16 -23,19 -22,32 -28,49l-9 17c22,16 1,18 24,19 -22,6 -9,2 -13,13z"/>
    <path class="fil7" d="M1938 1652c-121,-1 -178,-2 -283,-73 -27,-19 -45,-40 -67,-58 -18,25 -17,55 -70,123 -64,80 -69,20 -66,125 5,173 135,310 295,274 91,-21 162,-114 182,-204 12,-56 11,-127 9,-187z"/>
    <path class="fil8" d="M1648 2438c7,-46 12,-49 -8,-66 -7,11 -24,62 -56,11 -14,-23 -30,-45 -45,-67l-67 -100c-7,-11 -15,-21 -21,-34 -164,-3 -287,133 -284,295 1,64 -1,128 0,192l147 -2c1,-36 0,-73 0,-109 0,-17 0,-35 -1,-52 0,-24 -1,-25 13,-39 44,-3 31,45 31,85 0,37 0,75 1,113 13,3 239,3 258,0l32 -227z"/>
    <path class="fil8" d="M1755 2372c-13,11 -11,14 -8,34l30 226c5,37 2,31 11,33l252 -1 -1 -158c0,-22 -3,-30 13,-41 42,-13 31,51 31,84 1,37 0,75 1,114l146 2c-8,-120 20,-246 -41,-347 -23,-39 -59,-75 -96,-97 -50,-29 -86,-39 -151,-42 -22,33 -136,218 -148,222 -27,5 -29,-13 -39,-29z"/>
    <path class="fil7" d="M1452 1648c26,-24 52,-53 72,-93 42,-83 20,-108 66,-103 55,82 189,177 346,155 10,-48 -27,-124 -66,-158 -55,-49 -109,-38 -193,-38 -35,0 -75,-4 -107,7 -93,33 -125,130 -118,230z"/>
    <path class="fil9" d="M1788 2333c9,-6 67,-100 74,-110 5,-9 11,-19 17,-28 31,-48 27,-25 1,-88 -11,5 -145,115 -154,124 8,16 50,95 62,102z"/>
    <path class="fil9" d="M1509 2109c-11,40 -24,47 -12,66l111 160c8,-6 53,-87 59,-104l-78 -62c-15,-12 -25,-19 -39,-31l-41 -29z"/>
    <path class="fil9" d="M1696 2196l115 -92c23,-17 22,-16 19,-49 -46,20 -66,38 -134,38 -74,1 -92,-22 -139,-39 0,38 -4,31 20,51l119 91z"/>
    <path class="fil9" d="M1700 2407c-7,9 -10,49 -12,64 -4,23 -7,43 -10,66 -5,40 -15,89 -17,128l75 1c1,-32 -12,-97 -16,-131l-20 -128z"/>
    <path class="fil10" d="M957 2391c6,-22 7,-45 -17,-47 -23,-2 -27,14 -32,35 -9,38 -19,75 -28,113 -5,21 -8,43 15,47 26,5 29,-14 34,-35 10,-37 19,-75 28,-113zm743 16l20 128c4,34 17,99 16,131l-75 -1c2,-39 12,-88 17,-128 3,-23 6,-43 10,-66 2,-15 5,-55 12,-64zm-681 86l152 -564c16,-59 3,-47 -28,-77l-582 -500c242,-8 486,-8 728,-13 77,-2 52,14 114,-134l213 -520c12,-28 65,-163 74,-175 11,15 44,104 55,128l108 258c17,39 37,95 56,131l106 254c27,67 15,54 129,54 60,1 124,-1 183,1l15 2 111 -1 25 1 349 3c-22,23 -39,38 -59,54l-62 56c-11,9 -18,18 -29,27l-398 357c-63,63 -64,7 0,251 16,61 33,125 47,186 15,61 35,125 48,187 4,15 10,57 20,70 -1,18 22,90 26,117l-59 -30c-14,-3 -71,-33 -86,-43 -3,-4 -3,-148 -10,-181 -11,-51 -35,-98 -62,-131 -57,-68 -131,-123 -262,-125 -31,-69 -27,-88 -67,-86 -1,-31 1,-31 18,-48 61,-59 91,-164 90,-252 0,-123 13,-242 -74,-326 -63,-60 -105,-58 -212,-57 -105,1 -153,-3 -215,57 -43,40 -74,110 -74,195 1,86 -5,177 18,255 11,36 26,63 44,91 34,54 52,41 43,88 -36,-13 -36,27 -60,85 -60,3 -99,10 -148,35 -82,41 -139,109 -167,196 -15,48 -15,110 -13,163l0 6 -1 41 -82 40 2 3c-20,1 -42,20 -64,28l40 -157zm1415 11c2,-14 -94,-384 -111,-451 -13,-50 -28,-102 -39,-152l240 -219c7,-6 11,-9 18,-15 6,-6 10,-10 17,-16 35,-29 103,-95 138,-124l206 -186c13,-10 26,-29 6,-44 -15,-11 -287,-8 -320,-8l-389 -4c-28,0 -107,3 -128,-2 -12,-18 -36,-82 -47,-107l-301 -717c-8,-19 -12,-42 -34,-43 -27,0 -41,57 -57,97l-319 775c-151,-2 -359,6 -517,9 -88,1 -175,3 -262,4 -19,1 -47,-3 -59,8 -33,28 38,67 76,103 13,12 22,19 36,30l250 215c6,5 274,236 287,243 -2,27 -74,286 -87,333 -11,40 -78,279 -86,325 -1,3 -1,5 0,7 -10,12 -22,71 -26,87 -40,138 54,46 160,3l34 -19 4 14c0,23 -4,52 15,59 14,6 897,0 992,-2 40,0 118,8 142,-11l-1 -65c20,3 152,77 176,85 20,7 36,-4 36,-23l-39 -156c-2,-10 -4,-27 -11,-33zm-1415 -11c-11,5 -10,4 -22,17 -5,6 -11,12 -18,18 -8,8 -23,20 -27,30l67 -65zm736 -121c10,16 12,34 39,29 12,-4 126,-189 148,-222 65,3 101,13 151,42 37,22 73,58 96,97 61,101 33,227 41,347l-146 -2c-1,-39 0,-77 -1,-114 0,-33 11,-97 -31,-84 -16,11 -13,19 -13,41l1 158 -252 1c-9,-2 -6,4 -11,-33l-30 -226c-3,-20 -5,-23 8,-34zm-139 293c-19,3 -245,3 -258,0 -1,-38 -1,-76 -1,-113 0,-40 13,-88 -31,-85 -14,14 -13,15 -13,39 1,17 1,35 1,52 0,36 1,73 0,109l-147 2c-1,-64 1,-128 0,-192 -3,-162 120,-299 284,-295 6,13 14,23 21,34l67 100c15,22 31,44 45,67 32,51 49,0 56,-11 20,17 15,20 8,66l-32 227zm-107 -556l41 29c14,12 24,19 39,31l78 62c-6,17 -51,98 -59,104l-111 -160c-12,-19 1,-26 12,-66zm279 224c-12,-7 -54,-86 -62,-102 9,-9 143,-119 154,-124 26,63 30,40 -1,88 -6,9 -12,19 -17,28 -7,10 -65,104 -74,110zm-231 -279c47,17 65,40 139,39 68,0 88,-18 134,-38 3,33 4,32 -19,49l-115 92 -119 -91c-24,-20 -20,-13 -20,-51zm381 -402c2,60 3,131 -9,187 -20,90 -91,183 -182,204 -160,36 -290,-101 -295,-274 -3,-106 2,-45 66,-125 53,-68 52,-98 70,-123 22,18 40,39 67,58 105,71 162,72 283,73zm-486 -4c-7,-100 25,-197 118,-230 32,-11 72,-7 107,-7 84,0 138,-11 193,38 39,34 76,110 66,158 -157,22 -291,-73 -346,-155 -46,-5 -24,20 -66,103 -20,40 -46,69 -72,93zm995 721c5,31 20,81 28,114 5,20 6,44 24,49 63,19 15,-101 4,-146 -5,-21 -6,-42 -24,-47 -20,-7 -36,9 -32,30zm82 -562c6,-6 8,-9 14,-14 7,-6 11,-8 17,-13 7,-8 8,-9 15,-15 14,-12 55,-43 56,-58 2,-17 -11,-30 -28,-28 -14,2 -45,37 -65,52 -11,9 -18,18 -29,27 -32,24 -92,83 -122,107 -69,56 -55,50 -26,159 16,61 31,125 46,187 12,48 58,33 51,-5 -5,-28 -16,-63 -23,-92 -10,-40 -41,-154 -45,-185l139 -122zm-1662 -71c-15,-14 -50,-51 -67,-50 -15,1 -26,13 -22,30 2,13 47,50 59,59l92 82c13,12 17,15 30,26l60 53c-10,54 -69,261 -70,282 -1,29 39,51 53,-4 15,-63 31,-124 46,-186 20,-88 40,-99 2,-129l-60 -54c-7,-6 -9,-9 -15,-15l-108 -94z"/>
    <path class="fil11" d="M878 1593l41 42c45,24 68,-44 131,-98l-44 -59c-15,-11 -18,-8 -39,-11 -30,-4 -37,-5 -54,15 -48,53 -48,25 -35,111z"/>
    <path class="fil11" d="M1000 1493l43 44c47,25 70,-46 136,-102l-46 -62c-15,-11 -18,-8 -41,-11 -31,-5 -38,-5 -56,15 -50,56 -50,26 -36,116z"/>
    <g>
     <g>
      <path class="fil11" d="M898 1583c5,10 9,9 16,17 5,5 8,11 15,15 11,6 16,6 27,1 7,-4 61,-65 73,-75 -1,-1 -1,-3 -1,-4 -7,-16 -19,-31 -33,-41 -11,-9 -13,-6 -30,-9 -23,-3 -28,-3 -41,11 -29,33 -35,25 -31,55l5 30zm1555 -246l-111 1 -1 0 -2 12c8,3 14,11 18,21 10,30 -6,66 -35,76 -62,21 -90,-42 -83,-70 0,0 1,-2 1,-2l22 -33c0,0 1,-1 2,-2l-1 0 0 0 0 0 0 0 0 0 -1 0 0 0 0 0 0 0 0 0 0 0 -1 0 0 0 0 0 0 0 0 0 0 0 -1 0 0 0 0 0 0 0 0 0 0 0 0 0 -1 0 0 0 0 0 0 0 0 0 -1 0 0 0 0 0 0 0 0 0 0 0 0 0 -1 0 0 0 0 0 0 0 0 0 0 0 0 0 -1 0 0 0 0 0 0 0 0 0 0 0 0 0 -1 0 0 0 0 0 0 0 0 0 0 0 -1 0 0 0 0 0 0 0 0 0 0 0 0 0 -1 0 0 0 0 0 0 0 0 0 0 0 -1 0 0 0 0 0 0 0 0 0c-9,-1 -18,-1 -26,-2 -3,0 -6,0 -9,0l0 0 0 0 0 0 -1 0 0 0 0 0 0 1 -1 0 0 0 0 0 -1 0 0 0 0 0 0 0 -1 0 0 0 0 0 0 0 -1 0 0 0 0 0 -1 0 0 0 0 0 0 0 -1 0 0 0 0 0 0 0 -1 0 0 0 0 0 -1 0 0 0 0 0 0 0 -1 0 0 0 -1 0 0 0 0 0 0 0 -1 0 0 0 0 0 -1 0 0 0 0 0 0 0 -1 0 0 1 0 0 -1 0 0 0 0 0 0 0 -1 0 0 0 -1 0 0 0 0 0 -1 0 0 0 0 0 0 0 -1 0 0 0 0 0 -1 0 0 0 0 0 -1 0 0 0 0 1 -1 0 0 0 0 0 -1 0 0 0 0 0 -1 0 0 0 0 0 -1 0 0 0 0 0c-11,23 -38,29 -19,64 27,50 -36,33 29,91l49 50c27,28 37,24 65,-8 -16,-41 9,-59 23,-71l51 -54c11,-11 37,-14 59,-8 7,-7 24,-22 26,-32 2,-13 -2,-14 -9,-22l-12 -13 -1 -1zm25 1l-25 -1 25 1zm-139 12l3 -12 -15 -2c-13,-2 -25,-2 -36,-1 -48,0 -99,1 -147,0 -114,0 -102,13 -129,-54l-106 -254c-19,-36 -39,-92 -56,-131l-108 -258c-11,-24 -44,-113 -55,-128 -9,12 -62,147 -74,175l-213 520c-62,148 -37,132 -114,134 -242,5 -486,5 -728,13l582 500c31,30 44,18 28,77l-152 564 -40 157c22,-8 44,-27 64,-28l-2 -3c3,-9 -6,-6 10,-11 -17,-1 -2,-2 -18,-14l6 -12c5,-14 5,-24 22,-38 23,-19 36,-10 63,-12 -2,-53 -2,-115 13,-163 28,-87 85,-155 167,-196 49,-25 88,-32 148,-35 24,-58 24,-98 60,-85 9,-47 -9,-34 -43,-88 -18,-28 -33,-55 -44,-91 -23,-78 -17,-169 -18,-255 0,-85 31,-155 74,-195 62,-60 110,-56 215,-57 107,-1 149,-3 212,57 87,84 74,203 74,326 1,88 -29,193 -90,252 -17,17 -19,17 -18,48 40,-2 36,17 67,86 131,2 205,57 262,125 27,33 51,80 62,131 7,33 7,177 10,181l-3 -21c15,-3 3,-7 28,-21 17,-10 23,-3 40,-3 3,18 5,6 7,24 18,3 19,6 29,22 10,17 -9,30 -15,42l59 30c-4,-27 -27,-99 -26,-117 -10,-13 -16,-55 -20,-70 -13,-62 -33,-126 -48,-187 -14,-61 -31,-125 -47,-186 -64,-244 -63,-188 0,-251l398 -357c11,-9 18,-18 29,-27l62 -56c20,-16 37,-31 59,-54l-349 -3 9 14c11,23 -1,39 -17,56 -5,6 -8,7 -14,13l-110 112c-81,83 -73,48 -129,1l-42 -43c-43,-42 1,-44 -17,-82 -25,-51 15,-56 13,-70 0,0 0,-1 0,-1 13,-3 29,-1 46,0l122 12zm-87 -10c14,-1 26,-3 39,-5l-39 5zm-1190 66c11,23 -40,43 16,82l35 -33c0,0 11,-9 4,-16 -10,-10 -21,10 -28,15 -10,9 4,7 -14,5 -14,-24 32,-51 -7,-72 -28,-15 -69,37 -46,39 18,1 18,-34 40,-20z"/>
     </g>
     <rect class="fil6" x="2139" y="1335" width="372" height="262"/>
    </g>
   </g>
  </g>
 </g>
</svg>
