<?xml version="1.0" encoding="UTF-8"?>
<!DOCTYPE svg PUBLIC "-//W3C//DTD SVG 1.1//EN" "http://www.w3.org/Graphics/SVG/1.1/DTD/svg11.dtd">
<!-- Creator: CorelDRAW X7 -->
<svg xmlns="http://www.w3.org/2000/svg" xml:space="preserve" width="33.8666mm" height="33.8666mm" version="1.1" style="shape-rendering:geometricPrecision; text-rendering:geometricPrecision; image-rendering:optimizeQuality; fill-rule:evenodd; clip-rule:evenodd"
viewBox="0 0 3387 3387"
 xmlns:xlink="http://www.w3.org/1999/xlink">
 <defs>
  <style type="text/css">
   <![CDATA[
    .fil3 {fill:none}
    .fil9 {fill:#21B2D1}
    .fil6 {fill:#3E3E3F}
    .fil8 {fill:#3FC8E6}
    .fil10 {fill:#40C9E7}
    .fil5 {fill:#5B5C5F}
    .fil11 {fill:#808183}
    .fil13 {fill:#E2E4E5}
    .fil12 {fill:#E6E6E6}
    .fil7 {fill:#F0F1F1}
    .fil4 {fill:#FAFAFA}
    .fil14 {fill:#FEFEFE}
    .fil0 {fill:#FF4C4C}
    .fil2 {fill:#FF5959}
    .fil1 {fill:#FFC369}
    .fil15 {fill:white}
   ]]>
  </style>
    <clipPath id="id0">
     <path d="M1693 0c936,0 1694,758 1694,1693 0,936 -758,1694 -1694,1694 -935,0 -1693,-758 -1693,-1694 0,-935 758,-1693 1693,-1693z"/>
    </clipPath>
 </defs>
 <g id="Layer_x0020_1">
  <metadata id="CorelCorpID_0Corel-Layer"/>
  <g id="_1957699374592">
   <path class="fil0" d="M1693 0c936,0 1694,758 1694,1693 0,936 -758,1694 -1694,1694 -935,0 -1693,-758 -1693,-1694 0,-935 758,-1693 1693,-1693z"/>
   <g style="clip-path:url(#id0)">
    <g>
     <polygon id="1" class="fil1" points="6290,3941 6152,4055 7585,4882 9456,3544 7703,2531 5851,3688 "/>
     <polygon class="fil2" points="705,2430 2663,3560 4431,1935 2707,940 "/>
    </g>
   </g>
   <path class="fil3" d="M1693 0c936,0 1694,758 1694,1693 0,936 -758,1694 -1694,1694 -935,0 -1693,-758 -1693,-1694 0,-935 758,-1693 1693,-1693z"/>
   <g>
    <path class="fil4" d="M1555 2072c-64,-35 -119,-178 -118,-276 0,-125 57,-216 118,-275 201,-194 489,-83 542,15 147,142 131,408 -9,538 -59,54 -155,108 -271,106 -110,-1 -213,-53 -262,-108zm666 -789c-27,-23 -18,-51 -18,-97 0,-34 -3,-85 0,-116 4,-44 31,-40 73,-39 90,1 294,-21 309,25 9,32 7,199 -8,217 -18,22 -46,15 -82,15 -59,-1 -243,5 -274,-5zm-1247 -120c82,-25 109,99 35,121 -86,25 -111,-98 -35,-121zm461 -138c-24,24 -200,2 -243,5 -29,1 -57,8 -75,-9l-62 0c-14,14 6,2 -15,9 -3,0 -17,2 -19,2 -42,-2 -18,-2 -29,-11l-66 0c-13,11 4,3 -16,9 -2,0 -17,2 -19,2 -45,-2 -16,0 -28,-11l-64 3c-42,15 -73,-7 -108,24 -28,25 -20,68 -20,110 0,85 -2,171 1,255l809 0c-18,24 -42,44 -65,72 -62,78 -99,182 -105,288 -11,275 176,474 402,524 26,4 22,7 51,4 31,-9 82,-8 114,0 80,15 229,-76 271,-111 237,-205 246,-537 13,-776l551 0c3,-61 8,-445 -6,-474 -25,-54 -137,-36 -205,-36l-713 -1c-359,0 -346,-28 -354,122z"/>
    <path class="fil5" d="M671 2309l1076 -2c25,-5 7,0 17,-6 -29,3 -25,0 -51,-4l-935 1 259 -260c20,-18 2,-9 27,-15 -17,-37 -10,-89 -10,-131 0,-50 9,-84 52,-93 102,-20 75,129 73,205 13,-25 6,-52 7,-85 2,-39 9,-40 29,-59l65 -65c17,-17 10,-12 31,-22 6,-106 43,-210 105,-288 23,-28 47,-48 65,-72l-809 0 -1 896z"/>
    <path class="fil6" d="M1878 2301c28,17 810,7 835,7l0 -894 -551 0c233,239 224,571 -13,776 -42,35 -191,126 -271,111z"/>
    <path class="fil7" d="M671 2309c-4,147 28,127 165,127l1721 0c129,0 164,15 156,-128 -25,0 -807,10 -835,-7 -32,-8 -83,-9 -114,0 -10,6 8,1 -17,6l-1076 2z"/>
    <path class="fil8" d="M1555 2072c19,-37 422,-426 502,-509 17,-18 17,-24 40,-27 -53,-98 -341,-209 -542,-15 -61,59 -118,150 -118,275 -1,98 54,241 118,276z"/>
    <path class="fil9" d="M1555 2072c49,55 152,107 262,108 116,2 212,-52 271,-106 140,-130 156,-396 9,-538 -23,3 -23,9 -40,27 -80,83 -483,472 -502,509z"/>
    <path class="fil6" d="M1179 2004c-12,53 -76,69 -115,19 -25,6 -7,-3 -27,15l-259 260 935 -1c-226,-50 -413,-249 -402,-524 -21,10 -14,5 -31,22l-65 65c-20,19 -27,20 -29,59 -1,33 6,60 -7,85z"/>
    <path class="fil10" d="M2221 1283c31,10 215,4 274,5 36,0 64,7 82,-15 15,-18 17,-185 8,-217 -15,-46 -219,-24 -309,-25 -42,-1 -69,-5 -73,39 -3,31 0,82 0,116 0,46 -9,74 18,97z"/>
    <path class="fil11" d="M1064 2023c39,50 103,34 115,-19 2,-76 29,-225 -73,-205 -43,9 -52,43 -52,93 0,42 -7,94 10,131z"/>
    <path class="fil5" d="M974 1163c-76,23 -51,146 35,121 74,-22 47,-146 -35,-121z"/>
    <path class="fil12" d="M1117 1021c18,17 46,10 75,9 43,-3 219,19 243,-5 -37,10 -143,4 -188,4 0,-33 6,-80 -5,-105l2 108 -62 0 0 -129 -64 1 -1 117z"/>
    <path class="fil13" d="M992 1021c11,9 -13,9 29,11 2,0 16,-2 19,-2 21,-7 1,5 15,-9l0 -117 -64 0 1 117z"/>
    <path class="fil13" d="M863 1021c12,11 -17,9 28,11 2,0 17,-2 19,-2 20,-6 3,2 16,-9l0 -117 -63 0 0 117z"/>
    <polygon class="fil14" points="926,1021 992,1021 991,904 926,904 "/>
    <polygon class="fil14" points="1242,924 1229,905 1182,903 1182,1032 1244,1032 "/>
    <polygon class="fil15" points="1055,1021 1117,1021 1118,904 1055,904 "/>
    <path class="fil14" d="M799 1024l64 -3 0 -117 -56 6c-11,31 -8,76 -8,114z"/>
   </g>
  </g>
 </g>
</svg>
